<svg xmlns="http://www.w3.org/2000/svg" role="img" width="1060" height="815" viewBox="-20.0 -20.0 1060.0 815.0"><title>deployment-view</title><rect x="-20.0" y="-20.0" width="1060.0" height="815.0" fill="#ffffff"/><g font-family="Inter, Arial, sans-serif" font-size="14"><g data-dediren-group-id="prod-node-boundary" data-dediren-group-type="Device" data-dediren-group-source-id="device-prod-node"><rect x="12.0" y="204.0" width="603.0" height="559.0" rx="0" fill="#ffffff" stroke="#000000" stroke-width="1"/><text x="20.0" y="220.0" fill="#000000" font-size="12">Production Node</text></g><g data-dediren-edge-id="deploy-orders-service"><marker id="marker-end-deploy-orders-service" data-dediren-edge-marker-end="open_arrow" markerWidth="10" markerHeight="10" refX="9" refY="5" orient="auto"><path d="M 1 1 L 9 5 L 1 9" fill="none" stroke="#000000" stroke-width="1.5"/></marker><path d="M 158.0 474.0 L 158.0 514.0 Q 158.0 522.0 166.0 522.0 L 459.2 522.0 Q 467.2 522.0 467.2 530.0 L 467.2 570.0" fill="none" stroke="#000000" stroke-width="1.25" stroke-linecap="round" stroke-linejoin="round" stroke-dasharray="8 5" marker-end="url(#marker-end-deploy-orders-service)"/><text x="176.0" y="540.0" text-anchor="middle" fill="none" font-size="15.4" font-weight="600" stroke="#ffffff" stroke-width="2">deploy</text><text x="176.0" y="540.0" text-anchor="middle" fill="#000000" font-size="15.4" font-weight="600">deploy</text></g><g data-dediren-edge-id="deploy-orders-spec"><marker id="marker-end-deploy-orders-spec" data-dediren-edge-marker-end="open_arrow" markerWidth="10" markerHeight="10" refX="9" refY="5" orient="auto"><path d="M 1 1 L 9 5 L 1 9" fill="none" stroke="#000000" stroke-width="1.5"/></marker><path d="M 139.0 307.0 L 139.0 347.0 Q 139.0 355.0 147.0 355.0 L 508.8 355.0 Q 516.8 355.0 516.8 363.0 L 516.8 570.0" fill="none" stroke="#000000" stroke-width="1.25" stroke-linecap="round" stroke-linejoin="round" stroke-dasharray="8 5" marker-end="url(#marker-end-deploy-orders-spec)"/><text x="327.9" y="373.0" text-anchor="middle" fill="none" font-size="15.4" font-weight="600" stroke="#ffffff" stroke-width="2">applies</text><text x="327.9" y="373.0" text-anchor="middle" fill="#000000" font-size="15.4" font-weight="600">applies</text></g><g data-dediren-edge-id="artifact-manifests-order-api"><marker id="marker-end-artifact-manifests-order-api" data-dediren-edge-marker-end="open_arrow" markerWidth="10" markerHeight="10" refX="9" refY="5" orient="auto"><path d="M 1 1 L 9 5 L 1 9" fill="none" stroke="#000000" stroke-width="1.5"/></marker><g data-dediren-line-jump-masks="artifact-manifests-order-api"><path d="M 282.0 516.0 Q 288.0 522.0 282.0 528.0" fill="none" stroke="#ffffff" stroke-width="6"/></g><path d="M 234.0 438.0 L 274.0 438.0 Q 282.0 438.0 282.0 446.0 L 282.0 516.0 Q 288.0 522.0 282.0 528.0 L 282.0 707.0 Q 282.0 715.0 290.0 715.0 L 330.0 715.0 L 492.5 715.0 L 639.0 715.0 L 807.0 715.0" fill="none" stroke="#000000" stroke-width="1.25" stroke-linecap="round" stroke-linejoin="round" stroke-dasharray="8 5" marker-end="url(#marker-end-artifact-manifests-order-api)"/><text x="288.0" y="576.5" text-anchor="start" fill="none" font-size="15.4" font-weight="600" stroke="#ffffff" stroke-width="2">manifests</text><text x="288.0" y="576.5" text-anchor="start" fill="#000000" font-size="15.4" font-weight="600">manifests</text></g><g data-dediren-edge-id="orders-runtime-payment-path"><path d="M 583.0 619.0 L 639.0 619.0 L 679.0 619.0 Q 687.0 619.0 687.0 611.0 L 687.0 543.0 Q 687.0 535.0 695.0 535.0 L 807.0 535.0" fill="none" stroke="#000000" stroke-width="1.25" stroke-linecap="round" stroke-linejoin="round"/><text x="681.0" y="577.0" text-anchor="end" fill="none" font-size="15.4" font-weight="600" stroke="#ffffff" stroke-width="2">HTTPS</text><text x="681.0" y="577.0" text-anchor="end" fill="#000000" font-size="15.4" font-weight="600">HTTPS</text></g><g data-dediren-node-id="device-prod-node"><g data-dediren-node-shape="uml_device"><rect x="225.5" y="27.6" width="184.4" height="104.4" rx="0" fill="#ffffff" stroke="#000000" stroke-width="1.25"/><path data-dediren-deployment-target-part="top" d="M 225.5 27.6 L 241.1 12.0 L 425.5 12.0 L 409.9 27.6 Z" fill="#ffffff" stroke="#000000" stroke-width="1.25"/><path data-dediren-deployment-target-part="side" d="M 409.9 27.6 L 425.5 12.0 L 425.5 116.4 L 409.9 132.0 Z" fill="#ffffff" stroke="#000000" stroke-width="1.25"/></g><g data-dediren-node-decorator="uml_device"><text x="325.5" y="29.0" text-anchor="middle" fill="#000000" font-size="11">«device»</text></g><text x="325.5" y="72.0" text-anchor="middle" dominant-baseline="middle" fill="#000000" font-size="14.0" textLength="104.2" lengthAdjust="spacing">Production Node</text></g><g data-dediren-node-id="ee-orders-runtime"><g data-dediren-node-shape="uml_execution_environment"><rect x="402.0" y="583.5" width="167.5" height="83.5" rx="0" fill="#ffffff" stroke="#000000" stroke-width="1.25"/><path data-dediren-deployment-target-part="top" d="M 402.0 583.5 L 414.5 571.0 L 582.0 571.0 L 569.5 583.5 Z" fill="#ffffff" stroke="#000000" stroke-width="1.25"/><path data-dediren-deployment-target-part="side" d="M 569.5 583.5 L 582.0 571.0 L 582.0 654.5 L 569.5 667.0 Z" fill="#ffffff" stroke="#000000" stroke-width="1.25"/></g><g data-dediren-node-decorator="uml_execution_environment"><text x="492.0" y="588.0" text-anchor="middle" fill="#000000" font-size="11">«executionEnvironment»</text></g><text x="492.0" y="619.0" text-anchor="middle" dominant-baseline="middle" fill="#000000" font-size="14.0" textLength="98.7" lengthAdjust="spacing">Orders Runtime</text></g><g data-dediren-node-id="node-payment-network"><g data-dediren-node-shape="uml_node"><rect x="808.0" y="490.6" width="184.4" height="104.4" rx="0" fill="#ffffff" stroke="#000000" stroke-width="1.25"/><path data-dediren-deployment-target-part="top" d="M 808.0 490.6 L 823.6 475.0 L 1008.0 475.0 L 992.4 490.6 Z" fill="#ffffff" stroke="#000000" stroke-width="1.25"/><path data-dediren-deployment-target-part="side" d="M 992.4 490.6 L 1008.0 475.0 L 1008.0 579.4 L 992.4 595.0 Z" fill="#ffffff" stroke="#000000" stroke-width="1.25"/></g><g data-dediren-node-decorator="uml_node"></g><text x="908.0" y="535.0" text-anchor="middle" dominant-baseline="middle" fill="#000000" font-size="14.0" textLength="110.4" lengthAdjust="spacing">Payment Network</text></g><g data-dediren-node-id="artifact-orders-service"><g data-dediren-node-shape="uml_artifact"><path data-dediren-artifact-part="body" d="M 83.0 403.0 H 216.2 L 233.0 419.8 V 473.0 H 83.0 Z" fill="#ffffff" stroke="#000000" stroke-width="1.25"/><path data-dediren-artifact-part="fold" d="M 216.2 403.0 V 419.8 H 233.0" fill="none" stroke="#000000" stroke-width="1.25"/></g><g data-dediren-node-decorator="uml_artifact"></g><text x="158.0" y="438.0" text-anchor="middle" dominant-baseline="middle" fill="#000000" font-size="14.0" textLength="108.1" lengthAdjust="spacing">orders-service.jar</text></g><g data-dediren-node-id="artifact-migration-job"><g data-dediren-node-shape="uml_artifact"><path data-dediren-artifact-part="body" d="M 64.0 570.0 H 197.2 L 214.0 586.8 V 640.0 H 64.0 Z" fill="#ffffff" stroke="#000000" stroke-width="1.25"/><path data-dediren-artifact-part="fold" d="M 197.2 570.0 V 586.8 H 214.0" fill="none" stroke="#000000" stroke-width="1.25"/></g><g data-dediren-node-decorator="uml_artifact"></g><text x="139.0" y="605.0" text-anchor="middle" dominant-baseline="middle" fill="#000000" font-size="14.0" textLength="100.3" lengthAdjust="spacing">migration-job.jar</text></g><g data-dediren-node-id="deployment-spec-orders"><g data-dediren-node-shape="uml_deployment_specification"><path data-dediren-artifact-part="body" d="M 44.0 236.0 H 217.2 L 234.0 252.8 V 306.0 H 44.0 Z" fill="#ffffff" stroke="#000000" stroke-width="1.25"/><path data-dediren-artifact-part="fold" d="M 217.2 236.0 V 252.8 H 234.0" fill="none" stroke="#000000" stroke-width="1.25"/></g><g data-dediren-node-decorator="uml_deployment_specification"><text x="139.0" y="253.0" text-anchor="middle" fill="#000000" font-size="11">«deployment spec»</text></g><text x="139.0" y="271.0" text-anchor="middle" dominant-baseline="middle" fill="#000000" font-size="14.0" textLength="150.1" lengthAdjust="spacing">orders-deployment.yaml</text></g><g data-dediren-node-id="component-order-api"><rect data-dediren-node-shape="uml_component" x="808.0" y="667.0" width="180.0" height="96.0" rx="0" fill="#ffffff" stroke="#000000" stroke-width="1.25"/><g data-dediren-node-decorator="uml_component"><rect x="950.0" y="677.0" width="28.0" height="21.1" fill="#ffffff" stroke="#000000" stroke-width="1.25"/><rect x="946.0" y="681.6" width="9.0" height="5.9" fill="#ffffff" stroke="#000000" stroke-width="1.25"/><rect x="946.0" y="689.2" width="9.0" height="5.9" fill="#ffffff" stroke="#000000" stroke-width="1.25"/></g><text x="898.0" y="715.0" text-anchor="middle" dominant-baseline="middle" fill="#000000" font-size="14.0" textLength="62.2" lengthAdjust="spacing">Order API</text></g></g></svg>
