<svg xmlns="http://www.w3.org/2000/svg" role="img" width="1006" height="736" viewBox="-20.0 -20.0 1006.0 736.0"><title>component-view</title><rect x="-20.0" y="-20.0" width="1006.0" height="736.0" fill="#ffffff"/><g font-family="Inter, Arial, sans-serif" font-size="14"><g data-dediren-group-id="orders-package-boundary" data-dediren-group-type="Package" data-dediren-group-source-id="pkg-orders"><rect x="12.0" y="12.0" width="942.0" height="672.0" rx="0" fill="#ffffff" stroke="#000000" stroke-width="1"/><text x="20.0" y="28.0" fill="#000000" font-size="12">Orders</text></g><g data-dediren-group-id="order-api-boundary" data-dediren-group-type="Component" data-dediren-group-source-id="component-order-api"><rect x="581.0" y="44.0" width="341.0" height="272.0" rx="0" fill="#ffffff" stroke="#000000" stroke-width="1"/><text x="589.0" y="60.0" fill="#000000" font-size="12">Order API</text></g><g data-dediren-group-id="payment-adapter-boundary" data-dediren-group-type="Component" data-dediren-group-source-id="component-payment-adapter"><rect x="581.0" y="388.0" width="245.0" height="264.0" rx="0" fill="#ffffff" stroke="#000000" stroke-width="1"/><text x="589.0" y="404.0" fill="#000000" font-size="12">Payment Adapter</text></g><g data-dediren-edge-id="order-api-realizes-order-api"><marker id="marker-end-order-api-realizes-order-api" data-dediren-edge-marker-end="hollow_triangle" markerWidth="10" markerHeight="10" refX="9" refY="5" orient="auto"><path d="M 1 1 L 9 5 L 1 9 Z" fill="#ffffff" stroke="#000000" stroke-width="1"/></marker><path d="M 709.0 211.3 L 669.0 211.3 Q 661.0 211.3 661.0 203.3 L 661.0 196.0 Q 661.0 188.0 653.0 188.0 L 557.0 188.0 L 516.6 188.0 Q 509.0 188.0 509.0 180.4 L 509.0 180.4 Q 509.0 172.8 501.4 172.8 L 365.0 172.8" fill="none" stroke="#000000" stroke-width="1.25" stroke-linecap="round" stroke-linejoin="round" stroke-dasharray="8 5" marker-end="url(#marker-end-order-api-realizes-order-api)"/><text x="679.0" y="201.3" text-anchor="middle" fill="none" font-size="15.4" font-weight="600" stroke="#ffffff" stroke-width="2">realizes</text><text x="679.0" y="201.3" text-anchor="middle" fill="#000000" font-size="15.4" font-weight="600">realizes</text></g><g data-dediren-edge-id="order-api-uses-payment"><marker id="marker-end-order-api-uses-payment" data-dediren-edge-marker-end="open_arrow" markerWidth="10" markerHeight="10" refX="9" refY="5" orient="auto"><path d="M 1 1 L 9 5 L 1 9" fill="none" stroke="#000000" stroke-width="1.5"/></marker><path d="M 709.0 228.0 L 557.0 228.0 L 421.0 228.0 Q 413.0 228.0 413.0 236.0 L 413.0 533.7 Q 413.0 541.7 405.0 541.7 L 365.0 541.7" fill="none" stroke="#000000" stroke-width="1.25" stroke-linecap="round" stroke-linejoin="round" stroke-dasharray="8 5" marker-end="url(#marker-end-order-api-uses-payment)"/><text x="633.0" y="246.0" text-anchor="middle" fill="none" font-size="15.4" font-weight="600" stroke="#ffffff" stroke-width="2">uses</text><text x="633.0" y="246.0" text-anchor="middle" fill="#000000" font-size="15.4" font-weight="600">uses</text></g><g data-dediren-edge-id="payment-adapter-realizes-gateway"><marker id="marker-end-payment-adapter-realizes-gateway" data-dediren-edge-marker-end="hollow_triangle" markerWidth="10" markerHeight="10" refX="9" refY="5" orient="auto"><path d="M 1 1 L 9 5 L 1 9 Z" fill="#ffffff" stroke="#000000" stroke-width="1"/></marker><path d="M 613.0 572.0 L 557.0 572.0 L 365.0 572.0" fill="none" stroke="#000000" stroke-width="1.25" stroke-linecap="round" stroke-linejoin="round" stroke-dasharray="8 5" marker-end="url(#marker-end-payment-adapter-realizes-gateway)"/><text x="585.0" y="674.0" text-anchor="middle" fill="none" font-size="15.4" font-weight="600" stroke="#ffffff" stroke-width="2">realizes</text><text x="585.0" y="674.0" text-anchor="middle" fill="#000000" font-size="15.4" font-weight="600">realizes</text></g><g data-dediren-edge-id="order-api-depends-controller"><marker id="marker-end-order-api-depends-controller" data-dediren-edge-marker-end="open_arrow" markerWidth="10" markerHeight="10" refX="9" refY="5" orient="auto"><path d="M 1 1 L 9 5 L 1 9" fill="none" stroke="#000000" stroke-width="1.5"/></marker><g data-dediren-line-jump-masks="order-api-depends-controller"><path d="M 407.0 364.8 Q 413.0 358.8 419.0 364.8" fill="none" stroke="#ffffff" stroke-width="6"/></g><path d="M 709.0 244.8 L 669.0 244.8 Q 661.0 244.8 661.0 252.8 L 661.0 260.0 Q 661.0 268.0 653.0 268.0 L 557.0 268.0 L 517.0 268.0 Q 509.0 268.0 509.0 276.0 L 509.0 356.8 Q 509.0 364.8 501.0 364.8 L 419.0 364.8 Q 413.0 358.8 407.0 364.8 L 365.0 364.8" fill="none" stroke="#000000" stroke-width="1.25" stroke-linecap="round" stroke-linejoin="round" stroke-dasharray="8 5" marker-end="url(#marker-end-order-api-depends-controller)"/><text x="685.0" y="262.8" text-anchor="middle" fill="none" font-size="15.4" font-weight="600" stroke="#ffffff" stroke-width="2">uses</text><text x="685.0" y="262.8" text-anchor="middle" fill="#000000" font-size="15.4" font-weight="600">uses</text></g><g data-dediren-node-id="component-order-api"><rect data-dediren-node-shape="uml_component" x="710.0" y="180.0" width="180.0" height="96.0" rx="0" fill="#ffffff" stroke="#000000" stroke-width="1.25"/><g data-dediren-node-decorator="uml_component"><rect x="852.0" y="190.0" width="28.0" height="21.1" fill="#ffffff" stroke="#000000" stroke-width="1.25"/><rect x="848.0" y="194.6" width="9.0" height="5.9" fill="#ffffff" stroke="#000000" stroke-width="1.25"/><rect x="848.0" y="202.2" width="9.0" height="5.9" fill="#ffffff" stroke="#000000" stroke-width="1.25"/></g><text x="800.0" y="228.0" text-anchor="middle" dominant-baseline="middle" fill="#000000" font-size="14.0" textLength="62.2" lengthAdjust="spacing">Order API</text></g><g data-dediren-node-id="port-rest-api"><rect data-dediren-node-shape="uml_port" x="783.5" y="76.0" width="32.0" height="32.0" rx="0" fill="#ffffff" stroke="#000000" stroke-width="1.25"/><g data-dediren-node-decorator="uml_port"></g><text x="799.5" y="92.0" text-anchor="middle" dominant-baseline="middle" fill="#000000" font-size="14.0" textLength="37.3" lengthAdjust="spacing">REST</text></g><g data-dediren-node-id="component-payment-adapter"><rect data-dediren-node-shape="uml_component" x="614.0" y="524.0" width="180.0" height="96.0" rx="0" fill="#ffffff" stroke="#000000" stroke-width="1.25"/><g data-dediren-node-decorator="uml_component"><rect x="756.0" y="534.0" width="28.0" height="21.1" fill="#ffffff" stroke="#000000" stroke-width="1.25"/><rect x="752.0" y="538.6" width="9.0" height="5.9" fill="#ffffff" stroke="#000000" stroke-width="1.25"/><rect x="752.0" y="546.2" width="9.0" height="5.9" fill="#ffffff" stroke="#000000" stroke-width="1.25"/></g><text x="704.0" y="572.0" text-anchor="middle" dominant-baseline="middle" fill="#000000" font-size="14.0" textLength="108.1" lengthAdjust="spacing">Payment Adapter</text></g><g data-dediren-node-id="port-payment-client"><rect data-dediren-node-shape="uml_port" x="687.5" y="420.0" width="32.0" height="32.0" rx="0" fill="#ffffff" stroke="#000000" stroke-width="1.25"/><g data-dediren-node-decorator="uml_port"></g><text x="703.5" y="436.0" text-anchor="middle" dominant-baseline="middle" fill="#000000" font-size="14.0" textLength="32.6" lengthAdjust="spacing">client</text></g><g data-dediren-node-id="interface-order-api"><rect data-dediren-node-shape="uml_interface" x="84.0" y="112.8" width="280.0" height="120.0" rx="0" fill="#ffffff" stroke="#000000" stroke-width="1.25"/><g data-dediren-node-decorator="uml_interface"><line x1="84.0" y1="150.8" x2="364.0" y2="150.8" stroke="#000000" stroke-width="1.25"/><line x1="84.0" y1="150.8" x2="364.0" y2="150.8" stroke="#000000" stroke-width="1.25"/><text x="224.0" y="127.8" text-anchor="middle" fill="#000000" font-size="12">«interface»</text><text x="224.0" y="142.8" text-anchor="middle" fill="#000000" font-size="12">OrderApi</text><text x="92.0" y="165.8" fill="#000000" font-size="12">+ placeOrder() : OrderReceipt</text></g></g><g data-dediren-node-id="interface-payment-gateway"><rect data-dediren-node-shape="uml_interface" x="44.0" y="496.8" width="320.0" height="120.0" rx="0" fill="#ffffff" stroke="#000000" stroke-width="1.25"/><g data-dediren-node-decorator="uml_interface"><line x1="44.0" y1="534.8" x2="364.0" y2="534.8" stroke="#000000" stroke-width="1.25"/><line x1="44.0" y1="534.8" x2="364.0" y2="534.8" stroke="#000000" stroke-width="1.25"/><text x="204.0" y="511.8" text-anchor="middle" fill="#000000" font-size="12">«interface»</text><text x="204.0" y="526.8" text-anchor="middle" fill="#000000" font-size="12">PaymentGateway</text><text x="52.0" y="549.8" fill="#000000" font-size="12">+ authorize() : PaymentAuthorization</text></g></g><g data-dediren-node-id="class-order-controller"><rect data-dediren-node-shape="uml_class" x="124.0" y="304.8" width="240.0" height="120.0" rx="0" fill="#ffffff" stroke="#000000" stroke-width="1.25"/><g data-dediren-node-decorator="uml_class"><line x1="124.0" y1="332.8" x2="364.0" y2="332.8" stroke="#000000" stroke-width="1.25"/><line x1="124.0" y1="332.8" x2="364.0" y2="332.8" stroke="#000000" stroke-width="1.25"/><text x="244.0" y="319.8" text-anchor="middle" fill="#000000" font-size="12">OrderController</text><text x="132.0" y="347.8" fill="#000000" font-size="12">+ submit() : OrderReceipt</text></g></g></g></svg>
