<svg xmlns="http://www.w3.org/2000/svg" role="img" width="1100" height="651" viewBox="-20.6 -20.5 1100.1 651.0"><title>use-case-view</title><rect x="-20.6" y="-20.5" width="1100.1" height="651.0" fill="#ffffff"/><g font-family="Inter, Arial, sans-serif" font-size="14"><g data-dediren-group-id="order-service-boundary" data-dediren-group-type="Class" data-dediren-group-source-id="order-service"><rect x="213.0" y="12.0" width="834.0" height="586.0" rx="0" fill="#ffffff" stroke="#000000" stroke-width="1"/><text x="221.0" y="28.0" fill="#000000" font-size="12">Order Service</text></g><g data-dediren-edge-id="customer-place-order"><path d="M 93.0 282.0 L 133.0 282.0 Q 141.0 282.0 141.0 290.0 L 141.0 325.0 Q 141.0 333.0 149.0 333.0 L 550.0 333.0" fill="none" stroke="#000000" stroke-width="1.25" stroke-linecap="round" stroke-linejoin="round"/></g><g data-dediren-edge-id="customer-track-order"><path d="M 93.0 249.0 L 245.0 249.0" fill="none" stroke="#000000" stroke-width="1.25" stroke-linecap="round" stroke-linejoin="round"/></g><g data-dediren-edge-id="support-cancel-order"><path d="M 93.0 530.0 L 245.0 530.0" fill="none" stroke="#000000" stroke-width="1.25" stroke-linecap="round" stroke-linejoin="round"/></g><g data-dediren-edge-id="include-authentication"><marker id="marker-end-include-authentication" data-dediren-edge-marker-end="open_arrow" markerWidth="10" markerHeight="10" refX="9" refY="5" orient="auto"><path d="M 1 1 L 9 5 L 1 9" fill="none" stroke="#000000" stroke-width="1.5"/></marker><path d="M 631.0 370.0 L 631.0 410.0 Q 631.0 418.0 639.0 418.0 L 927.0 418.0 Q 935.0 418.0 935.0 426.0 L 935.0 466.0" fill="none" stroke="#000000" stroke-width="1.25" stroke-linecap="round" stroke-linejoin="round" stroke-dasharray="8 5" marker-end="url(#marker-end-include-authentication)"/><text x="783.0" y="436.0" text-anchor="middle" fill="none" font-size="15.4" font-weight="600" stroke="#ffffff" stroke-width="2">include</text><text x="783.0" y="436.0" text-anchor="middle" fill="#000000" font-size="15.4" font-weight="600">include</text></g><g data-dediren-edge-id="extend-discount"><marker id="marker-end-extend-discount" data-dediren-edge-marker-end="open_arrow" markerWidth="10" markerHeight="10" refX="9" refY="5" orient="auto"><path d="M 1 1 L 9 5 L 1 9" fill="none" stroke="#000000" stroke-width="1.5"/></marker><path d="M 325.5 117.0 L 325.5 157.0 Q 325.5 165.0 333.5 165.0 L 623.0 165.0 Q 631.0 165.0 631.0 173.0 L 631.0 296.0" fill="none" stroke="#000000" stroke-width="1.25" stroke-linecap="round" stroke-linejoin="round" stroke-dasharray="8 5" marker-end="url(#marker-end-extend-discount)"/><text x="478.3" y="183.0" text-anchor="middle" fill="none" font-size="15.4" font-weight="600" stroke="#ffffff" stroke-width="2">extend</text><text x="478.3" y="183.0" text-anchor="middle" fill="#000000" font-size="15.4" font-weight="600">extend</text></g><g data-dediren-node-id="customer"><g data-dediren-node-shape="uml_actor"><circle cx="52.0" cy="224.3" r="8.8" fill="#ffffff" stroke="#000000" stroke-width="1.25"/><path d="M 52.0 233.1 L 52.0 275.1 M 27.2 251.1 L 76.8 251.1 M 52.0 275.1 L 34.4 299.1 M 52.0 275.1 L 69.6 299.1" fill="none" stroke="#000000" stroke-width="1.25" stroke-linecap="round"/></g><g data-dediren-node-decorator="uml_actor"><text x="52.0" y="317.5" text-anchor="middle" fill="#000000" font-size="12">Customer</text></g></g><g data-dediren-node-id="support-agent"><g data-dediren-node-shape="uml_actor"><circle cx="52.0" cy="488.8" r="8.8" fill="#ffffff" stroke="#000000" stroke-width="1.25"/><path d="M 52.0 497.6 L 52.0 539.6 M 27.2 515.6 L 76.8 515.6 M 52.0 539.6 L 34.4 563.6 M 52.0 539.6 L 69.6 563.6" fill="none" stroke="#000000" stroke-width="1.25" stroke-linecap="round"/></g><g data-dediren-node-decorator="uml_actor"><text x="52.0" y="582.0" text-anchor="middle" fill="#000000" font-size="12">Support Agent</text></g></g><g data-dediren-node-id="place-order"><ellipse data-dediren-node-shape="uml_use_case" cx="631.0" cy="333.0" rx="80.0" ry="36.0" fill="#ffffff" stroke="#000000" stroke-width="1.25"/><g data-dediren-node-decorator="uml_use_case"></g><text x="631.0" y="333.0" text-anchor="middle" dominant-baseline="middle" fill="#000000" font-size="14.0" textLength="74.6" lengthAdjust="spacing">Place Order</text></g><g data-dediren-node-id="track-order"><ellipse data-dediren-node-shape="uml_use_case" cx="326.0" cy="249.0" rx="80.0" ry="36.0" fill="#ffffff" stroke="#000000" stroke-width="1.25"/><g data-dediren-node-decorator="uml_use_case"></g><text x="326.0" y="249.0" text-anchor="middle" dominant-baseline="middle" fill="#000000" font-size="14.0" textLength="74.6" lengthAdjust="spacing">Track Order</text></g><g data-dediren-node-id="authenticate-customer"><ellipse data-dediren-node-shape="uml_use_case" cx="935.0" cy="503.0" rx="80.0" ry="36.0" fill="#ffffff" stroke="#000000" stroke-width="1.25"/><g data-dediren-node-decorator="uml_use_case"></g><text x="935.0" y="495.0" text-anchor="middle" dominant-baseline="middle" fill="#000000" font-size="14.0"><tspan x="935.0" dy="0" textLength="77.8" lengthAdjust="spacing">Authenticate</tspan><tspan x="935.0" dy="16.0" textLength="60.6" lengthAdjust="spacing">Customer</tspan></text></g><g data-dediren-node-id="apply-discount"><ellipse data-dediren-node-shape="uml_use_case" cx="325.5" cy="80.0" rx="80.0" ry="36.0" fill="#ffffff" stroke="#000000" stroke-width="1.25"/><g data-dediren-node-decorator="uml_use_case"></g><text x="325.5" y="80.0" text-anchor="middle" dominant-baseline="middle" fill="#000000" font-size="14.0" textLength="93.3" lengthAdjust="spacing">Apply Discount</text></g><g data-dediren-node-id="cancel-order"><ellipse data-dediren-node-shape="uml_use_case" cx="326.0" cy="530.0" rx="80.0" ry="36.0" fill="#ffffff" stroke="#000000" stroke-width="1.25"/><g data-dediren-node-decorator="uml_use_case"></g><text x="326.0" y="530.0" text-anchor="middle" dominant-baseline="middle" fill="#000000" font-size="14.0" textLength="83.2" lengthAdjust="spacing">Cancel Order</text></g><g data-dediren-node-id="payment-extension"><rect data-dediren-node-shape="uml_extension_point" x="255.5" y="382.0" width="140.0" height="40.0" rx="2" fill="#ffffff" stroke="#000000" stroke-width="1.25"/><g data-dediren-node-decorator="uml_extension_point"></g><text x="325.5" y="394.0" text-anchor="middle" dominant-baseline="middle" fill="#000000" font-size="13.9"><tspan x="325.5" dy="0" textLength="53.3" lengthAdjust="spacing">payment</tspan><tspan x="325.5" dy="16.0" textLength="64.9" lengthAdjust="spacing">authorized</tspan></text></g></g></svg>
