<svg xmlns="http://www.w3.org/2000/svg" role="img" width="1241" height="754" viewBox="-20.6 -20.5 1241.1 754.0"><title>use-case-view</title><rect x="-20.6" y="-20.5" width="1241.1" height="754.0" fill="#ffffff"/><g font-family="Inter, Arial, sans-serif" font-size="14"><g data-dediren-group-id="order-service-boundary" data-dediren-group-type="Class" data-dediren-group-source-id="order-service"><rect x="213.0" y="12.0" width="975.0" height="689.0" rx="0" fill="#ffffff" stroke="#000000" stroke-width="1"/><text x="221.0" y="28.0" fill="#000000" font-size="12">Order Service</text></g><g data-dediren-edge-id="customer-place-order"><path d="M 93.0 311.5 L 133.0 311.5 Q 141.0 311.5 141.0 319.5 L 141.0 649.0 Q 141.0 657.0 149.0 657.0 L 574.2 657.0 Q 582.2 657.0 582.2 649.0 L 582.2 494.5 Q 582.2 486.5 590.2 486.5 L 630.2 486.5" fill="none" stroke="#000000" stroke-width="1.25" stroke-linecap="round" stroke-linejoin="round"/></g><g data-dediren-edge-id="customer-track-order"><path d="M 93.0 270.5 L 245.0 270.5" fill="none" stroke="#000000" stroke-width="1.25" stroke-linecap="round" stroke-linejoin="round"/></g><g data-dediren-edge-id="support-cancel-order"><path d="M 93.0 87.0 L 136.8 87.0 Q 141.0 87.0 141.0 91.3 L 141.0 91.3 Q 141.0 95.5 145.3 95.5 L 245.0 95.5" fill="none" stroke="#000000" stroke-width="1.25" stroke-linecap="round" stroke-linejoin="round"/></g><g data-dediren-edge-id="include-authentication"><marker id="marker-end-include-authentication" data-dediren-edge-marker-end="open_arrow" markerWidth="10" markerHeight="10" refX="9" refY="5" orient="auto"><path d="M 1 1 L 9 5 L 1 9" fill="none" stroke="#000000" stroke-width="1.5"/></marker><path d="M 792.2 466.0 L 995.0 466.0" fill="none" stroke="#000000" stroke-width="1.25" stroke-linecap="round" stroke-linejoin="round" stroke-dasharray="8 5" marker-end="url(#marker-end-include-authentication)"/><text x="893.6" y="487.4" text-anchor="middle" fill="none" font-size="15.4" font-weight="600" stroke="#ffffff" stroke-width="2">include</text><text x="893.6" y="487.4" text-anchor="middle" fill="#000000" font-size="15.4" font-weight="600">include</text></g><g data-dediren-edge-id="extend-discount"><marker id="marker-end-extend-discount" data-dediren-edge-marker-end="open_arrow" markerWidth="10" markerHeight="10" refX="9" refY="5" orient="auto"><path d="M 1 1 L 9 5 L 1 9" fill="none" stroke="#000000" stroke-width="1.5"/></marker><path d="M 406.0 445.5 L 630.2 445.5" fill="none" stroke="#000000" stroke-width="1.25" stroke-linecap="round" stroke-linejoin="round" stroke-dasharray="8 5" marker-end="url(#marker-end-extend-discount)"/><text x="518.1" y="466.9" text-anchor="middle" fill="none" font-size="15.4" font-weight="600" stroke="#ffffff" stroke-width="2">extend</text><text x="518.1" y="466.9" text-anchor="middle" fill="#000000" font-size="15.4" font-weight="600">extend</text></g><g data-dediren-node-id="customer"><g data-dediren-node-shape="uml_actor"><circle cx="52.0" cy="237.8" r="8.8" fill="#ffffff" stroke="#000000" stroke-width="1.25"/><path d="M 52.0 246.6 L 52.0 302.5 M 27.2 273.7 L 76.8 273.7 M 52.0 302.5 L 34.4 331.3 M 52.0 302.5 L 69.6 331.3" fill="none" stroke="#000000" stroke-width="1.25" stroke-linecap="round"/></g><g data-dediren-node-decorator="uml_actor"><text x="52.0" y="355.0" text-anchor="middle" fill="#000000" font-size="12">Customer</text></g></g><g data-dediren-node-id="support-agent"><g data-dediren-node-shape="uml_actor"><circle cx="52.0" cy="45.8" r="8.8" fill="#ffffff" stroke="#000000" stroke-width="1.25"/><path d="M 52.0 54.6 L 52.0 96.6 M 27.2 72.6 L 76.8 72.6 M 52.0 96.6 L 34.4 120.6 M 52.0 96.6 L 69.6 120.6" fill="none" stroke="#000000" stroke-width="1.25" stroke-linecap="round"/></g><g data-dediren-node-decorator="uml_actor"><text x="52.0" y="139.0" text-anchor="middle" fill="#000000" font-size="12">Support Agent</text></g></g><g data-dediren-node-id="place-order"><ellipse data-dediren-node-shape="uml_use_case" cx="711.2" cy="466.0" rx="80.0" ry="72.0" fill="#ffffff" stroke="#000000" stroke-width="1.25"/><g data-dediren-node-decorator="uml_use_case"></g><text x="711.2" y="466.0" text-anchor="middle" dominant-baseline="middle" fill="#000000" font-size="14.0" textLength="74.6" lengthAdjust="spacing">Place Order</text></g><g data-dediren-node-id="track-order"><ellipse data-dediren-node-shape="uml_use_case" cx="326.0" cy="270.5" rx="80.0" ry="51.5" fill="#ffffff" stroke="#000000" stroke-width="1.25"/><g data-dediren-node-decorator="uml_use_case"></g><text x="326.0" y="270.5" text-anchor="middle" dominant-baseline="middle" fill="#000000" font-size="14.0" textLength="74.6" lengthAdjust="spacing">Track Order</text></g><g data-dediren-node-id="authenticate-customer"><ellipse data-dediren-node-shape="uml_use_case" cx="1076.0" cy="466.0" rx="80.0" ry="51.5" fill="#ffffff" stroke="#000000" stroke-width="1.25"/><g data-dediren-node-decorator="uml_use_case"></g><text x="1076.0" y="458.0" text-anchor="middle" dominant-baseline="middle" fill="#000000" font-size="14.0"><tspan x="1076.0" dy="0" textLength="77.8" lengthAdjust="spacing">Authenticate</tspan><tspan x="1076.0" dy="16.0" textLength="60.6" lengthAdjust="spacing">Customer</tspan></text></g><g data-dediren-node-id="apply-discount"><ellipse data-dediren-node-shape="uml_use_case" cx="325.0" cy="445.5" rx="80.0" ry="51.5" fill="#ffffff" stroke="#000000" stroke-width="1.25"/><g data-dediren-node-decorator="uml_use_case"></g><text x="325.0" y="445.5" text-anchor="middle" dominant-baseline="middle" fill="#000000" font-size="14.0" textLength="93.3" lengthAdjust="spacing">Apply Discount</text></g><g data-dediren-node-id="cancel-order"><ellipse data-dediren-node-shape="uml_use_case" cx="326.0" cy="95.5" rx="80.0" ry="51.5" fill="#ffffff" stroke="#000000" stroke-width="1.25"/><g data-dediren-node-decorator="uml_use_case"></g><text x="326.0" y="95.5" text-anchor="middle" dominant-baseline="middle" fill="#000000" font-size="14.0" textLength="83.2" lengthAdjust="spacing">Cancel Order</text></g><g data-dediren-node-id="payment-extension"><rect data-dediren-node-shape="uml_extension_point" x="255.5" y="569.0" width="140.0" height="40.0" rx="2" fill="#ffffff" stroke="#000000" stroke-width="1.25"/><g data-dediren-node-decorator="uml_extension_point"></g><text x="325.5" y="581.0" text-anchor="middle" dominant-baseline="middle" fill="#000000" font-size="13.9"><tspan x="325.5" dy="0" textLength="53.3" lengthAdjust="spacing">payment</tspan><tspan x="325.5" dy="16.0" textLength="64.9" lengthAdjust="spacing">authorized</tspan></text></g></g></svg>
