<svg xmlns="http://www.w3.org/2000/svg" role="img" width="2919" height="1519" viewBox="-20.0 -20.0 2919.0 1519.2"><title>complex-class-view</title><rect x="-20.0" y="-20.0" width="2919.0" height="1519.2" fill="#ffffff"/><g font-family="Inter, Arial, sans-serif" font-size="14"><g data-dediren-group-id="commerce-package-boundary" data-dediren-group-type="Package" data-dediren-group-source-id="pkg-commerce"><rect x="12.0" y="12.0" width="1994.0" height="971.2" rx="0" fill="#ffffff" stroke="#000000" stroke-width="1"/><text x="20.0" y="28.0" fill="#000000" font-size="12">Commerce</text></g><g data-dediren-group-id="fulfillment-package-boundary" data-dediren-group-type="Package" data-dediren-group-source-id="pkg-fulfillment"><rect x="2198.0" y="838.2" width="669.0" height="629.0" rx="0" fill="#ffffff" stroke="#000000" stroke-width="1"/><text x="2206.0" y="854.2" fill="#000000" font-size="12">Fulfillment</text></g><g data-dediren-edge-id="customer-places-order"><path d="M 345.0 204.4 L 489.0 204.4" fill="none" stroke="#000000" stroke-width="1.25" stroke-linecap="round" stroke-linejoin="round"/><text x="417.0" y="222.4" text-anchor="middle" fill="none" font-size="15.4" font-weight="600" stroke="#ffffff" stroke-width="2">places</text><text x="417.0" y="222.4" text-anchor="middle" fill="#000000" font-size="15.4" font-weight="600">places</text></g><g data-dediren-edge-id="order-has-lines"><marker id="marker-start-order-has-lines" data-dediren-edge-marker-start="filled_diamond" markerWidth="10" markerHeight="10" refX="1" refY="5" orient="auto"><path d="M 1 5 L 5 1 L 9 5 L 5 9 Z" fill="#000000" stroke="#000000" stroke-width="1"/></marker><path d="M 791.0 104.0 L 1129.0 104.0" fill="none" stroke="#000000" stroke-width="1.25" stroke-linecap="round" stroke-linejoin="round" marker-start="url(#marker-start-order-has-lines)"/><text x="960.0" y="122.0" text-anchor="middle" fill="none" font-size="15.4" font-weight="600" stroke="#ffffff" stroke-width="2">lines</text><text x="960.0" y="122.0" text-anchor="middle" fill="#000000" font-size="15.4" font-weight="600">lines</text></g><g data-dediren-edge-id="order-has-payment"><marker id="marker-start-order-has-payment" data-dediren-edge-marker-start="hollow_diamond" markerWidth="10" markerHeight="10" refX="1" refY="5" orient="auto"><path d="M 1 5 L 5 1 L 9 5 L 5 9 Z" fill="#ffffff" stroke="#000000" stroke-width="1"/></marker><path d="M 791.0 144.1 L 991.0 144.1 Q 999.0 144.1 999.0 152.1 L 999.0 288.0 Q 999.0 296.0 1007.0 296.0 L 1119.0 296.0" fill="none" stroke="#000000" stroke-width="1.25" stroke-linecap="round" stroke-linejoin="round" marker-start="url(#marker-start-order-has-payment)"/><text x="895.0" y="162.1" text-anchor="middle" fill="none" font-size="15.4" font-weight="600" stroke="#ffffff" stroke-width="2">payment</text><text x="895.0" y="162.1" text-anchor="middle" fill="#000000" font-size="15.4" font-weight="600">payment</text></g><g data-dediren-edge-id="order-status-dependency"><marker id="marker-end-order-status-dependency" data-dediren-edge-marker-end="open_arrow" markerWidth="10" markerHeight="10" refX="9" refY="5" orient="auto"><path d="M 1 1 L 9 5 L 1 9" fill="none" stroke="#000000" stroke-width="1.5"/></marker><path d="M 791.0 184.3 L 951.0 184.3 Q 959.0 184.3 959.0 192.3 L 959.0 480.0 Q 959.0 488.0 967.0 488.0 L 1119.0 488.0" fill="none" stroke="#000000" stroke-width="1.25" stroke-linecap="round" stroke-linejoin="round" stroke-dasharray="8 5" marker-end="url(#marker-end-order-status-dependency)"/><text x="875.0" y="202.3" text-anchor="middle" fill="none" font-size="15.4" font-weight="600" stroke="#ffffff" stroke-width="2">status</text><text x="875.0" y="202.3" text-anchor="middle" fill="#000000" font-size="15.4" font-weight="600">status</text></g><g data-dediren-edge-id="order-total-money"><path d="M 791.0 224.4 L 911.0 224.4 Q 919.0 224.4 919.0 232.4 L 919.0 612.0 Q 919.0 620.0 927.0 620.0 L 1047.0 620.0 L 1457.0 620.0 L 1593.0 620.0" fill="none" stroke="#000000" stroke-width="1.25" stroke-linecap="round" stroke-linejoin="round"/><text x="855.0" y="242.4" text-anchor="middle" fill="none" font-size="15.4" font-weight="600" stroke="#ffffff" stroke-width="2">total</text><text x="855.0" y="242.4" text-anchor="middle" fill="#000000" font-size="15.4" font-weight="600">total</text></g><g data-dediren-edge-id="order-line-unit-price-money"><g data-dediren-line-jump-masks="order-line-unit-price-money"><path d="M 1545.0 614.0 Q 1551.0 620.0 1545.0 626.0" fill="none" stroke="#ffffff" stroke-width="6"/></g><path d="M 1351.0 104.0 L 1537.0 104.0 Q 1545.0 104.0 1545.0 112.0 L 1545.0 614.0 Q 1551.0 620.0 1545.0 626.0 L 1545.0 642.3 Q 1545.0 650.3 1553.0 650.3 L 1593.0 650.3" fill="none" stroke="#000000" stroke-width="1.25" stroke-linecap="round" stroke-linejoin="round"/><text x="1448.0" y="122.0" text-anchor="middle" fill="none" font-size="15.4" font-weight="600" stroke="#ffffff" stroke-width="2">unit price</text><text x="1448.0" y="122.0" text-anchor="middle" fill="#000000" font-size="15.4" font-weight="600">unit price</text></g><g data-dediren-edge-id="order-id-type"><marker id="marker-end-order-id-type" data-dediren-edge-marker-end="open_arrow" markerWidth="10" markerHeight="10" refX="9" refY="5" orient="auto"><path d="M 1 1 L 9 5 L 1 9" fill="none" stroke="#000000" stroke-width="1.5"/></marker><path d="M 791.0 264.6 L 871.0 264.6 Q 879.0 264.6 879.0 272.6 L 879.0 748.0 Q 879.0 756.0 887.0 756.0 L 1119.0 756.0" fill="none" stroke="#000000" stroke-width="1.25" stroke-linecap="round" stroke-linejoin="round" stroke-dasharray="8 5" marker-end="url(#marker-end-order-id-type)"/><text x="835.0" y="282.6" text-anchor="middle" fill="none" font-size="15.4" font-weight="600" stroke="#ffffff" stroke-width="2">id type</text><text x="835.0" y="282.6" text-anchor="middle" fill="#000000" font-size="15.4" font-weight="600">id type</text></g><g data-dediren-edge-id="card-payment-realizes-gateway"><marker id="marker-end-card-payment-realizes-gateway" data-dediren-edge-marker-end="hollow_triangle" markerWidth="10" markerHeight="10" refX="9" refY="5" orient="auto"><path d="M 1 1 L 9 5 L 1 9 Z" fill="#ffffff" stroke="#000000" stroke-width="1"/></marker><g data-dediren-line-jump-masks="card-payment-realizes-gateway"><path d="M 1539.0 280.8 Q 1545.0 274.8 1551.0 280.8" fill="none" stroke="#ffffff" stroke-width="6"/></g><path d="M 1361.0 280.8 L 1539.0 280.8 Q 1545.0 274.8 1551.0 280.8 L 1593.0 280.8" fill="none" stroke="#000000" stroke-width="1.25" stroke-linecap="round" stroke-linejoin="round" stroke-dasharray="8 5" marker-end="url(#marker-end-card-payment-realizes-gateway)"/><text x="1477.0" y="298.8" text-anchor="middle" fill="none" font-size="15.4" font-weight="600" stroke="#ffffff" stroke-width="2">implements</text><text x="1477.0" y="298.8" text-anchor="middle" fill="#000000" font-size="15.4" font-weight="600">implements</text></g><g data-dediren-edge-id="card-payment-state"><marker id="marker-end-card-payment-state" data-dediren-edge-marker-end="open_arrow" markerWidth="10" markerHeight="10" refX="9" refY="5" orient="auto"><path d="M 1 1 L 9 5 L 1 9" fill="none" stroke="#000000" stroke-width="1.5"/></marker><g data-dediren-line-jump-masks="card-payment-state"><path d="M 1505.0 614.0 Q 1511.0 620.0 1505.0 626.0" fill="none" stroke="#ffffff" stroke-width="6"/></g><path d="M 1361.0 311.2 L 1401.0 311.2 Q 1409.0 311.2 1409.0 319.2 L 1409.0 324.8 Q 1409.0 332.8 1417.0 332.8 L 1497.0 332.8 Q 1505.0 332.8 1505.0 340.8 L 1505.0 614.0 Q 1511.0 620.0 1505.0 626.0 L 1505.0 819.2 Q 1505.0 827.2 1513.0 827.2 L 1593.0 827.2" fill="none" stroke="#000000" stroke-width="1.25" stroke-linecap="round" stroke-linejoin="round" stroke-dasharray="8 5" marker-end="url(#marker-end-card-payment-state)"/><text x="1385.0" y="329.2" text-anchor="middle" fill="none" font-size="15.4" font-weight="600" stroke="#ffffff" stroke-width="2">state</text><text x="1385.0" y="329.2" text-anchor="middle" fill="#000000" font-size="15.4" font-weight="600">state</text></g><g data-dediren-edge-id="shipment-for-order"><path d="M 2230.0 935.2 L 2174.0 935.2 L 2030.0 935.2 L 1783.5 935.2 L 1457.0 935.2 L 1240.0 935.2 L 1047.0 935.2 L 847.0 935.2 Q 839.0 935.2 839.0 927.2 L 839.0 312.7 Q 839.0 304.7 831.0 304.7 L 791.0 304.7" fill="none" stroke="#000000" stroke-width="1.25" stroke-linecap="round" stroke-linejoin="round"/><text x="833.0" y="619.9" text-anchor="end" fill="none" font-size="15.4" font-weight="600" stroke="#ffffff" stroke-width="2">ships</text><text x="833.0" y="619.9" text-anchor="end" fill="#000000" font-size="15.4" font-weight="600">ships</text></g><g data-dediren-edge-id="shipment-destination"><path d="M 2385.8 1001.2 L 2385.8 1041.2 Q 2385.8 1049.2 2393.8 1049.2 L 2717.0 1049.2 Q 2725.0 1049.2 2725.0 1057.2 L 2725.0 1097.2" fill="none" stroke="#000000" stroke-width="1.25" stroke-linecap="round" stroke-linejoin="round"/><text x="2555.4" y="1067.2" text-anchor="middle" fill="none" font-size="15.4" font-weight="600" stroke="#ffffff" stroke-width="2">ships to</text><text x="2555.4" y="1067.2" text-anchor="middle" fill="#000000" font-size="15.4" font-weight="600">ships to</text></g><g data-dediren-edge-id="shipment-state"><marker id="marker-end-shipment-state" data-dediren-edge-marker-end="open_arrow" markerWidth="10" markerHeight="10" refX="9" refY="5" orient="auto"><path d="M 1 1 L 9 5 L 1 9" fill="none" stroke="#000000" stroke-width="1.5"/></marker><path d="M 2316.2 1001.2 L 2316.2 1258.2 Q 2316.2 1266.2 2324.2 1266.2 L 2717.0 1266.2 Q 2725.0 1266.2 2725.0 1274.2 L 2725.0 1314.2" fill="none" stroke="#000000" stroke-width="1.25" stroke-linecap="round" stroke-linejoin="round" stroke-dasharray="8 5" marker-end="url(#marker-end-shipment-state)"/><text x="2520.6" y="1284.2" text-anchor="middle" fill="none" font-size="15.4" font-weight="600" stroke="#ffffff" stroke-width="2">state</text><text x="2520.6" y="1284.2" text-anchor="middle" fill="#000000" font-size="15.4" font-weight="600">state</text></g><g data-dediren-node-id="class-customer"><rect data-dediren-node-shape="uml_class" x="44.0" y="144.4" width="300.0" height="120.0" rx="0" fill="#ffffff" stroke="#000000" stroke-width="1.25"/><g data-dediren-node-decorator="uml_class"><line x1="44.0" y1="172.4" x2="344.0" y2="172.4" stroke="#000000" stroke-width="1.25"/><line x1="44.0" y1="222.4" x2="344.0" y2="222.4" stroke="#000000" stroke-width="1.25"/><text x="194.0" y="159.4" text-anchor="middle" fill="#000000" font-size="12">Customer</text><text x="52.0" y="187.4" fill="#000000" font-size="12">+ id : CustomerId</text><text x="52.0" y="201.4" fill="#000000" font-size="12">+ email : String</text><text x="52.0" y="215.4" fill="#000000" font-size="12">+ orders : Order</text><text x="52.0" y="237.4" fill="#000000" font-size="12">+ placeOrder(cart : Cart) : Order</text></g></g><g data-dediren-node-id="class-order"><rect data-dediren-node-shape="uml_class" x="490.0" y="49.4" width="300.0" height="310.0" rx="0" fill="#ffffff" stroke="#000000" stroke-width="1.25"/><g data-dediren-node-decorator="uml_class"><line x1="490.0" y1="77.4" x2="790.0" y2="77.4" stroke="#000000" stroke-width="1.25"/><line x1="490.0" y1="183.4" x2="790.0" y2="183.4" stroke="#000000" stroke-width="1.25"/><text x="640.0" y="64.4" text-anchor="middle" fill="#000000" font-size="12">Order</text><text x="498.0" y="92.4" fill="#000000" font-size="12">+ id : OrderId</text><text x="498.0" y="106.4" fill="#000000" font-size="12">- status : OrderStatus</text><text x="498.0" y="120.4" fill="#000000" font-size="12">+ total : Money</text><text x="498.0" y="134.4" fill="#000000" font-size="12">+ customer : Customer</text><text x="498.0" y="148.4" fill="#000000" font-size="12">+ lines : OrderLine</text><text x="498.0" y="162.4" fill="#000000" font-size="12">+ payment : CardPayment</text><text x="498.0" y="176.4" fill="#000000" font-size="12">+ shipments : Shipment</text><text x="498.0" y="198.4" fill="#000000" font-size="12">+ submit() : void</text><text x="498.0" y="212.4" fill="#000000" font-size="12">+ cancel(reason : String) : void</text></g></g><g data-dediren-node-id="class-order-line"><rect data-dediren-node-shape="uml_class" x="1130.0" y="44.0" width="220.0" height="120.0" rx="0" fill="#ffffff" stroke="#000000" stroke-width="1.25"/><g data-dediren-node-decorator="uml_class"><line x1="1130.0" y1="72.0" x2="1350.0" y2="72.0" stroke="#000000" stroke-width="1.25"/><text x="1240.0" y="59.0" text-anchor="middle" fill="#000000" font-size="12">OrderLine</text><text x="1138.0" y="87.0" fill="#000000" font-size="12">+ sku : String</text><text x="1138.0" y="101.0" fill="#000000" font-size="12">+ quantity : Integer</text><text x="1138.0" y="115.0" fill="#000000" font-size="12">+ unitPrice : Money</text><text x="1138.0" y="129.0" fill="#000000" font-size="12">+ order : Order</text></g></g><g data-dediren-node-id="enum-order-status"><rect data-dediren-node-shape="uml_enumeration" x="1120.0" y="428.0" width="220.0" height="120.0" rx="0" fill="#ffffff" stroke="#000000" stroke-width="1.25"/><g data-dediren-node-decorator="uml_enumeration"><line x1="1120.0" y1="466.0" x2="1340.0" y2="466.0" stroke="#000000" stroke-width="1.25"/><text x="1230.0" y="443.0" text-anchor="middle" fill="#000000" font-size="12">«enumeration»</text><text x="1230.0" y="458.0" text-anchor="middle" fill="#000000" font-size="12">OrderStatus</text><text x="1128.0" y="481.0" fill="#000000" font-size="12">Draft</text><text x="1128.0" y="495.0" fill="#000000" font-size="12">Submitted</text><text x="1128.0" y="509.0" fill="#000000" font-size="12">Paid</text><text x="1128.0" y="523.0" fill="#000000" font-size="12">Shipped</text><text x="1128.0" y="537.0" fill="#000000" font-size="12">Cancelled</text></g></g><g data-dediren-node-id="datatype-order-id"><rect data-dediren-node-shape="uml_data_type" x="1120.0" y="696.0" width="220.0" height="120.0" rx="0" fill="#ffffff" stroke="#000000" stroke-width="1.25"/><g data-dediren-node-decorator="uml_data_type"><line x1="1120.0" y1="734.0" x2="1340.0" y2="734.0" stroke="#000000" stroke-width="1.25"/><text x="1230.0" y="711.0" text-anchor="middle" fill="#000000" font-size="12">«dataType»</text><text x="1230.0" y="726.0" text-anchor="middle" fill="#000000" font-size="12">OrderId</text><text x="1128.0" y="749.0" fill="#000000" font-size="12">+ value : String</text></g></g><g data-dediren-node-id="datatype-money"><rect data-dediren-node-shape="uml_data_type" x="1594.0" y="575.2" width="220.0" height="120.0" rx="0" fill="#ffffff" stroke="#000000" stroke-width="1.25"/><g data-dediren-node-decorator="uml_data_type"><line x1="1594.0" y1="613.2" x2="1814.0" y2="613.2" stroke="#000000" stroke-width="1.25"/><text x="1704.0" y="590.2" text-anchor="middle" fill="#000000" font-size="12">«dataType»</text><text x="1704.0" y="605.2" text-anchor="middle" fill="#000000" font-size="12">Money</text><text x="1602.0" y="628.2" fill="#000000" font-size="12">+ amount : Decimal</text><text x="1602.0" y="642.2" fill="#000000" font-size="12">+ currency : String</text></g></g><g data-dediren-node-id="interface-payment-gateway"><rect data-dediren-node-shape="uml_interface" x="1594.0" y="220.8" width="380.0" height="120.0" rx="0" fill="#ffffff" stroke="#000000" stroke-width="1.25"/><g data-dediren-node-decorator="uml_interface"><line x1="1594.0" y1="258.8" x2="1974.0" y2="258.8" stroke="#000000" stroke-width="1.25"/><line x1="1594.0" y1="258.8" x2="1974.0" y2="258.8" stroke="#000000" stroke-width="1.25"/><text x="1784.0" y="235.8" text-anchor="middle" fill="#000000" font-size="12">«interface»</text><text x="1784.0" y="250.8" text-anchor="middle" fill="#000000" font-size="12">PaymentGateway</text><text x="1602.0" y="273.8" fill="#000000" font-size="12">+ authorize(amount : Money) : PaymentState</text></g></g><g data-dediren-node-id="class-card-payment"><rect data-dediren-node-shape="uml_class" x="1120.0" y="236.0" width="240.0" height="120.0" rx="0" fill="#ffffff" stroke="#000000" stroke-width="1.25"/><g data-dediren-node-decorator="uml_class"><line x1="1120.0" y1="264.0" x2="1360.0" y2="264.0" stroke="#000000" stroke-width="1.25"/><line x1="1120.0" y1="314.0" x2="1360.0" y2="314.0" stroke="#000000" stroke-width="1.25"/><text x="1240.0" y="251.0" text-anchor="middle" fill="#000000" font-size="12">CardPayment</text><text x="1128.0" y="279.0" fill="#000000" font-size="12">- transactionId : String</text><text x="1128.0" y="293.0" fill="#000000" font-size="12">- state : PaymentState</text><text x="1128.0" y="307.0" fill="#000000" font-size="12">+ order : Order</text><text x="1128.0" y="329.0" fill="#000000" font-size="12">+ capture() : PaymentState</text></g></g><g data-dediren-node-id="enum-payment-state"><rect data-dediren-node-shape="uml_enumeration" x="1594.0" y="767.2" width="220.0" height="120.0" rx="0" fill="#ffffff" stroke="#000000" stroke-width="1.25"/><g data-dediren-node-decorator="uml_enumeration"><line x1="1594.0" y1="805.2" x2="1814.0" y2="805.2" stroke="#000000" stroke-width="1.25"/><text x="1704.0" y="782.2" text-anchor="middle" fill="#000000" font-size="12">«enumeration»</text><text x="1704.0" y="797.2" text-anchor="middle" fill="#000000" font-size="12">PaymentState</text><text x="1602.0" y="820.2" fill="#000000" font-size="12">Authorized</text><text x="1602.0" y="834.2" fill="#000000" font-size="12">Captured</text><text x="1602.0" y="848.2" fill="#000000" font-size="12">Declined</text></g></g><g data-dediren-node-id="class-shipment"><rect data-dediren-node-shape="uml_class" x="2231.0" y="870.2" width="240.0" height="130.0" rx="0" fill="#ffffff" stroke="#000000" stroke-width="1.25"/><g data-dediren-node-decorator="uml_class"><line x1="2231.0" y1="898.2" x2="2471.0" y2="898.2" stroke="#000000" stroke-width="1.25"/><line x1="2231.0" y1="962.2" x2="2471.0" y2="962.2" stroke="#000000" stroke-width="1.25"/><text x="2351.0" y="885.2" text-anchor="middle" fill="#000000" font-size="12">Shipment</text><text x="2239.0" y="913.2" fill="#000000" font-size="12">+ trackingNumber : String</text><text x="2239.0" y="927.2" fill="#000000" font-size="12">+ order : Order</text><text x="2239.0" y="941.2" fill="#000000" font-size="12">+ destination : Address</text><text x="2239.0" y="955.2" fill="#000000" font-size="12">- state : ShipmentState</text><text x="2239.0" y="977.2" fill="#000000" font-size="12">+ dispatch() : void</text></g></g><g data-dediren-node-id="datatype-address"><rect data-dediren-node-shape="uml_data_type" x="2615.0" y="1098.2" width="220.0" height="120.0" rx="0" fill="#ffffff" stroke="#000000" stroke-width="1.25"/><g data-dediren-node-decorator="uml_data_type"><line x1="2615.0" y1="1136.2" x2="2835.0" y2="1136.2" stroke="#000000" stroke-width="1.25"/><text x="2725.0" y="1113.2" text-anchor="middle" fill="#000000" font-size="12">«dataType»</text><text x="2725.0" y="1128.2" text-anchor="middle" fill="#000000" font-size="12">Address</text><text x="2623.0" y="1151.2" fill="#000000" font-size="12">+ line1 : String</text><text x="2623.0" y="1165.2" fill="#000000" font-size="12">+ city : String</text><text x="2623.0" y="1179.2" fill="#000000" font-size="12">+ country : String</text></g></g><g data-dediren-node-id="enum-shipment-state"><rect data-dediren-node-shape="uml_enumeration" x="2615.0" y="1315.2" width="220.0" height="120.0" rx="0" fill="#ffffff" stroke="#000000" stroke-width="1.25"/><g data-dediren-node-decorator="uml_enumeration"><line x1="2615.0" y1="1353.2" x2="2835.0" y2="1353.2" stroke="#000000" stroke-width="1.25"/><text x="2725.0" y="1330.2" text-anchor="middle" fill="#000000" font-size="12">«enumeration»</text><text x="2725.0" y="1345.2" text-anchor="middle" fill="#000000" font-size="12">ShipmentState</text><text x="2623.0" y="1368.2" fill="#000000" font-size="12">Pending</text><text x="2623.0" y="1382.2" fill="#000000" font-size="12">Packed</text><text x="2623.0" y="1396.2" fill="#000000" font-size="12">Dispatched</text></g></g></g></svg>
