<svg xmlns="http://www.w3.org/2000/svg" role="img" width="674" height="376" viewBox="-20.0 -20.0 674.0 376.0"><title>data-view</title><rect x="-20.0" y="-20.0" width="674.0" height="376.0" fill="#ffffff"/><g font-family="Inter, Arial, sans-serif" font-size="14"><g data-dediren-edge-id="order-has-lines"><marker id="marker-start-order-has-lines" data-dediren-edge-marker-start="filled_diamond" markerWidth="10" markerHeight="10" refX="1" refY="5" orient="auto"><path d="M 1 5 L 5 1 L 9 5 L 5 9 Z" fill="#000000" stroke="#000000" stroke-width="1"/></marker><path d="M 233.0 72.0 L 401.0 72.0" fill="none" stroke="#000000" stroke-width="1.25" stroke-linecap="round" stroke-linejoin="round" marker-start="url(#marker-start-order-has-lines)"/><text x="317.0" y="90.0" text-anchor="middle" fill="none" font-size="15.4" font-weight="600" stroke="#ffffff" stroke-width="2">lines</text><text x="317.0" y="90.0" text-anchor="middle" fill="#000000" font-size="15.4" font-weight="600">lines</text></g><g data-dediren-edge-id="order-status-dependency"><marker id="marker-end-order-status-dependency" data-dediren-edge-marker-end="open_arrow" markerWidth="10" markerHeight="10" refX="9" refY="5" orient="auto"><path d="M 1 1 L 9 5 L 1 9" fill="none" stroke="#000000" stroke-width="1.5"/></marker><path d="M 233.0 102.3 L 273.0 102.3 Q 281.0 102.3 281.0 110.3 L 281.0 256.0 Q 281.0 264.0 289.0 264.0 L 401.0 264.0" fill="none" stroke="#000000" stroke-width="1.25" stroke-linecap="round" stroke-linejoin="round" stroke-dasharray="8 5" marker-end="url(#marker-end-order-status-dependency)"/><text x="257.0" y="120.3" text-anchor="middle" fill="none" font-size="15.4" font-weight="600" stroke="#ffffff" stroke-width="2">uses</text><text x="257.0" y="120.3" text-anchor="middle" fill="#000000" font-size="15.4" font-weight="600">uses</text></g><g data-dediren-node-id="class-order"><rect data-dediren-node-shape="uml_class" x="12.0" y="27.2" width="220.0" height="120.0" rx="0" fill="#ffffff" stroke="#000000" stroke-width="1.25"/><g data-dediren-node-decorator="uml_class"><line x1="12.0" y1="55.2" x2="232.0" y2="55.2" stroke="#000000" stroke-width="1.25"/><line x1="12.0" y1="91.2" x2="232.0" y2="91.2" stroke="#000000" stroke-width="1.25"/><text x="122.0" y="42.2" text-anchor="middle" fill="#000000" font-size="12">Order</text><text x="20.0" y="70.2" fill="#000000" font-size="12">+ id : OrderId</text><text x="20.0" y="84.2" fill="#000000" font-size="12">- status : OrderStatus</text><text x="20.0" y="106.2" fill="#000000" font-size="12">+ submit() : void</text></g></g><g data-dediren-node-id="class-order-line"><rect data-dediren-node-shape="uml_class" x="402.0" y="12.0" width="220.0" height="120.0" rx="0" fill="#ffffff" stroke="#000000" stroke-width="1.25"/><g data-dediren-node-decorator="uml_class"><line x1="402.0" y1="40.0" x2="622.0" y2="40.0" stroke="#000000" stroke-width="1.25"/><text x="512.0" y="27.0" text-anchor="middle" fill="#000000" font-size="12">OrderLine</text><text x="410.0" y="55.0" fill="#000000" font-size="12">+ sku : String</text><text x="410.0" y="69.0" fill="#000000" font-size="12">+ quantity : Integer</text></g></g><g data-dediren-node-id="enum-order-status"><rect data-dediren-node-shape="uml_enumeration" x="402.0" y="204.0" width="220.0" height="120.0" rx="0" fill="#ffffff" stroke="#000000" stroke-width="1.25"/><g data-dediren-node-decorator="uml_enumeration"><line x1="402.0" y1="242.0" x2="622.0" y2="242.0" stroke="#000000" stroke-width="1.25"/><text x="512.0" y="219.0" text-anchor="middle" fill="#000000" font-size="12">«enumeration»</text><text x="512.0" y="234.0" text-anchor="middle" fill="#000000" font-size="12">OrderStatus</text><text x="410.0" y="257.0" fill="#000000" font-size="12">Draft</text><text x="410.0" y="271.0" fill="#000000" font-size="12">Submitted</text><text x="410.0" y="285.0" fill="#000000" font-size="12">Cancelled</text></g></g></g></svg>
