<svg xmlns="http://www.w3.org/2000/svg" role="img" width="992" height="590" viewBox="-16 -48 992 590.2" data-arch-a11y="root" data-arch-a11y-viewbox="-16.0 -16.0 992.0 558.2" data-arch-a11y-height="558"><metadata id="dediren-provenance">{"model_schema_version":"model.schema.v1","model_sha256":"ea6497e85b5d963fcff57e294d39f0043a57da593025b9dc20b80e30fe4c8a45","view_id":"distribution","render_policy_sha256":"61c2f11ad56fd8f0c69e8c422d9611585651cd635063b4fa2d457939c9c3251d","dediren_version":"2026.07.27"}</metadata><title>Distribution — one launcher, engines in-process</title><desc>How does dediren ship and run — the single bin/dediren launcher and one shrink-merged lib jar hosting the cli and every engine in one process?</desc>
<rect data-arch-a11y="band-bg" x="-16" y="-48" width="992" height="32" fill="#0C0A06" />
<text data-arch-a11y="visible-title" x="-8" y="-28" font-family="sans-serif" font-size="16" font-weight="bold" fill="#ffffff">Distribution — one launcher, engines in-process</text><rect x="-16.0" y="-16.0" width="992.0" height="558.2" fill="#0C0A06" /><g font-family="Inter, Arial, sans-serif" font-size="13"><g data-dediren-group-id="grp-host" data-dediren-group-type="Device" data-dediren-group-source-id="host"><rect x="12.0" y="12.0" width="563.0" height="502.2" rx="0" fill="#100B05" stroke="#4A3F2C" stroke-width="1" /><text x="20.0" y="28.0" fill="#F2A93B" font-size="12">Host · JVM 21+</text></g><g data-dediren-edge-id="dep-launcher"><marker id="marker-end-dep-launcher" data-dediren-edge-marker-end="open_arrow" markerWidth="10" markerHeight="10" refX="9" refY="5" orient="auto"><path d="M 1 1 L 9 5 L 1 9" fill="none" stroke="#7A6B4E" stroke-width="1.5" /></marker><path d="M 119.5 289.2 L 119.5 329.2 Q 119.5 337.2 127.5 337.2 L 420.2 337.2 Q 428.2 337.2 428.2 345.2 L 428.2 385.2" fill="none" stroke="#7A6B4E" stroke-width="1.25" stroke-linecap="round" stroke-linejoin="round" stroke-dasharray="8 5" marker-end="url(#marker-end-dep-launcher)" /><text x="273.8" y="355.2" text-anchor="middle" fill="none" font-size="14.3" font-weight="600" stroke="#0C0A06" stroke-width="2">runs on</text><text x="273.8" y="355.2" text-anchor="middle" fill="#A2957A" font-size="14.3" font-weight="600">runs on</text></g><g data-dediren-edge-id="dep-lib"><marker id="marker-end-dep-lib" data-dediren-edge-marker-end="open_arrow" markerWidth="10" markerHeight="10" refX="9" refY="5" orient="auto"><path d="M 1 1 L 9 5 L 1 9" fill="none" stroke="#7A6B4E" stroke-width="1.5" /></marker><path d="M 119.0 115.0 L 119.0 162.2 Q 119.0 170.2 127.0 170.2 L 469.8 170.2 Q 477.8 170.2 477.8 178.2 L 477.8 385.2" fill="none" stroke="#7A6B4E" stroke-width="1.25" stroke-linecap="round" stroke-linejoin="round" stroke-dasharray="8 5" marker-end="url(#marker-end-dep-lib)" /><text x="298.4" y="188.2" text-anchor="middle" fill="none" font-size="14.3" font-weight="600" stroke="#0C0A06" stroke-width="2">hosted by</text><text x="298.4" y="188.2" text-anchor="middle" fill="#A2957A" font-size="14.3" font-weight="600">hosted by</text></g><g data-dediren-edge-id="man-cli"><marker id="marker-end-man-cli" data-dediren-edge-marker-end="open_arrow" markerWidth="10" markerHeight="10" refX="9" refY="5" orient="auto"><path d="M 1 1 L 9 5 L 1 9" fill="none" stroke="#7A6B4E" stroke-width="1.5" /></marker><path d="M 195.0 72.2 L 291.0 72.2 L 453.0 72.2 L 599.0 72.2 L 767.0 72.2" fill="none" stroke="#7A6B4E" stroke-width="1.25" stroke-linecap="round" stroke-linejoin="round" stroke-dasharray="8 5" marker-end="url(#marker-end-man-cli)" /><text x="243.0" y="62.2" text-anchor="middle" fill="none" font-size="14.3" font-weight="600" stroke="#0C0A06" stroke-width="2">manifests</text><text x="243.0" y="62.2" text-anchor="middle" fill="#A2957A" font-size="14.3" font-weight="600">manifests</text></g><g data-dediren-edge-id="man-engines"><marker id="marker-end-man-engines" data-dediren-edge-marker-end="open_arrow" markerWidth="10" markerHeight="10" refX="9" refY="5" orient="auto"><path d="M 1 1 L 9 5 L 1 9" fill="none" stroke="#7A6B4E" stroke-width="1.5" /></marker><path d="M 195.0 85.8 L 235.0 85.8 Q 243.0 85.8 243.0 93.8 L 243.0 113.2 Q 243.0 121.2 251.0 121.2 L 291.0 121.2 L 453.0 121.2 L 599.0 121.2 L 639.0 121.2 Q 647.0 121.2 647.0 129.2 L 647.0 232.2 Q 647.0 240.2 655.0 240.2 L 767.0 240.2" fill="none" stroke="#7A6B4E" stroke-width="1.25" stroke-linecap="round" stroke-linejoin="round" stroke-dasharray="8 5" marker-end="url(#marker-end-man-engines)" /><text x="219.0" y="131.8" text-anchor="middle" fill="none" font-size="14.3" font-weight="600" stroke="#0C0A06" stroke-width="2">manifests</text><text x="219.0" y="131.8" text-anchor="middle" fill="#A2957A" font-size="14.3" font-weight="600">manifests</text></g><g data-dediren-node-id="ee-jvm"><rect data-dediren-node-shape="archimate_rectangle" x="363.0" y="386.2" width="180.0" height="96.0" rx="0" fill="#100B05" stroke="#4A3F2C" stroke-width="1.25" /><text x="453.0" y="434.2" text-anchor="middle" dominant-baseline="middle" fill="#F2A93B" font-size="13.0" textLength="51.6" lengthAdjust="spacing">JVM 21+</text></g><g data-dediren-node-id="art-launcher"><rect data-dediren-node-shape="archimate_rectangle" x="44.5" y="218.2" width="150.0" height="70.0" rx="0" fill="#17110A" stroke="#F2A93B" stroke-width="1.25" /><text x="119.5" y="253.2" text-anchor="middle" dominant-baseline="middle" fill="#ECDFC7" font-size="13.0" textLength="64.3" lengthAdjust="spacing">bin/dediren</text></g><g data-dediren-node-id="art-lib"><rect data-dediren-node-shape="archimate_rectangle" x="44.0" y="44.0" width="150.0" height="70.0" rx="0" fill="#17110A" stroke="#F2A93B" stroke-width="1.25" /><text x="119.0" y="71.5" text-anchor="middle" dominant-baseline="middle" fill="#ECDFC7" font-size="13.0"><tspan x="119.0" dy="0" textLength="114.7" lengthAdjust="spacing">lib/ · shrink-merged</tspan><tspan x="119.0" dy="14.9" textLength="14.4" lengthAdjust="spacing">jar</tspan></text></g><g data-dediren-node-id="comp-cli"><rect data-dediren-node-shape="archimate_rectangle" x="768.0" y="24.2" width="180.0" height="96.0" rx="0" fill="#17110A" stroke="#54D98A" stroke-width="1.25" /><text x="858.0" y="72.2" text-anchor="middle" dominant-baseline="middle" fill="#ECDFC7" font-size="13.0" textLength="119.9" lengthAdjust="spacing">cli (composition root)</text></g><g data-dediren-node-id="comp-engines"><rect data-dediren-node-shape="archimate_rectangle" x="768.0" y="192.2" width="180.0" height="96.0" rx="0" fill="#17110A" stroke="#54D98A" stroke-width="1.25" /><text x="858.0" y="240.2" text-anchor="middle" dominant-baseline="middle" fill="#ECDFC7" font-size="13.0" textLength="117.7" lengthAdjust="spacing">engines (in-process)</text></g></g></svg>
