<svg xmlns="http://www.w3.org/2000/svg" role="img" width="993" height="558" viewBox="-16.5 -16.5 993.1 557.8"><metadata id="dediren-provenance">{"model_schema_version":"model.schema.v1","model_sha256":"f402b87c71af51c9da975fb49aefc03bd120f729c5cca8d47fae316dc435690e","view_id":"distribution","render_policy_sha256":"61c2f11ad56fd8f0c69e8c422d9611585651cd635063b4fa2d457939c9c3251d","dediren_version":"2026.08.6"}</metadata><title>Distribution — one launcher, engines in-process</title><desc>How does dediren ship and run — the single bin/dediren launcher and one shrink-merged lib jar hosting the cli and every engine in one process?</desc><rect x="-16.5" y="-16.5" width="993.1" height="557.8" fill="#0C0A06"/><g font-family="Inter, Arial, sans-serif" font-size="13"><g data-dediren-group-id="grp-host" data-dediren-group-type="Device" data-dediren-group-source-id="host"><rect x="12.0" y="12.0" width="563.0" height="500.8" rx="0" fill="#100B05" stroke="#4A3F2C" stroke-width="1"/><text x="20.0" y="28.0" fill="#F2A93B" font-size="12">Host · JVM 21+</text></g><g data-dediren-edge-id="dep-launcher"><marker id="marker-end-dep-launcher" data-dediren-edge-marker-end="open_arrow" markerWidth="10" markerHeight="10" refX="9" refY="5" orient="auto"><path d="M 1 1 L 9 5 L 1 9" fill="none" stroke="#7A6B4E" stroke-width="1.5"/></marker><path d="M 119.5 287.8 L 119.5 327.8 Q 119.5 335.8 127.5 335.8 L 418.8 335.8 Q 426.8 335.8 426.8 343.8 L 426.8 383.8" fill="none" stroke="#7A6B4E" stroke-width="1.25" stroke-linecap="round" stroke-linejoin="round" stroke-dasharray="8 5" marker-end="url(#marker-end-dep-launcher)"/><text x="273.2" y="353.8" text-anchor="middle" fill="none" font-size="14.3" font-weight="600" stroke="#0C0A06" stroke-width="2">runs on</text><text x="273.2" y="353.8" text-anchor="middle" fill="#A2957A" font-size="14.3" font-weight="600">runs on</text></g><g data-dediren-edge-id="dep-lib"><marker id="marker-end-dep-lib" data-dediren-edge-marker-end="open_arrow" markerWidth="10" markerHeight="10" refX="9" refY="5" orient="auto"><path d="M 1 1 L 9 5 L 1 9" fill="none" stroke="#7A6B4E" stroke-width="1.5"/></marker><path d="M 119.0 115.0 L 119.0 160.8 Q 119.0 168.8 127.0 168.8 L 471.2 168.8 Q 479.2 168.8 479.2 176.8 L 479.2 383.8" fill="none" stroke="#7A6B4E" stroke-width="1.25" stroke-linecap="round" stroke-linejoin="round" stroke-dasharray="8 5" marker-end="url(#marker-end-dep-lib)"/><text x="299.1" y="186.8" text-anchor="middle" fill="none" font-size="14.3" font-weight="600" stroke="#0C0A06" stroke-width="2">hosted by</text><text x="299.1" y="186.8" text-anchor="middle" fill="#A2957A" font-size="14.3" font-weight="600">hosted by</text></g><g data-dediren-edge-id="man-cli"><marker id="marker-end-man-cli" data-dediren-edge-marker-end="open_arrow" markerWidth="10" markerHeight="10" refX="9" refY="5" orient="auto"><path d="M 1 1 L 9 5 L 1 9" fill="none" stroke="#7A6B4E" stroke-width="1.5"/></marker><path d="M 195.0 70.8 L 767.0 70.8" fill="none" stroke="#7A6B4E" stroke-width="1.25" stroke-linecap="round" stroke-linejoin="round" stroke-dasharray="8 5" marker-end="url(#marker-end-man-cli)"/><text x="481.0" y="88.8" text-anchor="middle" fill="none" font-size="14.3" font-weight="600" stroke="#0C0A06" stroke-width="2">manifests</text><text x="481.0" y="88.8" text-anchor="middle" fill="#A2957A" font-size="14.3" font-weight="600">manifests</text></g><g data-dediren-edge-id="man-engines"><marker id="marker-end-man-engines" data-dediren-edge-marker-end="open_arrow" markerWidth="10" markerHeight="10" refX="9" refY="5" orient="auto"><path d="M 1 1 L 9 5 L 1 9" fill="none" stroke="#7A6B4E" stroke-width="1.5"/></marker><g data-dediren-line-jump-masks="man-engines"><path d="M 243.0 162.8 Q 249.0 168.8 243.0 174.8" fill="none" stroke="#100B05" stroke-width="6"/><path d="M 473.2 238.8 Q 479.2 232.8 485.2 238.8" fill="none" stroke="#100B05" stroke-width="6"/></g><path d="M 195.0 87.2 L 235.0 87.2 Q 243.0 87.2 243.0 95.2 L 243.0 162.8 Q 249.0 168.8 243.0 174.8 L 243.0 230.8 Q 243.0 238.8 251.0 238.8 L 473.2 238.8 Q 479.2 232.8 485.2 238.8 L 767.0 238.8" fill="none" stroke="#7A6B4E" stroke-width="1.25" stroke-linecap="round" stroke-linejoin="round" stroke-dasharray="8 5" marker-end="url(#marker-end-man-engines)"/><text x="219.0" y="133.2" text-anchor="middle" fill="none" font-size="14.3" font-weight="600" stroke="#0C0A06" stroke-width="2">manifests</text><text x="219.0" y="133.2" text-anchor="middle" fill="#A2957A" font-size="14.3" font-weight="600">manifests</text></g><g data-dediren-node-id="ee-jvm"><rect data-dediren-node-shape="archimate_rectangle" x="363.0" y="384.8" width="180.0" height="96.0" rx="0" fill="#100B05" stroke="#4A3F2C" stroke-width="1.25"/><text x="453.0" y="432.8" text-anchor="middle" dominant-baseline="middle" fill="#F2A93B" font-size="13.0" textLength="51.6" lengthAdjust="spacing">JVM 21+</text></g><g data-dediren-node-id="art-launcher"><rect data-dediren-node-shape="archimate_rectangle" x="44.5" y="216.8" width="150.0" height="70.0" rx="0" fill="#17110A" stroke="#F2A93B" stroke-width="1.25"/><text x="119.5" y="251.8" text-anchor="middle" dominant-baseline="middle" fill="#ECDFC7" font-size="13.0" textLength="64.3" lengthAdjust="spacing">bin/dediren</text></g><g data-dediren-node-id="art-lib"><rect data-dediren-node-shape="archimate_rectangle" x="44.0" y="44.0" width="150.0" height="70.0" rx="0" fill="#17110A" stroke="#F2A93B" stroke-width="1.25"/><text x="119.0" y="71.5" text-anchor="middle" dominant-baseline="middle" fill="#ECDFC7" font-size="13.0"><tspan x="119.0" dy="0" textLength="114.7" lengthAdjust="spacing">lib/ · shrink-merged</tspan><tspan x="119.0" dy="14.9" textLength="14.4" lengthAdjust="spacing">jar</tspan></text></g><g data-dediren-node-id="comp-cli"><rect data-dediren-node-shape="archimate_rectangle" x="768.0" y="22.8" width="180.0" height="96.0" rx="0" fill="#17110A" stroke="#54D98A" stroke-width="1.25"/><text x="858.0" y="70.8" text-anchor="middle" dominant-baseline="middle" fill="#ECDFC7" font-size="13.0" textLength="119.9" lengthAdjust="spacing">cli (composition root)</text></g><g data-dediren-node-id="comp-engines"><rect data-dediren-node-shape="archimate_rectangle" x="768.0" y="190.8" width="180.0" height="96.0" rx="0" fill="#17110A" stroke="#54D98A" stroke-width="1.25"/><text x="858.0" y="238.8" text-anchor="middle" dominant-baseline="middle" fill="#ECDFC7" font-size="13.0" textLength="117.7" lengthAdjust="spacing">engines (in-process)</text></g></g></svg>
