<svg xmlns="http://www.w3.org/2000/svg" role="img" width="2658" height="1616" viewBox="-16 -48 2658 1616" data-arch-a11y="root" data-arch-a11y-viewbox="-16.0 -16.0 2658.0 1584.0" data-arch-a11y-height="1584"><title>Engine seam — typed interfaces and realizations</title><desc>What typed interfaces does engine-api define, and which engine classes realize them?</desc>
<rect data-arch-a11y="band-bg" x="-16" y="-48" width="2658" height="32" fill="#0C0A06"/>
<text data-arch-a11y="visible-title" x="-8" y="-28" font-family="sans-serif" font-size="16" font-weight="bold" fill="#ffffff">Engine seam — typed interfaces and realizations</text><rect x="-16.0" y="-16.0" width="2658.0" height="1584.0" fill="#0C0A06"/><g font-family="Inter, Arial, sans-serif" font-size="13"><g data-dediren-group-id="engine-api-boundary" data-dediren-group-type="Package" data-dediren-group-source-id="pkg-engine-api"><rect x="12.0" y="396.0" width="1221.0" height="952.0" rx="0" fill="#100B05" stroke="#4A3F2C" stroke-width="1"/><text x="20.0" y="412.0" fill="#F2A93B" font-size="12">engine-api</text></g><g data-dediren-group-id="engines-boundary" data-dediren-group-type="Package" data-dediren-group-source-id="pkg-engines"><rect x="1513.0" y="12.0" width="1101.0" height="1528.0" rx="0" fill="#100B05" stroke="#4A3F2C" stroke-width="1"/><text x="1521.0" y="28.0" fill="#F2A93B" font-size="12">engine implementations</text></g><g data-dediren-edge-id="real-router-semantics"><marker id="marker-end-real-router-semantics" data-dediren-edge-marker-end="hollow_triangle" markerWidth="10" markerHeight="10" refX="9" refY="5" orient="auto"><path d="M 1 1 L 9 5 L 1 9 Z" fill="#ffffff" stroke="#7A6B4E" stroke-width="1"/></marker><path d="M 1641.0 857.0 L 1489.0 857.0 L 1312.5 857.0 Q 1305.0 857.0 1305.0 864.5 L 1305.0 864.5 Q 1305.0 872.0 1297.5 872.0 L 1257.0 872.0 L 1105.0 872.0" fill="none" stroke="#7A6B4E" stroke-width="1.25" stroke-linecap="round" stroke-linejoin="round" stroke-dasharray="8 5" marker-end="url(#marker-end-real-router-semantics)"/><text x="1299.0" y="864.5" text-anchor="end" fill="none" font-size="14.3" font-weight="600" stroke="#0C0A06" stroke-width="2">realizes</text><text x="1299.0" y="864.5" text-anchor="end" fill="#A2957A" font-size="14.3" font-weight="600">realizes</text></g><g data-dediren-edge-id="real-elk-layout"><marker id="marker-end-real-elk-layout" data-dediren-edge-marker-end="hollow_triangle" markerWidth="10" markerHeight="10" refX="9" refY="5" orient="auto"><path d="M 1 1 L 9 5 L 1 9 Z" fill="#ffffff" stroke="#7A6B4E" stroke-width="1"/></marker><path d="M 1641.0 1448.0 L 1489.0 1448.0 L 1313.0 1448.0 Q 1305.0 1448.0 1305.0 1440.0 L 1305.0 1264.0 Q 1305.0 1256.0 1297.0 1256.0 L 1257.0 1256.0 L 1105.0 1256.0" fill="none" stroke="#7A6B4E" stroke-width="1.25" stroke-linecap="round" stroke-linejoin="round" stroke-dasharray="8 5" marker-end="url(#marker-end-real-elk-layout)"/><text x="1565.0" y="1466.0" text-anchor="middle" fill="none" font-size="14.3" font-weight="600" stroke="#0C0A06" stroke-width="2">realizes</text><text x="1565.0" y="1466.0" text-anchor="middle" fill="#A2957A" font-size="14.3" font-weight="600">realizes</text></g><g data-dediren-edge-id="real-svg-render"><marker id="marker-end-real-svg-render" data-dediren-edge-marker-end="hollow_triangle" markerWidth="10" markerHeight="10" refX="9" refY="5" orient="auto"><path d="M 1 1 L 9 5 L 1 9 Z" fill="#ffffff" stroke="#7A6B4E" stroke-width="1"/></marker><path d="M 1641.0 680.0 L 1489.0 680.0 L 1257.0 680.0 L 1105.0 680.0" fill="none" stroke="#7A6B4E" stroke-width="1.25" stroke-linecap="round" stroke-linejoin="round" stroke-dasharray="8 5" marker-end="url(#marker-end-real-svg-render)"/><text x="1565.0" y="614.0" text-anchor="middle" fill="none" font-size="14.3" font-weight="600" stroke="#0C0A06" stroke-width="2">realizes</text><text x="1565.0" y="614.0" text-anchor="middle" fill="#A2957A" font-size="14.3" font-weight="600">realizes</text></g><g data-dediren-edge-id="real-oef-export"><marker id="marker-end-real-oef-export" data-dediren-edge-marker-end="hollow_triangle" markerWidth="10" markerHeight="10" refX="9" refY="5" orient="auto"><path d="M 1 1 L 9 5 L 1 9 Z" fill="#ffffff" stroke="#7A6B4E" stroke-width="1"/></marker><path d="M 1641.0 1256.0 L 1489.0 1256.0 L 1353.0 1256.0 Q 1345.0 1256.0 1345.0 1248.0 L 1345.0 1072.0 Q 1345.0 1064.0 1337.0 1064.0 L 1257.0 1064.0 L 1105.0 1064.0" fill="none" stroke="#7A6B4E" stroke-width="1.25" stroke-linecap="round" stroke-linejoin="round" stroke-dasharray="8 5" marker-end="url(#marker-end-real-oef-export)"/><text x="1565.0" y="1274.0" text-anchor="middle" fill="none" font-size="14.3" font-weight="600" stroke="#0C0A06" stroke-width="2">realizes</text><text x="1565.0" y="1274.0" text-anchor="middle" fill="#A2957A" font-size="14.3" font-weight="600">realizes</text></g><g data-dediren-edge-id="real-xmi-export"><marker id="marker-end-real-xmi-export" data-dediren-edge-marker-end="hollow_triangle" markerWidth="10" markerHeight="10" refX="9" refY="5" orient="auto"><path d="M 1 1 L 9 5 L 1 9 Z" fill="#ffffff" stroke="#7A6B4E" stroke-width="1"/></marker><path d="M 1641.0 1064.0 L 1489.0 1064.0 L 1257.0 1064.0 L 1105.0 1064.0" fill="none" stroke="#7A6B4E" stroke-width="1.25" stroke-linecap="round" stroke-linejoin="round" stroke-dasharray="8 5" marker-end="url(#marker-end-real-xmi-export)"/><text x="1565.0" y="1082.0" text-anchor="middle" fill="none" font-size="14.3" font-weight="600" stroke="#0C0A06" stroke-width="2">realizes</text><text x="1565.0" y="1082.0" text-anchor="middle" fill="#A2957A" font-size="14.3" font-weight="600">realizes</text></g><g data-dediren-edge-id="real-graph-notation"><marker id="marker-end-real-graph-notation" data-dediren-edge-marker-end="hollow_triangle" markerWidth="10" markerHeight="10" refX="9" refY="5" orient="auto"><path d="M 1 1 L 9 5 L 1 9 Z" fill="#ffffff" stroke="#7A6B4E" stroke-width="1"/></marker><path d="M 1641.0 488.0 L 1489.0 488.0 L 1448.5 488.0 Q 1441.0 488.0 1441.0 480.5 L 1441.0 480.5 Q 1441.0 473.0 1433.5 473.0 L 1257.0 473.0 L 1105.0 473.0" fill="none" stroke="#7A6B4E" stroke-width="1.25" stroke-linecap="round" stroke-linejoin="round" stroke-dasharray="8 5" marker-end="url(#marker-end-real-graph-notation)"/><text x="1565.0" y="506.0" text-anchor="middle" fill="none" font-size="14.3" font-weight="600" stroke="#0C0A06" stroke-width="2">realizes</text><text x="1565.0" y="506.0" text-anchor="middle" fill="#A2957A" font-size="14.3" font-weight="600">realizes</text></g><g data-dediren-edge-id="real-archimate-notation"><marker id="marker-end-real-archimate-notation" data-dediren-edge-marker-end="hollow_triangle" markerWidth="10" markerHeight="10" refX="9" refY="5" orient="auto"><path d="M 1 1 L 9 5 L 1 9 Z" fill="#ffffff" stroke="#7A6B4E" stroke-width="1"/></marker><path d="M 1641.0 296.0 L 1489.0 296.0 L 1313.0 296.0 Q 1305.0 296.0 1305.0 304.0 L 1305.0 465.0 Q 1305.0 473.0 1297.0 473.0 L 1257.0 473.0 L 1105.0 473.0" fill="none" stroke="#7A6B4E" stroke-width="1.25" stroke-linecap="round" stroke-linejoin="round" stroke-dasharray="8 5" marker-end="url(#marker-end-real-archimate-notation)"/><text x="1565.0" y="314.0" text-anchor="middle" fill="none" font-size="14.3" font-weight="600" stroke="#0C0A06" stroke-width="2">realizes</text><text x="1565.0" y="314.0" text-anchor="middle" fill="#A2957A" font-size="14.3" font-weight="600">realizes</text></g><g data-dediren-edge-id="real-uml-notation"><marker id="marker-end-real-uml-notation" data-dediren-edge-marker-end="hollow_triangle" markerWidth="10" markerHeight="10" refX="9" refY="5" orient="auto"><path d="M 1 1 L 9 5 L 1 9 Z" fill="#ffffff" stroke="#7A6B4E" stroke-width="1"/></marker><path d="M 1641.0 104.0 L 1489.0 104.0 L 1313.0 104.0 Q 1305.0 104.0 1305.0 112.0 L 1305.0 465.0 Q 1305.0 473.0 1297.0 473.0 L 1257.0 473.0 L 1105.0 473.0" fill="none" stroke="#7A6B4E" stroke-width="1.25" stroke-linecap="round" stroke-linejoin="round" stroke-dasharray="8 5" marker-end="url(#marker-end-real-uml-notation)"/><text x="1565.0" y="122.0" text-anchor="middle" fill="none" font-size="14.3" font-weight="600" stroke="#0C0A06" stroke-width="2">realizes</text><text x="1565.0" y="122.0" text-anchor="middle" fill="#A2957A" font-size="14.3" font-weight="600">realizes</text></g><g data-dediren-edge-id="dep-router-notation"><marker id="marker-end-dep-router-notation" data-dediren-edge-marker-end="open_arrow" markerWidth="10" markerHeight="10" refX="9" refY="5" orient="auto"><path d="M 1 1 L 9 5 L 1 9" fill="none" stroke="#7A6B4E" stroke-width="1.5"/></marker><g data-dediren-line-jump-masks="dep-router-notation"><path d="M 1593.0 851.0 Q 1599.0 857.0 1593.0 863.0" fill="none" stroke="#100B05" stroke-width="6"/><path d="M 1593.0 674.0 Q 1599.0 680.0 1593.0 686.0" fill="none" stroke="#100B05" stroke-width="6"/></g><path d="M 1641.0 887.0 L 1601.0 887.0 Q 1593.0 887.0 1593.0 879.0 L 1593.0 863.0 Q 1599.0 857.0 1593.0 851.0 L 1593.0 686.0 Q 1599.0 680.0 1593.0 674.0 L 1593.0 648.0 Q 1593.0 640.0 1585.0 640.0 L 1489.0 640.0 L 1447.0 640.0 Q 1441.0 640.0 1441.0 634.0 L 1441.0 634.0 Q 1441.0 628.0 1435.0 628.0 L 1313.0 628.0 Q 1305.0 628.0 1305.0 620.0 L 1305.0 521.0 Q 1305.0 513.0 1297.0 513.0 L 1257.0 513.0 L 1158.0 513.0 Q 1153.0 513.0 1153.0 508.0 L 1153.0 508.0 Q 1153.0 503.0 1148.0 503.0 L 1105.0 503.0" fill="none" stroke="#7A6B4E" stroke-width="1.25" stroke-linecap="round" stroke-linejoin="round" stroke-dasharray="8 5" marker-end="url(#marker-end-dep-router-notation)"/><text x="1599.0" y="763.5" text-anchor="start" fill="none" font-size="14.3" font-weight="600" stroke="#0C0A06" stroke-width="2">dispatches to</text><text x="1599.0" y="763.5" text-anchor="start" fill="#A2957A" font-size="14.3" font-weight="600">dispatches to</text></g><g data-dediren-node-id="if-semantics-engine"><rect data-dediren-node-shape="uml_interface" x="304.0" y="812.0" width="800.0" height="120.0" rx="0" fill="#17110A" stroke="#54D98A" stroke-width="1.25"/><g data-dediren-node-decorator="uml_interface"><line x1="304.0" y1="850.0" x2="1104.0" y2="850.0" stroke="#54D98A" stroke-width="1.25"/><line x1="304.0" y1="850.0" x2="1104.0" y2="850.0" stroke="#54D98A" stroke-width="1.25"/><text x="704.0" y="827.0" text-anchor="middle" fill="#ECDFC7" font-size="12">«interface»</text><text x="704.0" y="842.0" text-anchor="middle" fill="#ECDFC7" font-size="12">SemanticsEngine</text><text x="312.0" y="865.0" fill="#ECDFC7" font-size="12">+ id() : String</text><text x="312.0" y="879.0" fill="#ECDFC7" font-size="12">+ validate(source : SourceDocument, profile : String) : EngineResult&lt;SemanticValidationResult&gt;</text><text x="312.0" y="893.0" fill="#ECDFC7" font-size="12">+ projectScene(source : SourceDocument, view : String) : EngineResult&lt;SceneGraph&gt;</text><text x="312.0" y="907.0" fill="#ECDFC7" font-size="12">+ projectRenderMetadata(source : SourceDocument, view : String) : EngineResult&lt;RenderMetadata&gt;</text></g></g><g data-dediren-node-id="if-layout-engine"><rect data-dediren-node-shape="uml_interface" x="604.0" y="1196.0" width="500.0" height="120.0" rx="0" fill="#17110A" stroke="#54D98A" stroke-width="1.25"/><g data-dediren-node-decorator="uml_interface"><line x1="604.0" y1="1234.0" x2="1104.0" y2="1234.0" stroke="#54D98A" stroke-width="1.25"/><line x1="604.0" y1="1234.0" x2="1104.0" y2="1234.0" stroke="#54D98A" stroke-width="1.25"/><text x="854.0" y="1211.0" text-anchor="middle" fill="#ECDFC7" font-size="12">«interface»</text><text x="854.0" y="1226.0" text-anchor="middle" fill="#ECDFC7" font-size="12">LayoutEngine</text><text x="612.0" y="1249.0" fill="#ECDFC7" font-size="12">+ id() : String</text><text x="612.0" y="1263.0" fill="#ECDFC7" font-size="12">+ parseRequest(input : byte[]) : SceneGraph</text><text x="612.0" y="1277.0" fill="#ECDFC7" font-size="12">+ layout(scene : SceneGraph) : EngineResult&lt;LaidOutScene&gt;</text></g></g><g data-dediren-node-id="if-render-engine"><rect data-dediren-node-shape="uml_interface" x="164.0" y="620.0" width="940.0" height="120.0" rx="0" fill="#17110A" stroke="#54D98A" stroke-width="1.25"/><g data-dediren-node-decorator="uml_interface"><line x1="164.0" y1="658.0" x2="1104.0" y2="658.0" stroke="#54D98A" stroke-width="1.25"/><line x1="164.0" y1="658.0" x2="1104.0" y2="658.0" stroke="#54D98A" stroke-width="1.25"/><text x="634.0" y="635.0" text-anchor="middle" fill="#ECDFC7" font-size="12">«interface»</text><text x="634.0" y="650.0" text-anchor="middle" fill="#ECDFC7" font-size="12">RenderEngine</text><text x="172.0" y="673.0" fill="#ECDFC7" font-size="12">+ id() : String</text><text x="172.0" y="687.0" fill="#ECDFC7" font-size="12">+ render(layout : LaidOutScene, policy : JsonNode, metadataOrNull : RenderMetadata) : EngineResult&lt;RenderResult&gt;</text></g></g><g data-dediren-node-id="if-export-engine"><rect data-dediren-node-shape="uml_interface" x="44.0" y="1004.0" width="1060.0" height="120.0" rx="0" fill="#17110A" stroke="#54D98A" stroke-width="1.25"/><g data-dediren-node-decorator="uml_interface"><line x1="44.0" y1="1042.0" x2="1104.0" y2="1042.0" stroke="#54D98A" stroke-width="1.25"/><line x1="44.0" y1="1042.0" x2="1104.0" y2="1042.0" stroke="#54D98A" stroke-width="1.25"/><text x="574.0" y="1019.0" text-anchor="middle" fill="#ECDFC7" font-size="12">«interface»</text><text x="574.0" y="1034.0" text-anchor="middle" fill="#ECDFC7" font-size="12">ExportEngine</text><text x="52.0" y="1057.0" fill="#ECDFC7" font-size="12">+ id() : String</text><text x="52.0" y="1071.0" fill="#ECDFC7" font-size="12">+ export(request : ExportRequest, env : Map&lt;String,String&gt;, productRoot : Path) : EngineResult&lt;ExportResult&gt;</text><text x="52.0" y="1085.0" fill="#ECDFC7" font-size="12">+ exportModel(request : ModelExportRequest, env : Map&lt;String,String&gt;, productRoot : Path) : Optional&lt;EngineResult&lt;ExportResult&gt;&gt;</text></g></g><g data-dediren-node-id="if-notation-semantics"><rect data-dediren-node-shape="uml_interface" x="384.0" y="428.0" width="720.0" height="120.0" rx="0" fill="#17110A" stroke="#54D98A" stroke-width="1.25"/><g data-dediren-node-decorator="uml_interface"><line x1="384.0" y1="466.0" x2="1104.0" y2="466.0" stroke="#54D98A" stroke-width="1.25"/><line x1="384.0" y1="466.0" x2="1104.0" y2="466.0" stroke="#54D98A" stroke-width="1.25"/><text x="744.0" y="443.0" text-anchor="middle" fill="#ECDFC7" font-size="12">«interface»</text><text x="744.0" y="458.0" text-anchor="middle" fill="#ECDFC7" font-size="12">NotationSemantics</text><text x="392.0" y="481.0" fill="#ECDFC7" font-size="12">+ validate(source : SourceDocument, pluginData : GenericGraphPluginData) : void</text><text x="392.0" y="495.0" fill="#ECDFC7" font-size="12">+ layoutRole(sourceType : String) : String</text><text x="392.0" y="509.0" fill="#ECDFC7" font-size="12">+ layoutIntents(source : SourceDocument, view : GenericGraphView) : List&lt;LayoutIntent&gt;</text></g></g><g data-dediren-node-id="cls-semantics-router"><rect data-dediren-node-shape="uml_class" x="1642.0" y="812.0" width="680.0" height="120.0" rx="0" fill="#17110A" stroke="#F2A93B" stroke-width="1.25"/><g data-dediren-node-decorator="uml_class"><line x1="1642.0" y1="840.0" x2="2322.0" y2="840.0" stroke="#F2A93B" stroke-width="1.25"/><line x1="1642.0" y1="840.0" x2="2322.0" y2="840.0" stroke="#F2A93B" stroke-width="1.25"/><text x="1982.0" y="827.0" text-anchor="middle" fill="#ECDFC7" font-size="12">SemanticsRouterEngine</text><text x="1650.0" y="855.0" fill="#ECDFC7" font-size="12">+ id() : String</text><text x="1650.0" y="869.0" fill="#ECDFC7" font-size="12">+ projectScene(source : SourceDocument, view : String) : EngineResult&lt;SceneGraph&gt;</text></g></g><g data-dediren-node-id="cls-graph-notation"><rect data-dediren-node-shape="uml_class" x="1642.0" y="428.0" width="380.0" height="120.0" rx="0" fill="#17110A" stroke="#F2A93B" stroke-width="1.25"/><g data-dediren-node-decorator="uml_class"><line x1="1642.0" y1="456.0" x2="2022.0" y2="456.0" stroke="#F2A93B" stroke-width="1.25"/><line x1="1642.0" y1="456.0" x2="2022.0" y2="456.0" stroke="#F2A93B" stroke-width="1.25"/><text x="1832.0" y="443.0" text-anchor="middle" fill="#ECDFC7" font-size="12">GraphNotationSemantics</text><text x="1650.0" y="471.0" fill="#ECDFC7" font-size="12">+ layoutRole(sourceType : String) : String</text></g></g><g data-dediren-node-id="cls-archimate-notation"><rect data-dediren-node-shape="uml_class" x="1642.0" y="236.0" width="680.0" height="120.0" rx="0" fill="#17110A" stroke="#F2A93B" stroke-width="1.25"/><g data-dediren-node-decorator="uml_class"><line x1="1642.0" y1="264.0" x2="2322.0" y2="264.0" stroke="#F2A93B" stroke-width="1.25"/><line x1="1642.0" y1="264.0" x2="2322.0" y2="264.0" stroke="#F2A93B" stroke-width="1.25"/><text x="1982.0" y="251.0" text-anchor="middle" fill="#ECDFC7" font-size="12">ArchimateNotationSemantics</text><text x="1650.0" y="279.0" fill="#ECDFC7" font-size="12">+ validate(source : SourceDocument, pluginData : GenericGraphPluginData) : void</text></g></g><g data-dediren-node-id="cls-uml-notation"><rect data-dediren-node-shape="uml_class" x="1642.0" y="44.0" width="680.0" height="120.0" rx="0" fill="#17110A" stroke="#F2A93B" stroke-width="1.25"/><g data-dediren-node-decorator="uml_class"><line x1="1642.0" y1="72.0" x2="2322.0" y2="72.0" stroke="#F2A93B" stroke-width="1.25"/><line x1="1642.0" y1="72.0" x2="2322.0" y2="72.0" stroke="#F2A93B" stroke-width="1.25"/><text x="1982.0" y="59.0" text-anchor="middle" fill="#ECDFC7" font-size="12">UmlNotationSemantics</text><text x="1650.0" y="87.0" fill="#ECDFC7" font-size="12">+ validate(source : SourceDocument, pluginData : GenericGraphPluginData) : void</text></g></g><g data-dediren-node-id="cls-elk-engine"><rect data-dediren-node-shape="uml_class" x="1642.0" y="1388.0" width="500.0" height="120.0" rx="0" fill="#17110A" stroke="#F2A93B" stroke-width="1.25"/><g data-dediren-node-decorator="uml_class"><line x1="1642.0" y1="1416.0" x2="2142.0" y2="1416.0" stroke="#F2A93B" stroke-width="1.25"/><line x1="1642.0" y1="1416.0" x2="2142.0" y2="1416.0" stroke="#F2A93B" stroke-width="1.25"/><text x="1892.0" y="1403.0" text-anchor="middle" fill="#ECDFC7" font-size="12">ElkEngine</text><text x="1650.0" y="1431.0" fill="#ECDFC7" font-size="12">+ id() : String</text><text x="1650.0" y="1445.0" fill="#ECDFC7" font-size="12">+ layout(scene : SceneGraph) : EngineResult&lt;LaidOutScene&gt;</text></g></g><g data-dediren-node-id="cls-svg-render"><rect data-dediren-node-shape="uml_class" x="1642.0" y="620.0" width="940.0" height="120.0" rx="0" fill="#17110A" stroke="#F2A93B" stroke-width="1.25"/><g data-dediren-node-decorator="uml_class"><line x1="1642.0" y1="648.0" x2="2582.0" y2="648.0" stroke="#F2A93B" stroke-width="1.25"/><line x1="1642.0" y1="648.0" x2="2582.0" y2="648.0" stroke="#F2A93B" stroke-width="1.25"/><text x="2112.0" y="635.0" text-anchor="middle" fill="#ECDFC7" font-size="12">SvgRenderEngine</text><text x="1650.0" y="663.0" fill="#ECDFC7" font-size="12">+ id() : String</text><text x="1650.0" y="677.0" fill="#ECDFC7" font-size="12">+ render(layout : LaidOutScene, policy : JsonNode, metadataOrNull : RenderMetadata) : EngineResult&lt;RenderResult&gt;</text></g></g><g data-dediren-node-id="cls-oef-export"><rect data-dediren-node-shape="uml_class" x="1642.0" y="1196.0" width="900.0" height="120.0" rx="0" fill="#17110A" stroke="#F2A93B" stroke-width="1.25"/><g data-dediren-node-decorator="uml_class"><line x1="1642.0" y1="1224.0" x2="2542.0" y2="1224.0" stroke="#F2A93B" stroke-width="1.25"/><line x1="1642.0" y1="1224.0" x2="2542.0" y2="1224.0" stroke="#F2A93B" stroke-width="1.25"/><text x="2092.0" y="1211.0" text-anchor="middle" fill="#ECDFC7" font-size="12">OefExportEngine</text><text x="1650.0" y="1239.0" fill="#ECDFC7" font-size="12">+ id() : String</text><text x="1650.0" y="1253.0" fill="#ECDFC7" font-size="12">+ export(request : ExportRequest, env : Map&lt;String,String&gt;, productRoot : Path) : EngineResult&lt;ExportResult&gt;</text></g></g><g data-dediren-node-id="cls-xmi-export"><rect data-dediren-node-shape="uml_class" x="1642.0" y="1004.0" width="900.0" height="120.0" rx="0" fill="#17110A" stroke="#F2A93B" stroke-width="1.25"/><g data-dediren-node-decorator="uml_class"><line x1="1642.0" y1="1032.0" x2="2542.0" y2="1032.0" stroke="#F2A93B" stroke-width="1.25"/><line x1="1642.0" y1="1032.0" x2="2542.0" y2="1032.0" stroke="#F2A93B" stroke-width="1.25"/><text x="2092.0" y="1019.0" text-anchor="middle" fill="#ECDFC7" font-size="12">XmiExportEngine</text><text x="1650.0" y="1047.0" fill="#ECDFC7" font-size="12">+ id() : String</text><text x="1650.0" y="1061.0" fill="#ECDFC7" font-size="12">+ export(request : ExportRequest, env : Map&lt;String,String&gt;, productRoot : Path) : EngineResult&lt;ExportResult&gt;</text></g></g></g></svg>
