<svg xmlns="http://www.w3.org/2000/svg" role="img" width="2174" height="1587" viewBox="-16 -48 2174 1587" data-arch-a11y="root" data-arch-a11y-viewbox="-16.0 -16.0 2174.0 1555.0" data-arch-a11y-height="1555"><metadata id="dediren-provenance">{"model_schema_version":"model.schema.v1","model_sha256":"20d76ebad9a3688940821b770b344c896083df81ea8ead853a0a058a8b54bfd3","view_id":"module-architecture","render_policy_sha256":"6aa4faae10a99accc7d582326f1abe26aa11d4644a164b0bda46cf14d833dc8e","dediren_version":"2026.07.23"}</metadata><title>Dediren module architecture</title><desc>Which modules make up the dediren compiler, and how do they depend on each other?</desc>
<rect data-arch-a11y="band-bg" x="-16" y="-48" width="2174" height="32" fill="#0C0A06"/>
<text data-arch-a11y="visible-title" x="-8" y="-28" font-family="sans-serif" font-size="16" font-weight="bold" fill="#ffffff">Dediren module architecture</text><rect x="-16.0" y="-16.0" width="2174.0" height="1555.0" fill="#0C0A06"/><g font-family="Inter, Arial, sans-serif" font-size="13"><g data-dediren-group-id="grp-tier0"><rect x="757.0" y="12.0" width="482.0" height="298.0" rx="10" fill="#100B05" stroke="#4A3F2C" stroke-width="1"/><text x="765.0" y="28.0" fill="#F2A93B" font-size="12">Foundation · contracts + IR spine (tier 0)</text></g><g data-dediren-group-id="grp-tier1"><rect x="551.0" y="454.0" width="940.0" height="146.0" rx="10" fill="#100B05" stroke="#4A3F2C" stroke-width="1"/><text x="559.0" y="470.0" fill="#F2A93B" font-size="12">Notation &amp; utility cores · engine seam (tier 1)</text></g><g data-dediren-group-id="grp-tier2"><rect x="12.0" y="744.0" width="2118.0" height="146.0" rx="10" fill="#100B05" stroke="#4A3F2C" stroke-width="1"/><text x="20.0" y="760.0" fill="#F2A93B" font-size="12">Orchestration &amp; engines (tier 2)</text></g><g data-dediren-group-id="grp-tier3"><rect x="1634.0" y="1034.0" width="331.0" height="477.0" rx="10" fill="#100B05" stroke="#4A3F2C" stroke-width="1"/><text x="1642.0" y="1050.0" fill="#F2A93B" font-size="12">Entrypoint &amp; assembly (tier 3)</text></g><g data-dediren-edge-id="serv-contracts-ir"><marker id="marker-end-serv-contracts-ir" data-dediren-edge-marker-end="open_arrow" markerWidth="10" markerHeight="10" refX="9" refY="5" orient="auto"><path d="M 1 1 L 9 5 L 1 9" fill="none" stroke="#7A6B4E" stroke-width="1.5"/></marker><path d="M 950.0 84.0 L 990.0 84.0 Q 998.0 84.0 998.0 92.0 L 998.0 229.0 Q 998.0 237.0 1006.0 237.0 L 1046.0 237.0" fill="none" stroke="#7A6B4E" stroke-width="1.4" stroke-linecap="round" stroke-linejoin="round" marker-end="url(#marker-end-serv-contracts-ir)"/></g><g data-dediren-edge-id="serv-contracts-uml"><marker id="marker-end-serv-contracts-uml" data-dediren-edge-marker-end="open_arrow" markerWidth="10" markerHeight="10" refX="9" refY="5" orient="auto"><path d="M 1 1 L 9 5 L 1 9" fill="none" stroke="#7A6B4E" stroke-width="1.5"/></marker><path d="M 869.0 125.0 L 869.0 237.5 L 869.0 334.0 L 869.0 374.0 Q 869.0 382.0 877.0 382.0 L 887.0 382.0 Q 895.0 382.0 895.0 390.0 L 895.0 430.0 L 895.0 486.0" fill="none" stroke="#7A6B4E" stroke-width="1.4" stroke-linecap="round" stroke-linejoin="round" marker-end="url(#marker-end-serv-contracts-uml)"/></g><g data-dediren-edge-id="serv-ir-engine-api"><marker id="marker-end-serv-ir-engine-api" data-dediren-edge-marker-end="open_arrow" markerWidth="10" markerHeight="10" refX="9" refY="5" orient="auto"><path d="M 1 1 L 9 5 L 1 9" fill="none" stroke="#7A6B4E" stroke-width="1.5"/></marker><path d="M 1127.0 278.0 L 1127.0 334.0 L 1127.0 430.0 L 1127.0 486.0" fill="none" stroke="#7A6B4E" stroke-width="1.4" stroke-linecap="round" stroke-linejoin="round" marker-end="url(#marker-end-serv-ir-engine-api)"/></g><g data-dediren-edge-id="serv-engine-api-core"><marker id="marker-end-serv-engine-api-core" data-dediren-edge-marker-end="open_arrow" markerWidth="10" markerHeight="10" refX="9" refY="5" orient="auto"><path d="M 1 1 L 9 5 L 1 9" fill="none" stroke="#7A6B4E" stroke-width="1.5"/></marker><path d="M 1127.0 568.0 L 1127.0 624.0 L 1127.0 664.0 Q 1127.0 672.0 1135.0 672.0 L 1738.0 672.0 Q 1746.0 672.0 1746.0 680.0 L 1746.0 720.0 L 1746.0 776.0" fill="none" stroke="#7A6B4E" stroke-width="1.4" stroke-linecap="round" stroke-linejoin="round" marker-end="url(#marker-end-serv-engine-api-core)"/></g><g data-dediren-edge-id="serv-engine-api-semantics-graph"><marker id="marker-end-serv-engine-api-semantics-graph" data-dediren-edge-marker-end="open_arrow" markerWidth="10" markerHeight="10" refX="9" refY="5" orient="auto"><path d="M 1 1 L 9 5 L 1 9" fill="none" stroke="#7A6B4E" stroke-width="1.5"/></marker><path d="M 1127.0 568.0 L 1127.0 624.0 L 1127.0 664.0 Q 1127.0 672.0 1135.0 672.0 L 1990.0 672.0 Q 1998.0 672.0 1998.0 680.0 L 1998.0 720.0 L 1998.0 776.0" fill="none" stroke="#7A6B4E" stroke-width="1.4" stroke-linecap="round" stroke-linejoin="round" marker-end="url(#marker-end-serv-engine-api-semantics-graph)"/></g><g data-dediren-edge-id="serv-engine-api-semantics-archimate"><marker id="marker-end-serv-engine-api-semantics-archimate" data-dediren-edge-marker-end="open_arrow" markerWidth="10" markerHeight="10" refX="9" refY="5" orient="auto"><path d="M 1 1 L 9 5 L 1 9" fill="none" stroke="#7A6B4E" stroke-width="1.5"/></marker><path d="M 1127.0 568.0 L 1127.0 624.0 L 1127.0 664.0 Q 1127.0 672.0 1119.0 672.0 L 601.0 672.0 Q 593.0 672.0 593.0 680.0 L 593.0 720.0 L 593.0 776.0" fill="none" stroke="#7A6B4E" stroke-width="1.4" stroke-linecap="round" stroke-linejoin="round" marker-end="url(#marker-end-serv-engine-api-semantics-archimate)"/></g><g data-dediren-edge-id="serv-engine-api-semantics-uml"><marker id="marker-end-serv-engine-api-semantics-uml" data-dediren-edge-marker-end="open_arrow" markerWidth="10" markerHeight="10" refX="9" refY="5" orient="auto"><path d="M 1 1 L 9 5 L 1 9" fill="none" stroke="#7A6B4E" stroke-width="1.5"/></marker><path d="M 1127.0 568.0 L 1127.0 624.0 L 1127.0 664.0 Q 1127.0 672.0 1119.0 672.0 L 896.0 672.0 Q 888.0 672.0 888.0 680.0 L 888.0 720.0 L 888.0 776.0" fill="none" stroke="#7A6B4E" stroke-width="1.4" stroke-linecap="round" stroke-linejoin="round" marker-end="url(#marker-end-serv-engine-api-semantics-uml)"/></g><g data-dediren-edge-id="serv-engine-api-elk-layout"><marker id="marker-end-serv-engine-api-elk-layout" data-dediren-edge-marker-end="open_arrow" markerWidth="10" markerHeight="10" refX="9" refY="5" orient="auto"><path d="M 1 1 L 9 5 L 1 9" fill="none" stroke="#7A6B4E" stroke-width="1.5"/></marker><path d="M 1127.0 568.0 L 1127.0 624.0 L 1127.0 664.0 Q 1127.0 672.0 1119.0 672.0 L 364.0 672.0 Q 356.0 672.0 356.0 680.0 L 356.0 720.0 L 356.0 776.0" fill="none" stroke="#7A6B4E" stroke-width="1.4" stroke-linecap="round" stroke-linejoin="round" marker-end="url(#marker-end-serv-engine-api-elk-layout)"/></g><g data-dediren-edge-id="serv-engine-api-render"><marker id="marker-end-serv-engine-api-render" data-dediren-edge-marker-end="open_arrow" markerWidth="10" markerHeight="10" refX="9" refY="5" orient="auto"><path d="M 1 1 L 9 5 L 1 9" fill="none" stroke="#7A6B4E" stroke-width="1.5"/></marker><path d="M 1127.0 568.0 L 1127.0 624.0 L 1127.0 664.0 Q 1127.0 672.0 1119.0 672.0 L 132.0 672.0 Q 124.0 672.0 124.0 680.0 L 124.0 720.0 L 124.0 776.0" fill="none" stroke="#7A6B4E" stroke-width="1.4" stroke-linecap="round" stroke-linejoin="round" marker-end="url(#marker-end-serv-engine-api-render)"/></g><g data-dediren-edge-id="serv-engine-api-archimate-oef-export"><marker id="marker-end-serv-engine-api-archimate-oef-export" data-dediren-edge-marker-end="open_arrow" markerWidth="10" markerHeight="10" refX="9" refY="5" orient="auto"><path d="M 1 1 L 9 5 L 1 9" fill="none" stroke="#7A6B4E" stroke-width="1.5"/></marker><path d="M 1127.0 568.0 L 1127.0 624.0 L 1127.0 664.0 Q 1127.0 672.0 1135.0 672.0 L 1461.0 672.0 Q 1469.0 672.0 1469.0 680.0 L 1469.0 720.0 L 1469.0 776.0" fill="none" stroke="#7A6B4E" stroke-width="1.4" stroke-linecap="round" stroke-linejoin="round" marker-end="url(#marker-end-serv-engine-api-archimate-oef-export)"/></g><g data-dediren-edge-id="serv-engine-api-uml-xmi-export"><marker id="marker-end-serv-engine-api-uml-xmi-export" data-dediren-edge-marker-end="open_arrow" markerWidth="10" markerHeight="10" refX="9" refY="5" orient="auto"><path d="M 1 1 L 9 5 L 1 9" fill="none" stroke="#7A6B4E" stroke-width="1.5"/></marker><path d="M 1127.0 568.0 L 1127.0 624.0 L 1127.0 664.0 Q 1127.0 672.0 1135.0 672.0 L 1169.0 672.0 Q 1177.0 672.0 1177.0 680.0 L 1177.0 720.0 L 1177.0 776.0" fill="none" stroke="#7A6B4E" stroke-width="1.4" stroke-linecap="round" stroke-linejoin="round" marker-end="url(#marker-end-serv-engine-api-uml-xmi-export)"/></g><g data-dediren-edge-id="serv-archimate-semantics-archimate"><marker id="marker-end-serv-archimate-semantics-archimate" data-dediren-edge-marker-end="open_arrow" markerWidth="10" markerHeight="10" refX="9" refY="5" orient="auto"><path d="M 1 1 L 9 5 L 1 9" fill="none" stroke="#7A6B4E" stroke-width="1.5"/></marker><g data-dediren-line-jump-masks="serv-archimate-semantics-archimate"><path d="M 663.0 666.0 Q 669.0 672.0 663.0 678.0" fill="none" stroke="#0C0A06" stroke-width="6"/></g><path d="M 663.0 568.0 L 663.0 624.0 L 663.0 666.0 Q 669.0 672.0 663.0 678.0 L 663.0 720.0 L 663.0 776.0" fill="none" stroke="#7A6B4E" stroke-width="1.4" stroke-linecap="round" stroke-linejoin="round" marker-end="url(#marker-end-serv-archimate-semantics-archimate)"/></g><g data-dediren-edge-id="serv-archimate-render"><marker id="marker-end-serv-archimate-render" data-dediren-edge-marker-end="open_arrow" markerWidth="10" markerHeight="10" refX="9" refY="5" orient="auto"><path d="M 1 1 L 9 5 L 1 9" fill="none" stroke="#7A6B4E" stroke-width="1.5"/></marker><path d="M 663.0 568.0 L 663.0 624.0 L 663.0 664.0 Q 663.0 672.0 655.0 672.0 L 132.0 672.0 Q 124.0 672.0 124.0 680.0 L 124.0 720.0 L 124.0 776.0" fill="none" stroke="#7A6B4E" stroke-width="1.4" stroke-linecap="round" stroke-linejoin="round" marker-end="url(#marker-end-serv-archimate-render)"/></g><g data-dediren-edge-id="serv-archimate-archimate-oef-export"><marker id="marker-end-serv-archimate-archimate-oef-export" data-dediren-edge-marker-end="open_arrow" markerWidth="10" markerHeight="10" refX="9" refY="5" orient="auto"><path d="M 1 1 L 9 5 L 1 9" fill="none" stroke="#7A6B4E" stroke-width="1.5"/></marker><path d="M 663.0 568.0 L 663.0 624.0 L 663.0 664.0 Q 663.0 672.0 671.0 672.0 L 1461.0 672.0 Q 1469.0 672.0 1469.0 680.0 L 1469.0 720.0 L 1469.0 776.0" fill="none" stroke="#7A6B4E" stroke-width="1.4" stroke-linecap="round" stroke-linejoin="round" marker-end="url(#marker-end-serv-archimate-archimate-oef-export)"/></g><g data-dediren-edge-id="serv-uml-semantics-uml"><marker id="marker-end-serv-uml-semantics-uml" data-dediren-edge-marker-end="open_arrow" markerWidth="10" markerHeight="10" refX="9" refY="5" orient="auto"><path d="M 1 1 L 9 5 L 1 9" fill="none" stroke="#7A6B4E" stroke-width="1.5"/></marker><path d="M 895.0 568.0 L 895.0 624.0 L 895.0 664.0 Q 895.0 672.0 903.0 672.0 L 934.0 672.0 Q 942.0 672.0 942.0 680.0 L 942.0 720.0 L 942.0 776.0" fill="none" stroke="#7A6B4E" stroke-width="1.4" stroke-linecap="round" stroke-linejoin="round" marker-end="url(#marker-end-serv-uml-semantics-uml)"/></g><g data-dediren-edge-id="serv-uml-render"><marker id="marker-end-serv-uml-render" data-dediren-edge-marker-end="open_arrow" markerWidth="10" markerHeight="10" refX="9" refY="5" orient="auto"><path d="M 1 1 L 9 5 L 1 9" fill="none" stroke="#7A6B4E" stroke-width="1.5"/></marker><g data-dediren-line-jump-masks="serv-uml-render"><path d="M 657.0 672.0 Q 663.0 666.0 669.0 672.0" fill="none" stroke="#0C0A06" stroke-width="6"/></g><path d="M 895.0 568.0 L 895.0 624.0 L 895.0 664.0 Q 895.0 672.0 887.0 672.0 L 669.0 672.0 Q 663.0 666.0 657.0 672.0 L 132.0 672.0 Q 124.0 672.0 124.0 680.0 L 124.0 720.0 L 124.0 776.0" fill="none" stroke="#7A6B4E" stroke-width="1.4" stroke-linecap="round" stroke-linejoin="round" marker-end="url(#marker-end-serv-uml-render)"/></g><g data-dediren-edge-id="serv-uml-uml-xmi-export"><marker id="marker-end-serv-uml-uml-xmi-export" data-dediren-edge-marker-end="open_arrow" markerWidth="10" markerHeight="10" refX="9" refY="5" orient="auto"><path d="M 1 1 L 9 5 L 1 9" fill="none" stroke="#7A6B4E" stroke-width="1.5"/></marker><path d="M 895.0 568.0 L 895.0 624.0 L 895.0 664.0 Q 895.0 672.0 903.0 672.0 L 1169.0 672.0 Q 1177.0 672.0 1177.0 680.0 L 1177.0 720.0 L 1177.0 776.0" fill="none" stroke="#7A6B4E" stroke-width="1.4" stroke-linecap="round" stroke-linejoin="round" marker-end="url(#marker-end-serv-uml-uml-xmi-export)"/></g><g data-dediren-edge-id="serv-schema-cache-archimate-oef-export"><marker id="marker-end-serv-schema-cache-archimate-oef-export" data-dediren-edge-marker-end="open_arrow" markerWidth="10" markerHeight="10" refX="9" refY="5" orient="auto"><path d="M 1 1 L 9 5 L 1 9" fill="none" stroke="#7A6B4E" stroke-width="1.5"/></marker><path d="M 1394.0 568.0 L 1394.0 624.0 L 1394.0 664.0 Q 1394.0 672.0 1402.0 672.0 L 1461.0 672.0 Q 1469.0 672.0 1469.0 680.0 L 1469.0 720.0 L 1469.0 776.0" fill="none" stroke="#7A6B4E" stroke-width="1.4" stroke-linecap="round" stroke-linejoin="round" marker-end="url(#marker-end-serv-schema-cache-archimate-oef-export)"/></g><g data-dediren-edge-id="serv-schema-cache-uml-xmi-export"><marker id="marker-end-serv-schema-cache-uml-xmi-export" data-dediren-edge-marker-end="open_arrow" markerWidth="10" markerHeight="10" refX="9" refY="5" orient="auto"><path d="M 1 1 L 9 5 L 1 9" fill="none" stroke="#7A6B4E" stroke-width="1.5"/></marker><path d="M 1344.0 568.0 L 1344.0 624.0 L 1344.0 664.0 Q 1344.0 672.0 1336.0 672.0 L 1185.0 672.0 Q 1177.0 672.0 1177.0 680.0 L 1177.0 720.0 L 1177.0 776.0" fill="none" stroke="#7A6B4E" stroke-width="1.4" stroke-linecap="round" stroke-linejoin="round" marker-end="url(#marker-end-serv-schema-cache-uml-xmi-export)"/></g><g data-dediren-edge-id="serv-core-mcp-server"><marker id="marker-end-serv-core-mcp-server" data-dediren-edge-marker-end="open_arrow" markerWidth="10" markerHeight="10" refX="9" refY="5" orient="auto"><path d="M 1 1 L 9 5 L 1 9" fill="none" stroke="#7A6B4E" stroke-width="1.5"/></marker><path d="M 1768.0 858.0 L 1768.0 914.0 L 1768.0 954.0 Q 1768.0 962.0 1776.0 962.0 L 1845.0 962.0 Q 1853.0 962.0 1853.0 970.0 L 1853.0 1010.0 L 1853.0 1066.0" fill="none" stroke="#7A6B4E" stroke-width="1.4" stroke-linecap="round" stroke-linejoin="round" marker-end="url(#marker-end-serv-core-mcp-server)"/></g><g data-dediren-edge-id="serv-core-cli"><marker id="marker-end-serv-core-cli" data-dediren-edge-marker-end="open_arrow" markerWidth="10" markerHeight="10" refX="9" refY="5" orient="auto"><path d="M 1 1 L 9 5 L 1 9" fill="none" stroke="#7A6B4E" stroke-width="1.5"/></marker><path d="M 1724.0 858.0 L 1724.0 914.0 L 1724.0 1010.0 L 1724.0 1107.0 L 1724.0 1244.0" fill="none" stroke="#7A6B4E" stroke-width="1.4" stroke-linecap="round" stroke-linejoin="round" marker-end="url(#marker-end-serv-core-cli)"/></g><g data-dediren-edge-id="serv-mcp-server-cli"><marker id="marker-end-serv-mcp-server-cli" data-dediren-edge-marker-end="open_arrow" markerWidth="10" markerHeight="10" refX="9" refY="5" orient="auto"><path d="M 1 1 L 9 5 L 1 9" fill="none" stroke="#7A6B4E" stroke-width="1.5"/></marker><path d="M 1853.0 1148.0 L 1853.0 1188.0 Q 1853.0 1196.0 1845.0 1196.0 L 1776.0 1196.0 Q 1768.0 1196.0 1768.0 1204.0 L 1768.0 1244.0" fill="none" stroke="#7A6B4E" stroke-width="1.4" stroke-linecap="round" stroke-linejoin="round" marker-end="url(#marker-end-serv-mcp-server-cli)"/></g><g data-dediren-edge-id="serv-cli-dist-tool"><marker id="marker-end-serv-cli-dist-tool" data-dediren-edge-marker-end="open_arrow" markerWidth="10" markerHeight="10" refX="9" refY="5" orient="auto"><path d="M 1 1 L 9 5 L 1 9" fill="none" stroke="#7A6B4E" stroke-width="1.5"/></marker><path d="M 1746.0 1326.0 L 1746.0 1398.0" fill="none" stroke="#7A6B4E" stroke-width="1.4" stroke-linecap="round" stroke-linejoin="round" marker-end="url(#marker-end-serv-cli-dist-tool)"/></g><g data-dediren-node-id="contracts"><rect data-dediren-node-shape="archimate_rectangle" x="789.0" y="44.0" width="160.0" height="80.0" rx="0" fill="#17110A" stroke="#54D98A" stroke-width="1.5"/><g data-dediren-node-decorator="archimate_application_component" data-dediren-icon-kind="component" data-dediren-icon-size="22"><rect x="925.0" y="53.0" width="18.0" height="15.8" rx="1.5" fill="#17110A" stroke="#54D98A" stroke-width="1.5"/><rect x="921.0" y="55.6" width="7.9" height="5.7" rx="1.2" fill="#17110A" stroke="#54D98A" stroke-width="1.5"/><rect x="921.0" y="62.7" width="7.9" height="5.7" rx="1.2" fill="#17110A" stroke="#54D98A" stroke-width="1.5"/></g><text x="869.0" y="99.5" text-anchor="middle" dominant-baseline="middle" fill="#54D98A" font-size="13.0" textLength="52.7" lengthAdjust="spacing">contracts</text></g><g data-dediren-node-id="ir"><rect data-dediren-node-shape="archimate_rectangle" x="1047.0" y="197.0" width="160.0" height="80.0" rx="0" fill="#17110A" stroke="#F2A93B" stroke-width="1.5"/><g data-dediren-node-decorator="archimate_application_component" data-dediren-icon-kind="component" data-dediren-icon-size="22"><rect x="1183.0" y="206.0" width="18.0" height="15.8" rx="1.5" fill="#17110A" stroke="#F2A93B" stroke-width="1.5"/><rect x="1179.0" y="208.6" width="7.9" height="5.7" rx="1.2" fill="#17110A" stroke="#F2A93B" stroke-width="1.5"/><rect x="1179.0" y="215.7" width="7.9" height="5.7" rx="1.2" fill="#17110A" stroke="#F2A93B" stroke-width="1.5"/></g><text x="1127.0" y="252.5" text-anchor="middle" dominant-baseline="middle" fill="#ECDFC7" font-size="13.0" textLength="7.2" lengthAdjust="spacing">ir</text></g><g data-dediren-node-id="archimate"><rect data-dediren-node-shape="archimate_rectangle" x="583.0" y="487.0" width="160.0" height="80.0" rx="0" fill="#17110A" stroke="#F2A93B" stroke-width="1.5"/><g data-dediren-node-decorator="archimate_application_component" data-dediren-icon-kind="component" data-dediren-icon-size="22"><rect x="719.0" y="496.0" width="18.0" height="15.8" rx="1.5" fill="#17110A" stroke="#F2A93B" stroke-width="1.5"/><rect x="715.0" y="498.6" width="7.9" height="5.7" rx="1.2" fill="#17110A" stroke="#F2A93B" stroke-width="1.5"/><rect x="715.0" y="505.7" width="7.9" height="5.7" rx="1.2" fill="#17110A" stroke="#F2A93B" stroke-width="1.5"/></g><text x="663.0" y="542.5" text-anchor="middle" dominant-baseline="middle" fill="#ECDFC7" font-size="13.0" textLength="57.0" lengthAdjust="spacing">archimate</text></g><g data-dediren-node-id="uml"><rect data-dediren-node-shape="archimate_rectangle" x="815.0" y="487.0" width="160.0" height="80.0" rx="0" fill="#17110A" stroke="#F2A93B" stroke-width="1.5"/><g data-dediren-node-decorator="archimate_application_component" data-dediren-icon-kind="component" data-dediren-icon-size="22"><rect x="951.0" y="496.0" width="18.0" height="15.8" rx="1.5" fill="#17110A" stroke="#F2A93B" stroke-width="1.5"/><rect x="947.0" y="498.6" width="7.9" height="5.7" rx="1.2" fill="#17110A" stroke="#F2A93B" stroke-width="1.5"/><rect x="947.0" y="505.7" width="7.9" height="5.7" rx="1.2" fill="#17110A" stroke="#F2A93B" stroke-width="1.5"/></g><text x="895.0" y="542.5" text-anchor="middle" dominant-baseline="middle" fill="#ECDFC7" font-size="13.0" textLength="20.9" lengthAdjust="spacing">uml</text></g><g data-dediren-node-id="schema-cache"><rect data-dediren-node-shape="archimate_rectangle" x="1279.0" y="487.0" width="180.0" height="80.0" rx="0" fill="#17110A" stroke="#F2A93B" stroke-width="1.5"/><g data-dediren-node-decorator="archimate_application_component" data-dediren-icon-kind="component" data-dediren-icon-size="22"><rect x="1435.0" y="496.0" width="18.0" height="15.8" rx="1.5" fill="#17110A" stroke="#F2A93B" stroke-width="1.5"/><rect x="1431.0" y="498.6" width="7.9" height="5.7" rx="1.2" fill="#17110A" stroke="#F2A93B" stroke-width="1.5"/><rect x="1431.0" y="505.7" width="7.9" height="5.7" rx="1.2" fill="#17110A" stroke="#F2A93B" stroke-width="1.5"/></g><text x="1369.0" y="542.5" text-anchor="middle" dominant-baseline="middle" fill="#ECDFC7" font-size="13.0" textLength="84.5" lengthAdjust="spacing">schema-cache</text></g><g data-dediren-node-id="engine-api"><rect data-dediren-node-shape="archimate_rectangle" x="1047.0" y="487.0" width="160.0" height="80.0" rx="0" fill="#17110A" stroke="#F2A93B" stroke-width="1.5"/><g data-dediren-node-decorator="archimate_application_component" data-dediren-icon-kind="component" data-dediren-icon-size="22"><rect x="1183.0" y="496.0" width="18.0" height="15.8" rx="1.5" fill="#17110A" stroke="#F2A93B" stroke-width="1.5"/><rect x="1179.0" y="498.6" width="7.9" height="5.7" rx="1.2" fill="#17110A" stroke="#F2A93B" stroke-width="1.5"/><rect x="1179.0" y="505.7" width="7.9" height="5.7" rx="1.2" fill="#17110A" stroke="#F2A93B" stroke-width="1.5"/></g><text x="1127.0" y="542.5" text-anchor="middle" dominant-baseline="middle" fill="#ECDFC7" font-size="13.0" textLength="60.6" lengthAdjust="spacing">engine-api</text></g><g data-dediren-node-id="core"><rect data-dediren-node-shape="archimate_rectangle" x="1666.0" y="777.0" width="160.0" height="80.0" rx="0" fill="#17110A" stroke="#F2A93B" stroke-width="1.5"/><g data-dediren-node-decorator="archimate_application_component" data-dediren-icon-kind="component" data-dediren-icon-size="22"><rect x="1802.0" y="786.0" width="18.0" height="15.8" rx="1.5" fill="#17110A" stroke="#F2A93B" stroke-width="1.5"/><rect x="1798.0" y="788.6" width="7.9" height="5.7" rx="1.2" fill="#17110A" stroke="#F2A93B" stroke-width="1.5"/><rect x="1798.0" y="795.7" width="7.9" height="5.7" rx="1.2" fill="#17110A" stroke="#F2A93B" stroke-width="1.5"/></g><text x="1746.0" y="832.5" text-anchor="middle" dominant-baseline="middle" fill="#ECDFC7" font-size="13.0" textLength="25.2" lengthAdjust="spacing">core</text></g><g data-dediren-node-id="semantics-graph"><rect data-dediren-node-shape="archimate_rectangle" x="1898.0" y="777.0" width="200.0" height="80.0" rx="0" fill="#17110A" stroke="#F2A93B" stroke-width="1.5"/><g data-dediren-node-decorator="archimate_application_component" data-dediren-icon-kind="component" data-dediren-icon-size="22"><rect x="2074.0" y="786.0" width="18.0" height="15.8" rx="1.5" fill="#17110A" stroke="#F2A93B" stroke-width="1.5"/><rect x="2070.0" y="788.6" width="7.9" height="5.7" rx="1.2" fill="#17110A" stroke="#F2A93B" stroke-width="1.5"/><rect x="2070.0" y="795.7" width="7.9" height="5.7" rx="1.2" fill="#17110A" stroke="#F2A93B" stroke-width="1.5"/></g><text x="1998.0" y="832.5" text-anchor="middle" dominant-baseline="middle" fill="#ECDFC7" font-size="13.0" textLength="96.0" lengthAdjust="spacing">semantics-graph</text></g><g data-dediren-node-id="semantics-archimate"><rect data-dediren-node-shape="archimate_rectangle" x="508.0" y="777.0" width="240.0" height="80.0" rx="0" fill="#17110A" stroke="#F2A93B" stroke-width="1.5"/><g data-dediren-node-decorator="archimate_application_component" data-dediren-icon-kind="component" data-dediren-icon-size="22"><rect x="724.0" y="786.0" width="18.0" height="15.8" rx="1.5" fill="#17110A" stroke="#F2A93B" stroke-width="1.5"/><rect x="720.0" y="788.6" width="7.9" height="5.7" rx="1.2" fill="#17110A" stroke="#F2A93B" stroke-width="1.5"/><rect x="720.0" y="795.7" width="7.9" height="5.7" rx="1.2" fill="#17110A" stroke="#F2A93B" stroke-width="1.5"/></g><text x="628.0" y="832.5" text-anchor="middle" dominant-baseline="middle" fill="#ECDFC7" font-size="13.0" textLength="119.9" lengthAdjust="spacing">semantics-archimate</text></g><g data-dediren-node-id="semantics-uml"><rect data-dediren-node-shape="archimate_rectangle" x="820.0" y="777.0" width="190.0" height="80.0" rx="0" fill="#17110A" stroke="#F2A93B" stroke-width="1.5"/><g data-dediren-node-decorator="archimate_application_component" data-dediren-icon-kind="component" data-dediren-icon-size="22"><rect x="986.0" y="786.0" width="18.0" height="15.8" rx="1.5" fill="#17110A" stroke="#F2A93B" stroke-width="1.5"/><rect x="982.0" y="788.6" width="7.9" height="5.7" rx="1.2" fill="#17110A" stroke="#F2A93B" stroke-width="1.5"/><rect x="982.0" y="795.7" width="7.9" height="5.7" rx="1.2" fill="#17110A" stroke="#F2A93B" stroke-width="1.5"/></g><text x="915.0" y="832.5" text-anchor="middle" dominant-baseline="middle" fill="#ECDFC7" font-size="13.0" textLength="83.7" lengthAdjust="spacing">semantics-uml</text></g><g data-dediren-node-id="elk-layout"><rect data-dediren-node-shape="archimate_rectangle" x="276.0" y="777.0" width="160.0" height="80.0" rx="0" fill="#17110A" stroke="#F2A93B" stroke-width="1.5"/><g data-dediren-node-decorator="archimate_application_component" data-dediren-icon-kind="component" data-dediren-icon-size="22"><rect x="412.0" y="786.0" width="18.0" height="15.8" rx="1.5" fill="#17110A" stroke="#F2A93B" stroke-width="1.5"/><rect x="408.0" y="788.6" width="7.9" height="5.7" rx="1.2" fill="#17110A" stroke="#F2A93B" stroke-width="1.5"/><rect x="408.0" y="795.7" width="7.9" height="5.7" rx="1.2" fill="#17110A" stroke="#F2A93B" stroke-width="1.5"/></g><text x="356.0" y="832.5" text-anchor="middle" dominant-baseline="middle" fill="#ECDFC7" font-size="13.0" textLength="55.6" lengthAdjust="spacing">elk-layout</text></g><g data-dediren-node-id="render"><rect data-dediren-node-shape="archimate_rectangle" x="44.0" y="777.0" width="160.0" height="80.0" rx="0" fill="#17110A" stroke="#F2A93B" stroke-width="1.5"/><g data-dediren-node-decorator="archimate_application_component" data-dediren-icon-kind="component" data-dediren-icon-size="22"><rect x="180.0" y="786.0" width="18.0" height="15.8" rx="1.5" fill="#17110A" stroke="#F2A93B" stroke-width="1.5"/><rect x="176.0" y="788.6" width="7.9" height="5.7" rx="1.2" fill="#17110A" stroke="#F2A93B" stroke-width="1.5"/><rect x="176.0" y="795.7" width="7.9" height="5.7" rx="1.2" fill="#17110A" stroke="#F2A93B" stroke-width="1.5"/></g><text x="124.0" y="832.5" text-anchor="middle" dominant-baseline="middle" fill="#ECDFC7" font-size="13.0" textLength="37.5" lengthAdjust="spacing">render</text></g><g data-dediren-node-id="archimate-oef-export"><rect data-dediren-node-shape="archimate_rectangle" x="1344.0" y="777.0" width="250.0" height="80.0" rx="0" fill="#17110A" stroke="#F2A93B" stroke-width="1.5"/><g data-dediren-node-decorator="archimate_application_component" data-dediren-icon-kind="component" data-dediren-icon-size="22"><rect x="1570.0" y="786.0" width="18.0" height="15.8" rx="1.5" fill="#17110A" stroke="#F2A93B" stroke-width="1.5"/><rect x="1566.0" y="788.6" width="7.9" height="5.7" rx="1.2" fill="#17110A" stroke="#F2A93B" stroke-width="1.5"/><rect x="1566.0" y="795.7" width="7.9" height="5.7" rx="1.2" fill="#17110A" stroke="#F2A93B" stroke-width="1.5"/></g><text x="1469.0" y="832.5" text-anchor="middle" dominant-baseline="middle" fill="#ECDFC7" font-size="13.0" textLength="119.9" lengthAdjust="spacing">archimate-oef-export</text></g><g data-dediren-node-id="uml-xmi-export"><rect data-dediren-node-shape="archimate_rectangle" x="1082.0" y="777.0" width="190.0" height="80.0" rx="0" fill="#17110A" stroke="#F2A93B" stroke-width="1.5"/><g data-dediren-node-decorator="archimate_application_component" data-dediren-icon-kind="component" data-dediren-icon-size="22"><rect x="1248.0" y="786.0" width="18.0" height="15.8" rx="1.5" fill="#17110A" stroke="#F2A93B" stroke-width="1.5"/><rect x="1244.0" y="788.6" width="7.9" height="5.7" rx="1.2" fill="#17110A" stroke="#F2A93B" stroke-width="1.5"/><rect x="1244.0" y="795.7" width="7.9" height="5.7" rx="1.2" fill="#17110A" stroke="#F2A93B" stroke-width="1.5"/></g><text x="1177.0" y="832.5" text-anchor="middle" dominant-baseline="middle" fill="#ECDFC7" font-size="13.0" textLength="85.9" lengthAdjust="spacing">uml-xmi-export</text></g><g data-dediren-node-id="mcp-server"><rect data-dediren-node-shape="archimate_rectangle" x="1773.0" y="1067.0" width="160.0" height="80.0" rx="0" fill="#17110A" stroke="#F2A93B" stroke-width="1.5"/><g data-dediren-node-decorator="archimate_application_component" data-dediren-icon-kind="component" data-dediren-icon-size="22"><rect x="1909.0" y="1076.0" width="18.0" height="15.8" rx="1.5" fill="#17110A" stroke="#F2A93B" stroke-width="1.5"/><rect x="1905.0" y="1078.6" width="7.9" height="5.7" rx="1.2" fill="#17110A" stroke="#F2A93B" stroke-width="1.5"/><rect x="1905.0" y="1085.7" width="7.9" height="5.7" rx="1.2" fill="#17110A" stroke="#F2A93B" stroke-width="1.5"/></g><text x="1853.0" y="1122.5" text-anchor="middle" dominant-baseline="middle" fill="#ECDFC7" font-size="13.0" textLength="65.0" lengthAdjust="spacing">mcp-server</text></g><g data-dediren-node-id="cli"><rect data-dediren-node-shape="archimate_rectangle" x="1666.0" y="1245.0" width="160.0" height="80.0" rx="0" fill="#17110A" stroke="#F2A93B" stroke-width="1.5"/><g data-dediren-node-decorator="archimate_application_component" data-dediren-icon-kind="component" data-dediren-icon-size="22"><rect x="1802.0" y="1254.0" width="18.0" height="15.8" rx="1.5" fill="#17110A" stroke="#F2A93B" stroke-width="1.5"/><rect x="1798.0" y="1256.6" width="7.9" height="5.7" rx="1.2" fill="#17110A" stroke="#F2A93B" stroke-width="1.5"/><rect x="1798.0" y="1263.7" width="7.9" height="5.7" rx="1.2" fill="#17110A" stroke="#F2A93B" stroke-width="1.5"/></g><text x="1746.0" y="1300.5" text-anchor="middle" dominant-baseline="middle" fill="#ECDFC7" font-size="13.0" textLength="12.2" lengthAdjust="spacing">cli</text></g><g data-dediren-node-id="dist-tool"><rect data-dediren-node-shape="archimate_rectangle" x="1666.0" y="1399.0" width="160.0" height="80.0" rx="0" fill="#17110A" stroke="#F2A93B" stroke-width="1.5"/><g data-dediren-node-decorator="archimate_application_component" data-dediren-icon-kind="component" data-dediren-icon-size="22"><rect x="1802.0" y="1408.0" width="18.0" height="15.8" rx="1.5" fill="#17110A" stroke="#F2A93B" stroke-width="1.5"/><rect x="1798.0" y="1410.6" width="7.9" height="5.7" rx="1.2" fill="#17110A" stroke="#F2A93B" stroke-width="1.5"/><rect x="1798.0" y="1417.7" width="7.9" height="5.7" rx="1.2" fill="#17110A" stroke="#F2A93B" stroke-width="1.5"/></g><text x="1746.0" y="1454.5" text-anchor="middle" dominant-baseline="middle" fill="#ECDFC7" font-size="13.0" textLength="45.5" lengthAdjust="spacing">dist-tool</text></g></g></svg>
