<svg xmlns="http://www.w3.org/2000/svg" role="img" width="2543" height="1541" viewBox="-48.5 -48.5 2543.0 1541.0"><metadata id="dediren-provenance">{"model_schema_version":"model.schema.v1","model_sha256":"32421b4d62998a716de12be2949235d1fda320db22c39a5ecd99655577d54038","view_id":"module-architecture","render_policy_sha256":"6aa4faae10a99accc7d582326f1abe26aa11d4644a164b0bda46cf14d833dc8e","dediren_version":"2026.08.3"}</metadata><title>Dediren module architecture</title><desc>Which modules make up the dediren compiler, and how do they depend on each other?</desc><rect x="-48.5" y="-48.5" width="2543.0" height="1541.0" fill="#0C0A06"/><g font-family="Inter, Arial, sans-serif" font-size="13"><g data-dediren-group-id="grp-tier0"><rect x="766.0" y="-20.0" width="553.0" height="322.0" rx="10" fill="#100B05" stroke="#4A3F2C" stroke-width="1"/><text x="774.0" y="-4.0" fill="#F2A93B" font-size="12">Foundation · contracts + IR spine (tier 0)</text></g><g data-dediren-group-id="grp-tier1"><rect x="53.0" y="312.0" width="1386.0" height="144.0" rx="10" fill="#100B05" stroke="#4A3F2C" stroke-width="1"/><text x="61.0" y="328.0" fill="#F2A93B" font-size="12">Notation &amp; utility cores · engine seam (tier 1)</text></g><g data-dediren-group-id="grp-tier2"><rect x="-20.0" y="810.0" width="2380.0" height="144.0" rx="10" fill="#100B05" stroke="#4A3F2C" stroke-width="1"/><text x="-12.0" y="826.0" fill="#F2A93B" font-size="12">Orchestration &amp; engines (tier 2)</text></g><g data-dediren-group-id="grp-tier3"><rect x="2136.0" y="988.0" width="330.0" height="476.0" rx="10" fill="#100B05" stroke="#4A3F2C" stroke-width="1"/><text x="2144.0" y="1004.0" fill="#F2A93B" font-size="12">Entrypoint &amp; assembly (tier 3)</text></g><g data-dediren-edge-id="serv-contracts-ir"><marker id="marker-end-serv-contracts-ir" data-dediren-edge-marker-end="open_arrow" markerWidth="10" markerHeight="10" refX="9" refY="5" orient="auto"><path d="M 1 1 L 9 5 L 1 9" fill="none" stroke="#7A6B4E" stroke-width="1.5"/></marker><path d="M 901.0 93.0 L 901.0 133.0 Q 901.0 141.0 909.0 141.0 L 1199.0 141.0 Q 1207.0 141.0 1207.0 149.0 L 1207.0 189.0" fill="none" stroke="#7A6B4E" stroke-width="1.4" stroke-linecap="round" stroke-linejoin="round" marker-end="url(#marker-end-serv-contracts-ir)"/></g><g data-dediren-edge-id="serv-contracts-uml"><marker id="marker-end-serv-contracts-uml" data-dediren-edge-marker-end="open_arrow" markerWidth="10" markerHeight="10" refX="9" refY="5" orient="auto"><path d="M 1 1 L 9 5 L 1 9" fill="none" stroke="#7A6B4E" stroke-width="1.5"/></marker><path d="M 855.0 93.0 L 855.0 343.0" fill="none" stroke="#7A6B4E" stroke-width="1.4" stroke-linecap="round" stroke-linejoin="round" marker-end="url(#marker-end-serv-contracts-uml)"/></g><g data-dediren-edge-id="serv-ir-engine-api"><marker id="marker-end-serv-ir-engine-api" data-dediren-edge-marker-end="open_arrow" markerWidth="10" markerHeight="10" refX="9" refY="5" orient="auto"><path d="M 1 1 L 9 5 L 1 9" fill="none" stroke="#7A6B4E" stroke-width="1.5"/></marker><path d="M 1207.0 271.0 L 1207.0 343.0" fill="none" stroke="#7A6B4E" stroke-width="1.4" stroke-linecap="round" stroke-linejoin="round" marker-end="url(#marker-end-serv-ir-engine-api)"/></g><g data-dediren-edge-id="serv-engine-api-core"><marker id="marker-end-serv-engine-api-core" data-dediren-edge-marker-end="open_arrow" markerWidth="10" markerHeight="10" refX="9" refY="5" orient="auto"><path d="M 1 1 L 9 5 L 1 9" fill="none" stroke="#7A6B4E" stroke-width="1.5"/></marker><path d="M 1359.0 425.0 L 1359.0 465.0 Q 1359.0 473.0 1367.0 473.0 L 2240.0 473.0 Q 2248.0 473.0 2248.0 481.0 L 2248.0 841.0" fill="none" stroke="#7A6B4E" stroke-width="1.4" stroke-linecap="round" stroke-linejoin="round" marker-end="url(#marker-end-serv-engine-api-core)"/></g><g data-dediren-edge-id="serv-engine-api-mermaid-import"><marker id="marker-end-serv-engine-api-mermaid-import" data-dediren-edge-marker-end="open_arrow" markerWidth="10" markerHeight="10" refX="9" refY="5" orient="auto"><path d="M 1 1 L 9 5 L 1 9" fill="none" stroke="#7A6B4E" stroke-width="1.5"/></marker><path d="M 1321.0 425.0 L 1321.0 505.0 Q 1321.0 513.0 1329.0 513.0 L 1993.0 513.0 Q 2001.0 513.0 2001.0 521.0 L 2001.0 841.0" fill="none" stroke="#7A6B4E" stroke-width="1.4" stroke-linecap="round" stroke-linejoin="round" marker-end="url(#marker-end-serv-engine-api-mermaid-import)"/></g><g data-dediren-edge-id="serv-engine-api-semantics-graph"><marker id="marker-end-serv-engine-api-semantics-graph" data-dediren-edge-marker-end="open_arrow" markerWidth="10" markerHeight="10" refX="9" refY="5" orient="auto"><path d="M 1 1 L 9 5 L 1 9" fill="none" stroke="#7A6B4E" stroke-width="1.5"/></marker><path d="M 1283.0 425.0 L 1283.0 545.0 Q 1283.0 553.0 1291.0 553.0 L 1726.0 553.0 Q 1734.0 553.0 1734.0 561.0 L 1734.0 841.0" fill="none" stroke="#7A6B4E" stroke-width="1.4" stroke-linecap="round" stroke-linejoin="round" marker-end="url(#marker-end-serv-engine-api-semantics-graph)"/></g><g data-dediren-edge-id="serv-engine-api-semantics-archimate"><marker id="marker-end-serv-engine-api-semantics-archimate" data-dediren-edge-marker-end="open_arrow" markerWidth="10" markerHeight="10" refX="9" refY="5" orient="auto"><path d="M 1 1 L 9 5 L 1 9" fill="none" stroke="#7A6B4E" stroke-width="1.5"/></marker><path d="M 1245.0 425.0 L 1245.0 785.0 Q 1245.0 793.0 1237.0 793.0 L 920.0 793.0 Q 912.0 793.0 912.0 801.0 L 912.0 841.0" fill="none" stroke="#7A6B4E" stroke-width="1.4" stroke-linecap="round" stroke-linejoin="round" marker-end="url(#marker-end-serv-engine-api-semantics-archimate)"/></g><g data-dediren-edge-id="serv-engine-api-semantics-uml"><marker id="marker-end-serv-engine-api-semantics-uml" data-dediren-edge-marker-end="open_arrow" markerWidth="10" markerHeight="10" refX="9" refY="5" orient="auto"><path d="M 1 1 L 9 5 L 1 9" fill="none" stroke="#7A6B4E" stroke-width="1.5"/></marker><g data-dediren-line-jump-masks="serv-engine-api-semantics-uml"><path d="M 1207.0 787.0 Q 1213.0 793.0 1207.0 799.0" fill="none" stroke="#0C0A06" stroke-width="6"/></g><path d="M 1207.0 425.0 L 1207.0 787.0 Q 1213.0 793.0 1207.0 799.0 L 1207.0 841.0" fill="none" stroke="#7A6B4E" stroke-width="1.4" stroke-linecap="round" stroke-linejoin="round" marker-end="url(#marker-end-serv-engine-api-semantics-uml)"/></g><g data-dediren-edge-id="serv-engine-api-elk-layout"><marker id="marker-end-serv-engine-api-elk-layout" data-dediren-edge-marker-end="open_arrow" markerWidth="10" markerHeight="10" refX="9" refY="5" orient="auto"><path d="M 1 1 L 9 5 L 1 9" fill="none" stroke="#7A6B4E" stroke-width="1.5"/></marker><g data-dediren-line-jump-masks="serv-engine-api-elk-layout"><path d="M 1239.0 593.0 Q 1245.0 587.0 1251.0 593.0" fill="none" stroke="#0C0A06" stroke-width="6"/><path d="M 1201.0 593.0 Q 1207.0 587.0 1213.0 593.0" fill="none" stroke="#0C0A06" stroke-width="6"/></g><path d="M 1169.0 425.0 L 1169.0 585.0 Q 1169.0 593.0 1177.0 593.0 L 1201.0 593.0 Q 1207.0 587.0 1213.0 593.0 L 1239.0 593.0 Q 1245.0 587.0 1251.0 593.0 L 1474.0 593.0 Q 1482.0 593.0 1482.0 601.0 L 1482.0 841.0" fill="none" stroke="#7A6B4E" stroke-width="1.4" stroke-linecap="round" stroke-linejoin="round" marker-end="url(#marker-end-serv-engine-api-elk-layout)"/></g><g data-dediren-edge-id="serv-engine-api-render"><marker id="marker-end-serv-engine-api-render" data-dediren-edge-marker-end="open_arrow" markerWidth="10" markerHeight="10" refX="9" refY="5" orient="auto"><path d="M 1 1 L 9 5 L 1 9" fill="none" stroke="#7A6B4E" stroke-width="1.5"/></marker><path d="M 1131.0 425.0 L 1131.0 745.0 Q 1131.0 753.0 1123.0 753.0 L 649.0 753.0 Q 641.0 753.0 641.0 761.0 L 641.0 841.0" fill="none" stroke="#7A6B4E" stroke-width="1.4" stroke-linecap="round" stroke-linejoin="round" marker-end="url(#marker-end-serv-engine-api-render)"/></g><g data-dediren-edge-id="serv-engine-api-archimate-oef-export"><marker id="marker-end-serv-engine-api-archimate-oef-export" data-dediren-edge-marker-end="open_arrow" markerWidth="10" markerHeight="10" refX="9" refY="5" orient="auto"><path d="M 1 1 L 9 5 L 1 9" fill="none" stroke="#7A6B4E" stroke-width="1.5"/></marker><path d="M 1093.0 425.0 L 1093.0 545.0 Q 1093.0 553.0 1085.0 553.0 L 350.0 553.0 Q 342.0 553.0 342.0 561.0 L 342.0 841.0" fill="none" stroke="#7A6B4E" stroke-width="1.4" stroke-linecap="round" stroke-linejoin="round" marker-end="url(#marker-end-serv-engine-api-archimate-oef-export)"/></g><g data-dediren-edge-id="serv-engine-api-uml-xmi-export"><marker id="marker-end-serv-engine-api-uml-xmi-export" data-dediren-edge-marker-end="open_arrow" markerWidth="10" markerHeight="10" refX="9" refY="5" orient="auto"><path d="M 1 1 L 9 5 L 1 9" fill="none" stroke="#7A6B4E" stroke-width="1.5"/></marker><path d="M 1055.0 425.0 L 1055.0 505.0 Q 1055.0 513.0 1047.0 513.0 L 73.0 513.0 Q 65.0 513.0 65.0 521.0 L 65.0 841.0" fill="none" stroke="#7A6B4E" stroke-width="1.4" stroke-linecap="round" stroke-linejoin="round" marker-end="url(#marker-end-serv-engine-api-uml-xmi-export)"/></g><g data-dediren-edge-id="serv-archimate-semantics-archimate"><marker id="marker-end-serv-archimate-semantics-archimate" data-dediren-edge-marker-end="open_arrow" markerWidth="10" markerHeight="10" refX="9" refY="5" orient="auto"><path d="M 1 1 L 9 5 L 1 9" fill="none" stroke="#7A6B4E" stroke-width="1.5"/></marker><g data-dediren-line-jump-masks="serv-archimate-semantics-archimate"><path d="M 658.0 547.0 Q 664.0 553.0 658.0 559.0" fill="none" stroke="#0C0A06" stroke-width="6"/><path d="M 658.0 507.0 Q 664.0 513.0 658.0 519.0" fill="none" stroke="#0C0A06" stroke-width="6"/><path d="M 985.0 787.0 Q 991.0 793.0 985.0 799.0" fill="none" stroke="#0C0A06" stroke-width="6"/><path d="M 985.0 747.0 Q 991.0 753.0 985.0 759.0" fill="none" stroke="#0C0A06" stroke-width="6"/></g><path d="M 658.0 425.0 L 658.0 507.0 Q 664.0 513.0 658.0 519.0 L 658.0 547.0 Q 664.0 553.0 658.0 559.0 L 658.0 665.0 Q 658.0 673.0 666.0 673.0 L 977.0 673.0 Q 985.0 673.0 985.0 681.0 L 985.0 747.0 Q 991.0 753.0 985.0 759.0 L 985.0 787.0 Q 991.0 793.0 985.0 799.0 L 985.0 841.0" fill="none" stroke="#7A6B4E" stroke-width="1.4" stroke-linecap="round" stroke-linejoin="round" marker-end="url(#marker-end-serv-archimate-semantics-archimate)"/></g><g data-dediren-edge-id="serv-archimate-render"><marker id="marker-end-serv-archimate-render" data-dediren-edge-marker-end="open_arrow" markerWidth="10" markerHeight="10" refX="9" refY="5" orient="auto"><path d="M 1 1 L 9 5 L 1 9" fill="none" stroke="#7A6B4E" stroke-width="1.5"/></marker><g data-dediren-line-jump-masks="serv-archimate-render"><path d="M 623.0 547.0 Q 629.0 553.0 623.0 559.0" fill="none" stroke="#0C0A06" stroke-width="6"/><path d="M 623.0 507.0 Q 629.0 513.0 623.0 519.0" fill="none" stroke="#0C0A06" stroke-width="6"/><path d="M 676.0 747.0 Q 682.0 753.0 676.0 759.0" fill="none" stroke="#0C0A06" stroke-width="6"/></g><path d="M 623.0 425.0 L 623.0 507.0 Q 629.0 513.0 623.0 519.0 L 623.0 547.0 Q 629.0 553.0 623.0 559.0 L 623.0 705.0 Q 623.0 713.0 631.0 713.0 L 668.0 713.0 Q 676.0 713.0 676.0 721.0 L 676.0 747.0 Q 682.0 753.0 676.0 759.0 L 676.0 841.0" fill="none" stroke="#7A6B4E" stroke-width="1.4" stroke-linecap="round" stroke-linejoin="round" marker-end="url(#marker-end-serv-archimate-render)"/></g><g data-dediren-edge-id="serv-archimate-archimate-oef-export"><marker id="marker-end-serv-archimate-archimate-oef-export" data-dediren-edge-marker-end="open_arrow" markerWidth="10" markerHeight="10" refX="9" refY="5" orient="auto"><path d="M 1 1 L 9 5 L 1 9" fill="none" stroke="#7A6B4E" stroke-width="1.5"/></marker><g data-dediren-line-jump-masks="serv-archimate-archimate-oef-export"><path d="M 588.0 547.0 Q 594.0 553.0 588.0 559.0" fill="none" stroke="#0C0A06" stroke-width="6"/><path d="M 588.0 507.0 Q 594.0 513.0 588.0 519.0" fill="none" stroke="#0C0A06" stroke-width="6"/></g><path d="M 588.0 425.0 L 588.0 507.0 Q 594.0 513.0 588.0 519.0 L 588.0 547.0 Q 594.0 553.0 588.0 559.0 L 588.0 585.0 Q 588.0 593.0 580.0 593.0 L 407.0 593.0 Q 399.0 593.0 399.0 601.0 L 399.0 841.0" fill="none" stroke="#7A6B4E" stroke-width="1.4" stroke-linecap="round" stroke-linejoin="round" marker-end="url(#marker-end-serv-archimate-archimate-oef-export)"/></g><g data-dediren-edge-id="serv-uml-semantics-uml"><marker id="marker-end-serv-uml-semantics-uml" data-dediren-edge-marker-end="open_arrow" markerWidth="10" markerHeight="10" refX="9" refY="5" orient="auto"><path d="M 1 1 L 9 5 L 1 9" fill="none" stroke="#7A6B4E" stroke-width="1.5"/></marker><g data-dediren-line-jump-masks="serv-uml-semantics-uml"><path d="M 890.0 547.0 Q 896.0 553.0 890.0 559.0" fill="none" stroke="#0C0A06" stroke-width="6"/><path d="M 890.0 507.0 Q 896.0 513.0 890.0 519.0" fill="none" stroke="#0C0A06" stroke-width="6"/><path d="M 1239.0 633.0 Q 1245.0 627.0 1251.0 633.0" fill="none" stroke="#0C0A06" stroke-width="6"/><path d="M 1201.0 633.0 Q 1207.0 627.0 1213.0 633.0" fill="none" stroke="#0C0A06" stroke-width="6"/><path d="M 1125.0 633.0 Q 1131.0 627.0 1137.0 633.0" fill="none" stroke="#0C0A06" stroke-width="6"/></g><path d="M 890.0 425.0 L 890.0 507.0 Q 896.0 513.0 890.0 519.0 L 890.0 547.0 Q 896.0 553.0 890.0 559.0 L 890.0 625.0 Q 890.0 633.0 898.0 633.0 L 1125.0 633.0 Q 1131.0 627.0 1137.0 633.0 L 1201.0 633.0 Q 1207.0 627.0 1213.0 633.0 L 1239.0 633.0 Q 1245.0 627.0 1251.0 633.0 L 1255.0 633.0 Q 1263.0 633.0 1263.0 641.0 L 1263.0 841.0" fill="none" stroke="#7A6B4E" stroke-width="1.4" stroke-linecap="round" stroke-linejoin="round" marker-end="url(#marker-end-serv-uml-semantics-uml)"/></g><g data-dediren-edge-id="serv-uml-render"><marker id="marker-end-serv-uml-render" data-dediren-edge-marker-end="open_arrow" markerWidth="10" markerHeight="10" refX="9" refY="5" orient="auto"><path d="M 1 1 L 9 5 L 1 9" fill="none" stroke="#7A6B4E" stroke-width="1.5"/></marker><g data-dediren-line-jump-masks="serv-uml-render"><path d="M 855.0 747.0 Q 861.0 753.0 855.0 759.0" fill="none" stroke="#0C0A06" stroke-width="6"/><path d="M 855.0 547.0 Q 861.0 553.0 855.0 559.0" fill="none" stroke="#0C0A06" stroke-width="6"/><path d="M 855.0 507.0 Q 861.0 513.0 855.0 519.0" fill="none" stroke="#0C0A06" stroke-width="6"/><path d="M 855.0 667.0 Q 861.0 673.0 855.0 679.0" fill="none" stroke="#0C0A06" stroke-width="6"/></g><path d="M 855.0 425.0 L 855.0 507.0 Q 861.0 513.0 855.0 519.0 L 855.0 547.0 Q 861.0 553.0 855.0 559.0 L 855.0 667.0 Q 861.0 673.0 855.0 679.0 L 855.0 747.0 Q 861.0 753.0 855.0 759.0 L 855.0 785.0 Q 855.0 793.0 847.0 793.0 L 719.0 793.0 Q 711.0 793.0 711.0 801.0 L 711.0 841.0" fill="none" stroke="#7A6B4E" stroke-width="1.4" stroke-linecap="round" stroke-linejoin="round" marker-end="url(#marker-end-serv-uml-render)"/></g><g data-dediren-edge-id="serv-uml-uml-xmi-export"><marker id="marker-end-serv-uml-uml-xmi-export" data-dediren-edge-marker-end="open_arrow" markerWidth="10" markerHeight="10" refX="9" refY="5" orient="auto"><path d="M 1 1 L 9 5 L 1 9" fill="none" stroke="#7A6B4E" stroke-width="1.5"/></marker><g data-dediren-line-jump-masks="serv-uml-uml-xmi-export"><path d="M 652.0 473.0 Q 658.0 467.0 664.0 473.0" fill="none" stroke="#0C0A06" stroke-width="6"/><path d="M 617.0 473.0 Q 623.0 467.0 629.0 473.0" fill="none" stroke="#0C0A06" stroke-width="6"/><path d="M 582.0 473.0 Q 588.0 467.0 594.0 473.0" fill="none" stroke="#0C0A06" stroke-width="6"/><path d="M 107.0 507.0 Q 113.0 513.0 107.0 519.0" fill="none" stroke="#0C0A06" stroke-width="6"/></g><path d="M 820.0 425.0 L 820.0 465.0 Q 820.0 473.0 812.0 473.0 L 664.0 473.0 Q 658.0 467.0 652.0 473.0 L 629.0 473.0 Q 623.0 467.0 617.0 473.0 L 594.0 473.0 Q 588.0 467.0 582.0 473.0 L 115.0 473.0 Q 107.0 473.0 107.0 481.0 L 107.0 507.0 Q 113.0 513.0 107.0 519.0 L 107.0 841.0" fill="none" stroke="#7A6B4E" stroke-width="1.4" stroke-linecap="round" stroke-linejoin="round" marker-end="url(#marker-end-serv-uml-uml-xmi-export)"/></g><g data-dediren-edge-id="serv-schema-cache-archimate-oef-export"><marker id="marker-end-serv-schema-cache-archimate-oef-export" data-dediren-edge-marker-end="open_arrow" markerWidth="10" markerHeight="10" refX="9" refY="5" orient="auto"><path d="M 1 1 L 9 5 L 1 9" fill="none" stroke="#7A6B4E" stroke-width="1.5"/></marker><g data-dediren-line-jump-masks="serv-schema-cache-archimate-oef-export"><path d="M 202.0 507.0 Q 208.0 513.0 202.0 519.0" fill="none" stroke="#0C0A06" stroke-width="6"/><path d="M 202.0 467.0 Q 208.0 473.0 202.0 479.0" fill="none" stroke="#0C0A06" stroke-width="6"/><path d="M 336.0 633.0 Q 342.0 627.0 348.0 633.0" fill="none" stroke="#0C0A06" stroke-width="6"/><path d="M 393.0 633.0 Q 399.0 627.0 405.0 633.0" fill="none" stroke="#0C0A06" stroke-width="6"/></g><path d="M 202.0 425.0 L 202.0 467.0 Q 208.0 473.0 202.0 479.0 L 202.0 507.0 Q 208.0 513.0 202.0 519.0 L 202.0 625.0 Q 202.0 633.0 210.0 633.0 L 336.0 633.0 Q 342.0 627.0 348.0 633.0 L 393.0 633.0 Q 399.0 627.0 405.0 633.0 L 448.0 633.0 Q 456.0 633.0 456.0 641.0 L 456.0 841.0" fill="none" stroke="#7A6B4E" stroke-width="1.4" stroke-linecap="round" stroke-linejoin="round" marker-end="url(#marker-end-serv-schema-cache-archimate-oef-export)"/></g><g data-dediren-edge-id="serv-schema-cache-uml-xmi-export"><marker id="marker-end-serv-schema-cache-uml-xmi-export" data-dediren-edge-marker-end="open_arrow" markerWidth="10" markerHeight="10" refX="9" refY="5" orient="auto"><path d="M 1 1 L 9 5 L 1 9" fill="none" stroke="#7A6B4E" stroke-width="1.5"/></marker><g data-dediren-line-jump-masks="serv-schema-cache-uml-xmi-export"><path d="M 149.0 507.0 Q 155.0 513.0 149.0 519.0" fill="none" stroke="#0C0A06" stroke-width="6"/><path d="M 149.0 467.0 Q 155.0 473.0 149.0 479.0" fill="none" stroke="#0C0A06" stroke-width="6"/></g><path d="M 149.0 425.0 L 149.0 467.0 Q 155.0 473.0 149.0 479.0 L 149.0 507.0 Q 155.0 513.0 149.0 519.0 L 149.0 841.0" fill="none" stroke="#7A6B4E" stroke-width="1.4" stroke-linecap="round" stroke-linejoin="round" marker-end="url(#marker-end-serv-schema-cache-uml-xmi-export)"/></g><g data-dediren-edge-id="serv-core-mcp-server"><marker id="marker-end-serv-core-mcp-server" data-dediren-edge-marker-end="open_arrow" markerWidth="10" markerHeight="10" refX="9" refY="5" orient="auto"><path d="M 1 1 L 9 5 L 1 9" fill="none" stroke="#7A6B4E" stroke-width="1.5"/></marker><path d="M 2271.0 923.0 L 2271.0 963.0 Q 2271.0 971.0 2279.0 971.0 L 2346.0 971.0 Q 2354.0 971.0 2354.0 979.0 L 2354.0 1019.0" fill="none" stroke="#7A6B4E" stroke-width="1.4" stroke-linecap="round" stroke-linejoin="round" marker-end="url(#marker-end-serv-core-mcp-server)"/></g><g data-dediren-edge-id="serv-core-cli"><marker id="marker-end-serv-core-cli" data-dediren-edge-marker-end="open_arrow" markerWidth="10" markerHeight="10" refX="9" refY="5" orient="auto"><path d="M 1 1 L 9 5 L 1 9" fill="none" stroke="#7A6B4E" stroke-width="1.5"/></marker><path d="M 2225.0 923.0 L 2225.0 1197.0" fill="none" stroke="#7A6B4E" stroke-width="1.4" stroke-linecap="round" stroke-linejoin="round" marker-end="url(#marker-end-serv-core-cli)"/></g><g data-dediren-edge-id="serv-mcp-server-cli"><marker id="marker-end-serv-mcp-server-cli" data-dediren-edge-marker-end="open_arrow" markerWidth="10" markerHeight="10" refX="9" refY="5" orient="auto"><path d="M 1 1 L 9 5 L 1 9" fill="none" stroke="#7A6B4E" stroke-width="1.5"/></marker><path d="M 2354.0 1101.0 L 2354.0 1141.0 Q 2354.0 1149.0 2346.0 1149.0 L 2279.0 1149.0 Q 2271.0 1149.0 2271.0 1157.0 L 2271.0 1197.0" fill="none" stroke="#7A6B4E" stroke-width="1.4" stroke-linecap="round" stroke-linejoin="round" marker-end="url(#marker-end-serv-mcp-server-cli)"/></g><g data-dediren-edge-id="serv-cli-dist-tool"><marker id="marker-end-serv-cli-dist-tool" data-dediren-edge-marker-end="open_arrow" markerWidth="10" markerHeight="10" refX="9" refY="5" orient="auto"><path d="M 1 1 L 9 5 L 1 9" fill="none" stroke="#7A6B4E" stroke-width="1.5"/></marker><path d="M 2248.0 1279.0 L 2248.0 1351.0" fill="none" stroke="#7A6B4E" stroke-width="1.4" stroke-linecap="round" stroke-linejoin="round" marker-end="url(#marker-end-serv-cli-dist-tool)"/></g><g data-dediren-node-id="contracts"><rect data-dediren-node-shape="archimate_rectangle" x="798.0" y="12.0" width="160.0" height="80.0" rx="0" fill="#17110A" stroke="#54D98A" stroke-width="1.5"/><g data-dediren-node-decorator="archimate_application_component" data-dediren-icon-kind="component" data-dediren-icon-size="22"><rect x="934.0" y="21.0" width="18.0" height="15.8" rx="1.5" fill="#17110A" stroke="#54D98A" stroke-width="1.5"/><rect x="930.0" y="23.6" width="7.9" height="5.7" rx="1.2" fill="#17110A" stroke="#54D98A" stroke-width="1.5"/><rect x="930.0" y="30.7" width="7.9" height="5.7" rx="1.2" fill="#17110A" stroke="#54D98A" stroke-width="1.5"/></g><text x="878.0" y="67.5" text-anchor="middle" dominant-baseline="middle" fill="#54D98A" font-size="13.0" textLength="52.7" lengthAdjust="spacing">contracts</text></g><g data-dediren-node-id="ir"><rect data-dediren-node-shape="archimate_rectangle" x="1127.0" y="190.0" width="160.0" height="80.0" rx="0" fill="#17110A" stroke="#F2A93B" stroke-width="1.5"/><g data-dediren-node-decorator="archimate_application_component" data-dediren-icon-kind="component" data-dediren-icon-size="22"><rect x="1263.0" y="199.0" width="18.0" height="15.8" rx="1.5" fill="#17110A" stroke="#F2A93B" stroke-width="1.5"/><rect x="1259.0" y="201.6" width="7.9" height="5.7" rx="1.2" fill="#17110A" stroke="#F2A93B" stroke-width="1.5"/><rect x="1259.0" y="208.7" width="7.9" height="5.7" rx="1.2" fill="#17110A" stroke="#F2A93B" stroke-width="1.5"/></g><text x="1207.0" y="245.5" text-anchor="middle" dominant-baseline="middle" fill="#ECDFC7" font-size="13.0" textLength="7.2" lengthAdjust="spacing">ir</text></g><g data-dediren-node-id="archimate"><rect data-dediren-node-shape="archimate_rectangle" x="543.0" y="344.0" width="160.0" height="80.0" rx="0" fill="#17110A" stroke="#F2A93B" stroke-width="1.5"/><g data-dediren-node-decorator="archimate_application_component" data-dediren-icon-kind="component" data-dediren-icon-size="22"><rect x="679.0" y="353.0" width="18.0" height="15.8" rx="1.5" fill="#17110A" stroke="#F2A93B" stroke-width="1.5"/><rect x="675.0" y="355.6" width="7.9" height="5.7" rx="1.2" fill="#17110A" stroke="#F2A93B" stroke-width="1.5"/><rect x="675.0" y="362.7" width="7.9" height="5.7" rx="1.2" fill="#17110A" stroke="#F2A93B" stroke-width="1.5"/></g><text x="623.0" y="399.5" text-anchor="middle" dominant-baseline="middle" fill="#ECDFC7" font-size="13.0" textLength="57.0" lengthAdjust="spacing">archimate</text></g><g data-dediren-node-id="uml"><rect data-dediren-node-shape="archimate_rectangle" x="775.0" y="344.0" width="160.0" height="80.0" rx="0" fill="#17110A" stroke="#F2A93B" stroke-width="1.5"/><g data-dediren-node-decorator="archimate_application_component" data-dediren-icon-kind="component" data-dediren-icon-size="22"><rect x="911.0" y="353.0" width="18.0" height="15.8" rx="1.5" fill="#17110A" stroke="#F2A93B" stroke-width="1.5"/><rect x="907.0" y="355.6" width="7.9" height="5.7" rx="1.2" fill="#17110A" stroke="#F2A93B" stroke-width="1.5"/><rect x="907.0" y="362.7" width="7.9" height="5.7" rx="1.2" fill="#17110A" stroke="#F2A93B" stroke-width="1.5"/></g><text x="855.0" y="399.5" text-anchor="middle" dominant-baseline="middle" fill="#ECDFC7" font-size="13.0" textLength="20.9" lengthAdjust="spacing">uml</text></g><g data-dediren-node-id="schema-cache"><rect data-dediren-node-shape="archimate_rectangle" x="85.0" y="344.0" width="180.0" height="80.0" rx="0" fill="#17110A" stroke="#F2A93B" stroke-width="1.5"/><g data-dediren-node-decorator="archimate_application_component" data-dediren-icon-kind="component" data-dediren-icon-size="22"><rect x="241.0" y="353.0" width="18.0" height="15.8" rx="1.5" fill="#17110A" stroke="#F2A93B" stroke-width="1.5"/><rect x="237.0" y="355.6" width="7.9" height="5.7" rx="1.2" fill="#17110A" stroke="#F2A93B" stroke-width="1.5"/><rect x="237.0" y="362.7" width="7.9" height="5.7" rx="1.2" fill="#17110A" stroke="#F2A93B" stroke-width="1.5"/></g><text x="175.0" y="399.5" text-anchor="middle" dominant-baseline="middle" fill="#ECDFC7" font-size="13.0" textLength="84.5" lengthAdjust="spacing">schema-cache</text></g><g data-dediren-node-id="engine-api"><rect data-dediren-node-shape="archimate_rectangle" x="1007.0" y="344.0" width="400.0" height="80.0" rx="0" fill="#17110A" stroke="#F2A93B" stroke-width="1.5"/><g data-dediren-node-decorator="archimate_application_component" data-dediren-icon-kind="component" data-dediren-icon-size="22"><rect x="1383.0" y="353.0" width="18.0" height="15.8" rx="1.5" fill="#17110A" stroke="#F2A93B" stroke-width="1.5"/><rect x="1379.0" y="355.6" width="7.9" height="5.7" rx="1.2" fill="#17110A" stroke="#F2A93B" stroke-width="1.5"/><rect x="1379.0" y="362.7" width="7.9" height="5.7" rx="1.2" fill="#17110A" stroke="#F2A93B" stroke-width="1.5"/></g><text x="1207.0" y="399.5" text-anchor="middle" dominant-baseline="middle" fill="#ECDFC7" font-size="13.0" textLength="60.6" lengthAdjust="spacing">engine-api</text></g><g data-dediren-node-id="core"><rect data-dediren-node-shape="archimate_rectangle" x="2168.0" y="842.0" width="160.0" height="80.0" rx="0" fill="#17110A" stroke="#F2A93B" stroke-width="1.5"/><g data-dediren-node-decorator="archimate_application_component" data-dediren-icon-kind="component" data-dediren-icon-size="22"><rect x="2304.0" y="851.0" width="18.0" height="15.8" rx="1.5" fill="#17110A" stroke="#F2A93B" stroke-width="1.5"/><rect x="2300.0" y="853.6" width="7.9" height="5.7" rx="1.2" fill="#17110A" stroke="#F2A93B" stroke-width="1.5"/><rect x="2300.0" y="860.7" width="7.9" height="5.7" rx="1.2" fill="#17110A" stroke="#F2A93B" stroke-width="1.5"/></g><text x="2248.0" y="897.5" text-anchor="middle" dominant-baseline="middle" fill="#ECDFC7" font-size="13.0" textLength="25.2" lengthAdjust="spacing">core</text></g><g data-dediren-node-id="mermaid-import"><rect data-dediren-node-shape="archimate_rectangle" x="1906.0" y="842.0" width="190.0" height="80.0" rx="0" fill="#17110A" stroke="#F2A93B" stroke-width="1.5"/><g data-dediren-node-decorator="archimate_application_component" data-dediren-icon-kind="component" data-dediren-icon-size="22"><rect x="2072.0" y="851.0" width="18.0" height="15.8" rx="1.5" fill="#17110A" stroke="#F2A93B" stroke-width="1.5"/><rect x="2068.0" y="853.6" width="7.9" height="5.7" rx="1.2" fill="#17110A" stroke="#F2A93B" stroke-width="1.5"/><rect x="2068.0" y="860.7" width="7.9" height="5.7" rx="1.2" fill="#17110A" stroke="#F2A93B" stroke-width="1.5"/></g><text x="2001.0" y="897.5" text-anchor="middle" dominant-baseline="middle" fill="#ECDFC7" font-size="13.0" textLength="91.0" lengthAdjust="spacing">mermaid-import</text></g><g data-dediren-node-id="semantics-graph"><rect data-dediren-node-shape="archimate_rectangle" x="1634.0" y="842.0" width="200.0" height="80.0" rx="0" fill="#17110A" stroke="#F2A93B" stroke-width="1.5"/><g data-dediren-node-decorator="archimate_application_component" data-dediren-icon-kind="component" data-dediren-icon-size="22"><rect x="1810.0" y="851.0" width="18.0" height="15.8" rx="1.5" fill="#17110A" stroke="#F2A93B" stroke-width="1.5"/><rect x="1806.0" y="853.6" width="7.9" height="5.7" rx="1.2" fill="#17110A" stroke="#F2A93B" stroke-width="1.5"/><rect x="1806.0" y="860.7" width="7.9" height="5.7" rx="1.2" fill="#17110A" stroke="#F2A93B" stroke-width="1.5"/></g><text x="1734.0" y="897.5" text-anchor="middle" dominant-baseline="middle" fill="#ECDFC7" font-size="13.0" textLength="96.0" lengthAdjust="spacing">semantics-graph</text></g><g data-dediren-node-id="semantics-archimate"><rect data-dediren-node-shape="archimate_rectangle" x="828.0" y="842.0" width="240.0" height="80.0" rx="0" fill="#17110A" stroke="#F2A93B" stroke-width="1.5"/><g data-dediren-node-decorator="archimate_application_component" data-dediren-icon-kind="component" data-dediren-icon-size="22"><rect x="1044.0" y="851.0" width="18.0" height="15.8" rx="1.5" fill="#17110A" stroke="#F2A93B" stroke-width="1.5"/><rect x="1040.0" y="853.6" width="7.9" height="5.7" rx="1.2" fill="#17110A" stroke="#F2A93B" stroke-width="1.5"/><rect x="1040.0" y="860.7" width="7.9" height="5.7" rx="1.2" fill="#17110A" stroke="#F2A93B" stroke-width="1.5"/></g><text x="948.0" y="897.5" text-anchor="middle" dominant-baseline="middle" fill="#ECDFC7" font-size="13.0" textLength="119.9" lengthAdjust="spacing">semantics-archimate</text></g><g data-dediren-node-id="semantics-uml"><rect data-dediren-node-shape="archimate_rectangle" x="1140.0" y="842.0" width="190.0" height="80.0" rx="0" fill="#17110A" stroke="#F2A93B" stroke-width="1.5"/><g data-dediren-node-decorator="archimate_application_component" data-dediren-icon-kind="component" data-dediren-icon-size="22"><rect x="1306.0" y="851.0" width="18.0" height="15.8" rx="1.5" fill="#17110A" stroke="#F2A93B" stroke-width="1.5"/><rect x="1302.0" y="853.6" width="7.9" height="5.7" rx="1.2" fill="#17110A" stroke="#F2A93B" stroke-width="1.5"/><rect x="1302.0" y="860.7" width="7.9" height="5.7" rx="1.2" fill="#17110A" stroke="#F2A93B" stroke-width="1.5"/></g><text x="1235.0" y="897.5" text-anchor="middle" dominant-baseline="middle" fill="#ECDFC7" font-size="13.0" textLength="83.7" lengthAdjust="spacing">semantics-uml</text></g><g data-dediren-node-id="elk-layout"><rect data-dediren-node-shape="archimate_rectangle" x="1402.0" y="842.0" width="160.0" height="80.0" rx="0" fill="#17110A" stroke="#F2A93B" stroke-width="1.5"/><g data-dediren-node-decorator="archimate_application_component" data-dediren-icon-kind="component" data-dediren-icon-size="22"><rect x="1538.0" y="851.0" width="18.0" height="15.8" rx="1.5" fill="#17110A" stroke="#F2A93B" stroke-width="1.5"/><rect x="1534.0" y="853.6" width="7.9" height="5.7" rx="1.2" fill="#17110A" stroke="#F2A93B" stroke-width="1.5"/><rect x="1534.0" y="860.7" width="7.9" height="5.7" rx="1.2" fill="#17110A" stroke="#F2A93B" stroke-width="1.5"/></g><text x="1482.0" y="897.5" text-anchor="middle" dominant-baseline="middle" fill="#ECDFC7" font-size="13.0" textLength="55.6" lengthAdjust="spacing">elk-layout</text></g><g data-dediren-node-id="render"><rect data-dediren-node-shape="archimate_rectangle" x="596.0" y="842.0" width="160.0" height="80.0" rx="0" fill="#17110A" stroke="#F2A93B" stroke-width="1.5"/><g data-dediren-node-decorator="archimate_application_component" data-dediren-icon-kind="component" data-dediren-icon-size="22"><rect x="732.0" y="851.0" width="18.0" height="15.8" rx="1.5" fill="#17110A" stroke="#F2A93B" stroke-width="1.5"/><rect x="728.0" y="853.6" width="7.9" height="5.7" rx="1.2" fill="#17110A" stroke="#F2A93B" stroke-width="1.5"/><rect x="728.0" y="860.7" width="7.9" height="5.7" rx="1.2" fill="#17110A" stroke="#F2A93B" stroke-width="1.5"/></g><text x="676.0" y="897.5" text-anchor="middle" dominant-baseline="middle" fill="#ECDFC7" font-size="13.0" textLength="37.5" lengthAdjust="spacing">render</text></g><g data-dediren-node-id="archimate-oef-export"><rect data-dediren-node-shape="archimate_rectangle" x="274.0" y="842.0" width="250.0" height="80.0" rx="0" fill="#17110A" stroke="#F2A93B" stroke-width="1.5"/><g data-dediren-node-decorator="archimate_application_component" data-dediren-icon-kind="component" data-dediren-icon-size="22"><rect x="500.0" y="851.0" width="18.0" height="15.8" rx="1.5" fill="#17110A" stroke="#F2A93B" stroke-width="1.5"/><rect x="496.0" y="853.6" width="7.9" height="5.7" rx="1.2" fill="#17110A" stroke="#F2A93B" stroke-width="1.5"/><rect x="496.0" y="860.7" width="7.9" height="5.7" rx="1.2" fill="#17110A" stroke="#F2A93B" stroke-width="1.5"/></g><text x="399.0" y="897.5" text-anchor="middle" dominant-baseline="middle" fill="#ECDFC7" font-size="13.0" textLength="119.9" lengthAdjust="spacing">archimate-oef-export</text></g><g data-dediren-node-id="uml-xmi-export"><rect data-dediren-node-shape="archimate_rectangle" x="12.0" y="842.0" width="190.0" height="80.0" rx="0" fill="#17110A" stroke="#F2A93B" stroke-width="1.5"/><g data-dediren-node-decorator="archimate_application_component" data-dediren-icon-kind="component" data-dediren-icon-size="22"><rect x="178.0" y="851.0" width="18.0" height="15.8" rx="1.5" fill="#17110A" stroke="#F2A93B" stroke-width="1.5"/><rect x="174.0" y="853.6" width="7.9" height="5.7" rx="1.2" fill="#17110A" stroke="#F2A93B" stroke-width="1.5"/><rect x="174.0" y="860.7" width="7.9" height="5.7" rx="1.2" fill="#17110A" stroke="#F2A93B" stroke-width="1.5"/></g><text x="107.0" y="897.5" text-anchor="middle" dominant-baseline="middle" fill="#ECDFC7" font-size="13.0" textLength="85.9" lengthAdjust="spacing">uml-xmi-export</text></g><g data-dediren-node-id="mcp-server"><rect data-dediren-node-shape="archimate_rectangle" x="2274.0" y="1020.0" width="160.0" height="80.0" rx="0" fill="#17110A" stroke="#F2A93B" stroke-width="1.5"/><g data-dediren-node-decorator="archimate_application_component" data-dediren-icon-kind="component" data-dediren-icon-size="22"><rect x="2410.0" y="1029.0" width="18.0" height="15.8" rx="1.5" fill="#17110A" stroke="#F2A93B" stroke-width="1.5"/><rect x="2406.0" y="1031.6" width="7.9" height="5.7" rx="1.2" fill="#17110A" stroke="#F2A93B" stroke-width="1.5"/><rect x="2406.0" y="1038.7" width="7.9" height="5.7" rx="1.2" fill="#17110A" stroke="#F2A93B" stroke-width="1.5"/></g><text x="2354.0" y="1075.5" text-anchor="middle" dominant-baseline="middle" fill="#ECDFC7" font-size="13.0" textLength="65.0" lengthAdjust="spacing">mcp-server</text></g><g data-dediren-node-id="cli"><rect data-dediren-node-shape="archimate_rectangle" x="2168.0" y="1198.0" width="160.0" height="80.0" rx="0" fill="#17110A" stroke="#F2A93B" stroke-width="1.5"/><g data-dediren-node-decorator="archimate_application_component" data-dediren-icon-kind="component" data-dediren-icon-size="22"><rect x="2304.0" y="1207.0" width="18.0" height="15.8" rx="1.5" fill="#17110A" stroke="#F2A93B" stroke-width="1.5"/><rect x="2300.0" y="1209.6" width="7.9" height="5.7" rx="1.2" fill="#17110A" stroke="#F2A93B" stroke-width="1.5"/><rect x="2300.0" y="1216.7" width="7.9" height="5.7" rx="1.2" fill="#17110A" stroke="#F2A93B" stroke-width="1.5"/></g><text x="2248.0" y="1253.5" text-anchor="middle" dominant-baseline="middle" fill="#ECDFC7" font-size="13.0" textLength="12.2" lengthAdjust="spacing">cli</text></g><g data-dediren-node-id="dist-tool"><rect data-dediren-node-shape="archimate_rectangle" x="2168.0" y="1352.0" width="160.0" height="80.0" rx="0" fill="#17110A" stroke="#F2A93B" stroke-width="1.5"/><g data-dediren-node-decorator="archimate_application_component" data-dediren-icon-kind="component" data-dediren-icon-size="22"><rect x="2304.0" y="1361.0" width="18.0" height="15.8" rx="1.5" fill="#17110A" stroke="#F2A93B" stroke-width="1.5"/><rect x="2300.0" y="1363.6" width="7.9" height="5.7" rx="1.2" fill="#17110A" stroke="#F2A93B" stroke-width="1.5"/><rect x="2300.0" y="1370.7" width="7.9" height="5.7" rx="1.2" fill="#17110A" stroke="#F2A93B" stroke-width="1.5"/></g><text x="2248.0" y="1407.5" text-anchor="middle" dominant-baseline="middle" fill="#ECDFC7" font-size="13.0" textLength="45.5" lengthAdjust="spacing">dist-tool</text></g></g></svg>
