<svg xmlns="http://www.w3.org/2000/svg" role="img" width="2281" height="1572" viewBox="-48 -80 2281 1572" data-arch-a11y="root" data-arch-a11y-viewbox="-48.0 -48.0 2281.0 1540.0" data-arch-a11y-height="1540"><metadata id="dediren-provenance">{"model_schema_version":"model.schema.v1","model_sha256":"c68e3d34bdabf272c6caab72cf49680d94379728910f3b62aa9088453bcc553b","view_id":"module-architecture","render_policy_sha256":"6aa4faae10a99accc7d582326f1abe26aa11d4644a164b0bda46cf14d833dc8e","dediren_version":"2026.07.27"}</metadata><title>Dediren module architecture</title><desc>Which modules make up the dediren compiler, and how do they depend on each other?</desc>
<rect data-arch-a11y="band-bg" x="-48" y="-80" width="2281" height="32" fill="#0C0A06" />
<text data-arch-a11y="visible-title" x="-40" y="-60" font-family="sans-serif" font-size="16" font-weight="bold" fill="#ffffff">Dediren module architecture</text><rect x="-48.0" y="-48.0" width="2281.0" height="1540.0" fill="#0C0A06" /><g font-family="Inter, Arial, sans-serif" font-size="13"><g data-dediren-group-id="grp-tier0"><rect x="354.0" y="-20.0" width="766.0" height="322.0" rx="10" fill="#100B05" stroke="#4A3F2C" stroke-width="1" /><text x="362.0" y="-4.0" fill="#F2A93B" font-size="12">Foundation · contracts + IR spine (tier 0)</text></g><g data-dediren-group-id="grp-tier1"><rect x="50.0" y="312.0" width="1170.0" height="144.0" rx="10" fill="#100B05" stroke="#4A3F2C" stroke-width="1" /><text x="58.0" y="328.0" fill="#F2A93B" font-size="12">Notation &amp; utility cores · engine seam (tier 1)</text></g><g data-dediren-group-id="grp-tier2"><rect x="-20.0" y="810.0" width="2118.0" height="144.0" rx="10" fill="#100B05" stroke="#4A3F2C" stroke-width="1" /><text x="-12.0" y="826.0" fill="#F2A93B" font-size="12">Orchestration &amp; engines (tier 2)</text></g><g data-dediren-group-id="grp-tier3"><rect x="1874.0" y="988.0" width="331.0" height="476.0" rx="10" fill="#100B05" stroke="#4A3F2C" stroke-width="1" /><text x="1882.0" y="1004.0" fill="#F2A93B" font-size="12">Entrypoint &amp; assembly (tier 3)</text></g><g data-dediren-edge-id="serv-contracts-ir"><marker id="marker-end-serv-contracts-ir" data-dediren-edge-marker-end="open_arrow" markerWidth="10" markerHeight="10" refX="9" refY="5" orient="auto"><path d="M 1 1 L 9 5 L 1 9" fill="none" stroke="#7A6B4E" stroke-width="1.5" /></marker><path d="M 488.0 93.0 L 488.0 133.0 Q 488.0 141.0 496.0 141.0 L 1000.0 141.0 Q 1008.0 141.0 1008.0 149.0 L 1008.0 189.0" fill="none" stroke="#7A6B4E" stroke-width="1.4" stroke-linecap="round" stroke-linejoin="round" marker-end="url(#marker-end-serv-contracts-ir)" /></g><g data-dediren-edge-id="serv-contracts-uml"><marker id="marker-end-serv-contracts-uml" data-dediren-edge-marker-end="open_arrow" markerWidth="10" markerHeight="10" refX="9" refY="5" orient="auto"><path d="M 1 1 L 9 5 L 1 9" fill="none" stroke="#7A6B4E" stroke-width="1.5" /></marker><path d="M 444.0 93.0 L 444.0 230.0 L 444.0 343.0" fill="none" stroke="#7A6B4E" stroke-width="1.4" stroke-linecap="round" stroke-linejoin="round" marker-end="url(#marker-end-serv-contracts-uml)" /></g><g data-dediren-edge-id="serv-ir-engine-api"><marker id="marker-end-serv-ir-engine-api" data-dediren-edge-marker-end="open_arrow" markerWidth="10" markerHeight="10" refX="9" refY="5" orient="auto"><path d="M 1 1 L 9 5 L 1 9" fill="none" stroke="#7A6B4E" stroke-width="1.5" /></marker><path d="M 1008.0 271.0 L 1008.0 343.0" fill="none" stroke="#7A6B4E" stroke-width="1.4" stroke-linecap="round" stroke-linejoin="round" marker-end="url(#marker-end-serv-ir-engine-api)" /></g><g data-dediren-edge-id="serv-engine-api-core"><marker id="marker-end-serv-engine-api-core" data-dediren-edge-marker-end="open_arrow" markerWidth="10" markerHeight="10" refX="9" refY="5" orient="auto"><path d="M 1 1 L 9 5 L 1 9" fill="none" stroke="#7A6B4E" stroke-width="1.5" /></marker><path d="M 1137.0 425.0 L 1137.0 465.0 Q 1137.0 473.0 1145.0 473.0 L 1978.0 473.0 Q 1986.0 473.0 1986.0 481.0 L 1986.0 841.0" fill="none" stroke="#7A6B4E" stroke-width="1.4" stroke-linecap="round" stroke-linejoin="round" marker-end="url(#marker-end-serv-engine-api-core)" /></g><g data-dediren-edge-id="serv-engine-api-semantics-graph"><marker id="marker-end-serv-engine-api-semantics-graph" data-dediren-edge-marker-end="open_arrow" markerWidth="10" markerHeight="10" refX="9" refY="5" orient="auto"><path d="M 1 1 L 9 5 L 1 9" fill="none" stroke="#7A6B4E" stroke-width="1.5" /></marker><path d="M 1100.0 425.0 L 1100.0 505.0 Q 1100.0 513.0 1108.0 513.0 L 1726.0 513.0 Q 1734.0 513.0 1734.0 521.0 L 1734.0 841.0" fill="none" stroke="#7A6B4E" stroke-width="1.4" stroke-linecap="round" stroke-linejoin="round" marker-end="url(#marker-end-serv-engine-api-semantics-graph)" /></g><g data-dediren-edge-id="serv-engine-api-semantics-archimate"><marker id="marker-end-serv-engine-api-semantics-archimate" data-dediren-edge-marker-end="open_arrow" markerWidth="10" markerHeight="10" refX="9" refY="5" orient="auto"><path d="M 1 1 L 9 5 L 1 9" fill="none" stroke="#7A6B4E" stroke-width="1.5" /></marker><path d="M 1063.0 425.0 L 1063.0 705.0 Q 1063.0 713.0 1071.0 713.0 L 1167.0 713.0 Q 1175.0 713.0 1175.0 721.0 L 1175.0 841.0" fill="none" stroke="#7A6B4E" stroke-width="1.4" stroke-linecap="round" stroke-linejoin="round" marker-end="url(#marker-end-serv-engine-api-semantics-archimate)" /></g><g data-dediren-edge-id="serv-engine-api-semantics-uml"><marker id="marker-end-serv-engine-api-semantics-uml" data-dediren-edge-marker-end="open_arrow" markerWidth="10" markerHeight="10" refX="9" refY="5" orient="auto"><path d="M 1 1 L 9 5 L 1 9" fill="none" stroke="#7A6B4E" stroke-width="1.5" /></marker><path d="M 1026.0 425.0 L 1026.0 745.0 Q 1026.0 753.0 1018.0 753.0 L 904.0 753.0 Q 896.0 753.0 896.0 761.0 L 896.0 841.0" fill="none" stroke="#7A6B4E" stroke-width="1.4" stroke-linecap="round" stroke-linejoin="round" marker-end="url(#marker-end-serv-engine-api-semantics-uml)" /></g><g data-dediren-edge-id="serv-engine-api-elk-layout"><marker id="marker-end-serv-engine-api-elk-layout" data-dediren-edge-marker-end="open_arrow" markerWidth="10" markerHeight="10" refX="9" refY="5" orient="auto"><path d="M 1 1 L 9 5 L 1 9" fill="none" stroke="#7A6B4E" stroke-width="1.5" /></marker><g data-dediren-line-jump-masks="serv-engine-api-elk-layout"><path d="M 1057.0 553.0 Q 1063.0 547.0 1069.0 553.0" fill="none" stroke="#0C0A06" stroke-width="6" /><path d="M 1020.0 553.0 Q 1026.0 547.0 1032.0 553.0" fill="none" stroke="#0C0A06" stroke-width="6" /></g><path d="M 990.0 425.0 L 990.0 545.0 Q 990.0 553.0 998.0 553.0 L 1020.0 553.0 Q 1026.0 547.0 1032.0 553.0 L 1057.0 553.0 Q 1063.0 547.0 1069.0 553.0 L 1474.0 553.0 Q 1482.0 553.0 1482.0 561.0 L 1482.0 841.0" fill="none" stroke="#7A6B4E" stroke-width="1.4" stroke-linecap="round" stroke-linejoin="round" marker-end="url(#marker-end-serv-engine-api-elk-layout)" /></g><g data-dediren-edge-id="serv-engine-api-render"><marker id="marker-end-serv-engine-api-render" data-dediren-edge-marker-end="open_arrow" markerWidth="10" markerHeight="10" refX="9" refY="5" orient="auto"><path d="M 1 1 L 9 5 L 1 9" fill="none" stroke="#7A6B4E" stroke-width="1.5" /></marker><path d="M 953.0 425.0 L 953.0 625.0 Q 953.0 633.0 945.0 633.0 L 651.0 633.0 Q 643.0 633.0 643.0 641.0 L 643.0 841.0" fill="none" stroke="#7A6B4E" stroke-width="1.4" stroke-linecap="round" stroke-linejoin="round" marker-end="url(#marker-end-serv-engine-api-render)" /></g><g data-dediren-edge-id="serv-engine-api-archimate-oef-export"><marker id="marker-end-serv-engine-api-archimate-oef-export" data-dediren-edge-marker-end="open_arrow" markerWidth="10" markerHeight="10" refX="9" refY="5" orient="auto"><path d="M 1 1 L 9 5 L 1 9" fill="none" stroke="#7A6B4E" stroke-width="1.5" /></marker><path d="M 916.0 425.0 L 916.0 545.0 Q 916.0 553.0 908.0 553.0 L 352.0 553.0 Q 344.0 553.0 344.0 561.0 L 344.0 841.0" fill="none" stroke="#7A6B4E" stroke-width="1.4" stroke-linecap="round" stroke-linejoin="round" marker-end="url(#marker-end-serv-engine-api-archimate-oef-export)" /></g><g data-dediren-edge-id="serv-engine-api-uml-xmi-export"><marker id="marker-end-serv-engine-api-uml-xmi-export" data-dediren-edge-marker-end="open_arrow" markerWidth="10" markerHeight="10" refX="9" refY="5" orient="auto"><path d="M 1 1 L 9 5 L 1 9" fill="none" stroke="#7A6B4E" stroke-width="1.5" /></marker><path d="M 879.0 425.0 L 879.0 505.0 Q 879.0 513.0 871.0 513.0 L 75.0 513.0 Q 67.0 513.0 67.0 521.0 L 67.0 841.0" fill="none" stroke="#7A6B4E" stroke-width="1.4" stroke-linecap="round" stroke-linejoin="round" marker-end="url(#marker-end-serv-engine-api-uml-xmi-export)" /></g><g data-dediren-edge-id="serv-archimate-semantics-archimate"><marker id="marker-end-serv-archimate-semantics-archimate" data-dediren-edge-marker-end="open_arrow" markerWidth="10" markerHeight="10" refX="9" refY="5" orient="auto"><path d="M 1 1 L 9 5 L 1 9" fill="none" stroke="#7A6B4E" stroke-width="1.5" /></marker><g data-dediren-line-jump-masks="serv-archimate-semantics-archimate"><path d="M 709.0 627.0 Q 715.0 633.0 709.0 639.0" fill="none" stroke="#0C0A06" stroke-width="6" /><path d="M 709.0 547.0 Q 715.0 553.0 709.0 559.0" fill="none" stroke="#0C0A06" stroke-width="6" /><path d="M 709.0 507.0 Q 715.0 513.0 709.0 519.0" fill="none" stroke="#0C0A06" stroke-width="6" /><path d="M 1057.0 673.0 Q 1063.0 667.0 1069.0 673.0" fill="none" stroke="#0C0A06" stroke-width="6" /><path d="M 1020.0 673.0 Q 1026.0 667.0 1032.0 673.0" fill="none" stroke="#0C0A06" stroke-width="6" /></g><path d="M 709.0 425.0 L 709.0 507.0 Q 715.0 513.0 709.0 519.0 L 709.0 547.0 Q 715.0 553.0 709.0 559.0 L 709.0 627.0 Q 715.0 633.0 709.0 639.0 L 709.0 665.0 Q 709.0 673.0 717.0 673.0 L 1020.0 673.0 Q 1026.0 667.0 1032.0 673.0 L 1057.0 673.0 Q 1063.0 667.0 1069.0 673.0 L 1237.0 673.0 Q 1245.0 673.0 1245.0 681.0 L 1245.0 841.0" fill="none" stroke="#7A6B4E" stroke-width="1.4" stroke-linecap="round" stroke-linejoin="round" marker-end="url(#marker-end-serv-archimate-semantics-archimate)" /></g><g data-dediren-edge-id="serv-archimate-render"><marker id="marker-end-serv-archimate-render" data-dediren-edge-marker-end="open_arrow" markerWidth="10" markerHeight="10" refX="9" refY="5" orient="auto"><path d="M 1 1 L 9 5 L 1 9" fill="none" stroke="#7A6B4E" stroke-width="1.5" /></marker><g data-dediren-line-jump-masks="serv-archimate-render"><path d="M 676.0 627.0 Q 682.0 633.0 676.0 639.0" fill="none" stroke="#0C0A06" stroke-width="6" /><path d="M 676.0 547.0 Q 682.0 553.0 676.0 559.0" fill="none" stroke="#0C0A06" stroke-width="6" /><path d="M 676.0 507.0 Q 682.0 513.0 676.0 519.0" fill="none" stroke="#0C0A06" stroke-width="6" /></g><path d="M 676.0 425.0 L 676.0 507.0 Q 682.0 513.0 676.0 519.0 L 676.0 547.0 Q 682.0 553.0 676.0 559.0 L 676.0 627.0 Q 682.0 633.0 676.0 639.0 L 676.0 841.0" fill="none" stroke="#7A6B4E" stroke-width="1.4" stroke-linecap="round" stroke-linejoin="round" marker-end="url(#marker-end-serv-archimate-render)" /></g><g data-dediren-edge-id="serv-archimate-archimate-oef-export"><marker id="marker-end-serv-archimate-archimate-oef-export" data-dediren-edge-marker-end="open_arrow" markerWidth="10" markerHeight="10" refX="9" refY="5" orient="auto"><path d="M 1 1 L 9 5 L 1 9" fill="none" stroke="#7A6B4E" stroke-width="1.5" /></marker><g data-dediren-line-jump-masks="serv-archimate-archimate-oef-export"><path d="M 643.0 547.0 Q 649.0 553.0 643.0 559.0" fill="none" stroke="#0C0A06" stroke-width="6" /><path d="M 643.0 507.0 Q 649.0 513.0 643.0 519.0" fill="none" stroke="#0C0A06" stroke-width="6" /></g><path d="M 643.0 425.0 L 643.0 507.0 Q 649.0 513.0 643.0 519.0 L 643.0 547.0 Q 649.0 553.0 643.0 559.0 L 643.0 585.0 Q 643.0 593.0 635.0 593.0 L 407.0 593.0 Q 399.0 593.0 399.0 601.0 L 399.0 841.0" fill="none" stroke="#7A6B4E" stroke-width="1.4" stroke-linecap="round" stroke-linejoin="round" marker-end="url(#marker-end-serv-archimate-archimate-oef-export)" /></g><g data-dediren-edge-id="serv-uml-semantics-uml"><marker id="marker-end-serv-uml-semantics-uml" data-dediren-edge-marker-end="open_arrow" markerWidth="10" markerHeight="10" refX="9" refY="5" orient="auto"><path d="M 1 1 L 9 5 L 1 9" fill="none" stroke="#7A6B4E" stroke-width="1.5" /></marker><g data-dediren-line-jump-masks="serv-uml-semantics-uml"><path d="M 477.0 547.0 Q 483.0 553.0 477.0 559.0" fill="none" stroke="#0C0A06" stroke-width="6" /><path d="M 477.0 507.0 Q 483.0 513.0 477.0 519.0" fill="none" stroke="#0C0A06" stroke-width="6" /><path d="M 477.0 587.0 Q 483.0 593.0 477.0 599.0" fill="none" stroke="#0C0A06" stroke-width="6" /><path d="M 637.0 713.0 Q 643.0 707.0 649.0 713.0" fill="none" stroke="#0C0A06" stroke-width="6" /><path d="M 670.0 713.0 Q 676.0 707.0 682.0 713.0" fill="none" stroke="#0C0A06" stroke-width="6" /><path d="M 950.0 747.0 Q 956.0 753.0 950.0 759.0" fill="none" stroke="#0C0A06" stroke-width="6" /></g><path d="M 477.0 425.0 L 477.0 507.0 Q 483.0 513.0 477.0 519.0 L 477.0 547.0 Q 483.0 553.0 477.0 559.0 L 477.0 587.0 Q 483.0 593.0 477.0 599.0 L 477.0 705.0 Q 477.0 713.0 485.0 713.0 L 637.0 713.0 Q 643.0 707.0 649.0 713.0 L 670.0 713.0 Q 676.0 707.0 682.0 713.0 L 942.0 713.0 Q 950.0 713.0 950.0 721.0 L 950.0 747.0 Q 956.0 753.0 950.0 759.0 L 950.0 841.0" fill="none" stroke="#7A6B4E" stroke-width="1.4" stroke-linecap="round" stroke-linejoin="round" marker-end="url(#marker-end-serv-uml-semantics-uml)" /></g><g data-dediren-edge-id="serv-uml-render"><marker id="marker-end-serv-uml-render" data-dediren-edge-marker-end="open_arrow" markerWidth="10" markerHeight="10" refX="9" refY="5" orient="auto"><path d="M 1 1 L 9 5 L 1 9" fill="none" stroke="#7A6B4E" stroke-width="1.5" /></marker><g data-dediren-line-jump-masks="serv-uml-render"><path d="M 444.0 547.0 Q 450.0 553.0 444.0 559.0" fill="none" stroke="#0C0A06" stroke-width="6" /><path d="M 444.0 507.0 Q 450.0 513.0 444.0 519.0" fill="none" stroke="#0C0A06" stroke-width="6" /><path d="M 444.0 587.0 Q 450.0 593.0 444.0 599.0" fill="none" stroke="#0C0A06" stroke-width="6" /><path d="M 637.0 753.0 Q 643.0 747.0 649.0 753.0" fill="none" stroke="#0C0A06" stroke-width="6" /><path d="M 670.0 753.0 Q 676.0 747.0 682.0 753.0" fill="none" stroke="#0C0A06" stroke-width="6" /></g><path d="M 444.0 425.0 L 444.0 507.0 Q 450.0 513.0 444.0 519.0 L 444.0 547.0 Q 450.0 553.0 444.0 559.0 L 444.0 587.0 Q 450.0 593.0 444.0 599.0 L 444.0 745.0 Q 444.0 753.0 452.0 753.0 L 637.0 753.0 Q 643.0 747.0 649.0 753.0 L 670.0 753.0 Q 676.0 747.0 682.0 753.0 L 701.0 753.0 Q 709.0 753.0 709.0 761.0 L 709.0 841.0" fill="none" stroke="#7A6B4E" stroke-width="1.4" stroke-linecap="round" stroke-linejoin="round" marker-end="url(#marker-end-serv-uml-render)" /></g><g data-dediren-edge-id="serv-uml-uml-xmi-export"><marker id="marker-end-serv-uml-uml-xmi-export" data-dediren-edge-marker-end="open_arrow" markerWidth="10" markerHeight="10" refX="9" refY="5" orient="auto"><path d="M 1 1 L 9 5 L 1 9" fill="none" stroke="#7A6B4E" stroke-width="1.5" /></marker><g data-dediren-line-jump-masks="serv-uml-uml-xmi-export"><path d="M 107.0 507.0 Q 113.0 513.0 107.0 519.0" fill="none" stroke="#0C0A06" stroke-width="6" /></g><path d="M 411.0 425.0 L 411.0 465.0 Q 411.0 473.0 403.0 473.0 L 115.0 473.0 Q 107.0 473.0 107.0 481.0 L 107.0 507.0 Q 113.0 513.0 107.0 519.0 L 107.0 841.0" fill="none" stroke="#7A6B4E" stroke-width="1.4" stroke-linecap="round" stroke-linejoin="round" marker-end="url(#marker-end-serv-uml-uml-xmi-export)" /></g><g data-dediren-edge-id="serv-schema-cache-archimate-oef-export"><marker id="marker-end-serv-schema-cache-archimate-oef-export" data-dediren-edge-marker-end="open_arrow" markerWidth="10" markerHeight="10" refX="9" refY="5" orient="auto"><path d="M 1 1 L 9 5 L 1 9" fill="none" stroke="#7A6B4E" stroke-width="1.5" /></marker><g data-dediren-line-jump-masks="serv-schema-cache-archimate-oef-export"><path d="M 197.0 507.0 Q 203.0 513.0 197.0 519.0" fill="none" stroke="#0C0A06" stroke-width="6" /><path d="M 197.0 467.0 Q 203.0 473.0 197.0 479.0" fill="none" stroke="#0C0A06" stroke-width="6" /><path d="M 338.0 793.0 Q 344.0 787.0 350.0 793.0" fill="none" stroke="#0C0A06" stroke-width="6" /><path d="M 393.0 793.0 Q 399.0 787.0 405.0 793.0" fill="none" stroke="#0C0A06" stroke-width="6" /></g><path d="M 197.0 425.0 L 197.0 467.0 Q 203.0 473.0 197.0 479.0 L 197.0 507.0 Q 203.0 513.0 197.0 519.0 L 197.0 785.0 Q 197.0 793.0 205.0 793.0 L 338.0 793.0 Q 344.0 787.0 350.0 793.0 L 393.0 793.0 Q 399.0 787.0 405.0 793.0 L 446.0 793.0 Q 454.0 793.0 454.0 801.0 L 454.0 841.0" fill="none" stroke="#7A6B4E" stroke-width="1.4" stroke-linecap="round" stroke-linejoin="round" marker-end="url(#marker-end-serv-schema-cache-archimate-oef-export)" /></g><g data-dediren-edge-id="serv-schema-cache-uml-xmi-export"><marker id="marker-end-serv-schema-cache-uml-xmi-export" data-dediren-edge-marker-end="open_arrow" markerWidth="10" markerHeight="10" refX="9" refY="5" orient="auto"><path d="M 1 1 L 9 5 L 1 9" fill="none" stroke="#7A6B4E" stroke-width="1.5" /></marker><g data-dediren-line-jump-masks="serv-schema-cache-uml-xmi-export"><path d="M 147.0 507.0 Q 153.0 513.0 147.0 519.0" fill="none" stroke="#0C0A06" stroke-width="6" /><path d="M 147.0 467.0 Q 153.0 473.0 147.0 479.0" fill="none" stroke="#0C0A06" stroke-width="6" /></g><path d="M 147.0 425.0 L 147.0 467.0 Q 153.0 473.0 147.0 479.0 L 147.0 507.0 Q 153.0 513.0 147.0 519.0 L 147.0 841.0" fill="none" stroke="#7A6B4E" stroke-width="1.4" stroke-linecap="round" stroke-linejoin="round" marker-end="url(#marker-end-serv-schema-cache-uml-xmi-export)" /></g><g data-dediren-edge-id="serv-core-mcp-server"><marker id="marker-end-serv-core-mcp-server" data-dediren-edge-marker-end="open_arrow" markerWidth="10" markerHeight="10" refX="9" refY="5" orient="auto"><path d="M 1 1 L 9 5 L 1 9" fill="none" stroke="#7A6B4E" stroke-width="1.5" /></marker><path d="M 2008.0 923.0 L 2008.0 963.0 Q 2008.0 971.0 2016.0 971.0 L 2085.0 971.0 Q 2093.0 971.0 2093.0 979.0 L 2093.0 1019.0" fill="none" stroke="#7A6B4E" stroke-width="1.4" stroke-linecap="round" stroke-linejoin="round" marker-end="url(#marker-end-serv-core-mcp-server)" /></g><g data-dediren-edge-id="serv-core-cli"><marker id="marker-end-serv-core-cli" data-dediren-edge-marker-end="open_arrow" markerWidth="10" markerHeight="10" refX="9" refY="5" orient="auto"><path d="M 1 1 L 9 5 L 1 9" fill="none" stroke="#7A6B4E" stroke-width="1.5" /></marker><path d="M 1964.0 923.0 L 1964.0 1060.0 L 1964.0 1197.0" fill="none" stroke="#7A6B4E" stroke-width="1.4" stroke-linecap="round" stroke-linejoin="round" marker-end="url(#marker-end-serv-core-cli)" /></g><g data-dediren-edge-id="serv-mcp-server-cli"><marker id="marker-end-serv-mcp-server-cli" data-dediren-edge-marker-end="open_arrow" markerWidth="10" markerHeight="10" refX="9" refY="5" orient="auto"><path d="M 1 1 L 9 5 L 1 9" fill="none" stroke="#7A6B4E" stroke-width="1.5" /></marker><path d="M 2093.0 1101.0 L 2093.0 1141.0 Q 2093.0 1149.0 2085.0 1149.0 L 2016.0 1149.0 Q 2008.0 1149.0 2008.0 1157.0 L 2008.0 1197.0" fill="none" stroke="#7A6B4E" stroke-width="1.4" stroke-linecap="round" stroke-linejoin="round" marker-end="url(#marker-end-serv-mcp-server-cli)" /></g><g data-dediren-edge-id="serv-cli-dist-tool"><marker id="marker-end-serv-cli-dist-tool" data-dediren-edge-marker-end="open_arrow" markerWidth="10" markerHeight="10" refX="9" refY="5" orient="auto"><path d="M 1 1 L 9 5 L 1 9" fill="none" stroke="#7A6B4E" stroke-width="1.5" /></marker><path d="M 1986.0 1279.0 L 1986.0 1351.0" fill="none" stroke="#7A6B4E" stroke-width="1.4" stroke-linecap="round" stroke-linejoin="round" marker-end="url(#marker-end-serv-cli-dist-tool)" /></g><g data-dediren-node-id="contracts"><rect data-dediren-node-shape="archimate_rectangle" x="386.0" y="12.0" width="160.0" height="80.0" rx="0" fill="#17110A" stroke="#54D98A" stroke-width="1.5" /><g data-dediren-node-decorator="archimate_application_component" data-dediren-icon-kind="component" data-dediren-icon-size="22"><rect x="522.0" y="21.0" width="18.0" height="15.8" rx="1.5" fill="#17110A" stroke="#54D98A" stroke-width="1.5" /><rect x="518.0" y="23.6" width="7.9" height="5.7" rx="1.2" fill="#17110A" stroke="#54D98A" stroke-width="1.5" /><rect x="518.0" y="30.7" width="7.9" height="5.7" rx="1.2" fill="#17110A" stroke="#54D98A" stroke-width="1.5" /></g><text x="466.0" y="67.5" text-anchor="middle" dominant-baseline="middle" fill="#54D98A" font-size="13.0" textLength="52.7" lengthAdjust="spacing">contracts</text></g><g data-dediren-node-id="ir"><rect data-dediren-node-shape="archimate_rectangle" x="928.0" y="190.0" width="160.0" height="80.0" rx="0" fill="#17110A" stroke="#F2A93B" stroke-width="1.5" /><g data-dediren-node-decorator="archimate_application_component" data-dediren-icon-kind="component" data-dediren-icon-size="22"><rect x="1064.0" y="199.0" width="18.0" height="15.8" rx="1.5" fill="#17110A" stroke="#F2A93B" stroke-width="1.5" /><rect x="1060.0" y="201.6" width="7.9" height="5.7" rx="1.2" fill="#17110A" stroke="#F2A93B" stroke-width="1.5" /><rect x="1060.0" y="208.7" width="7.9" height="5.7" rx="1.2" fill="#17110A" stroke="#F2A93B" stroke-width="1.5" /></g><text x="1008.0" y="245.5" text-anchor="middle" dominant-baseline="middle" fill="#ECDFC7" font-size="13.0" textLength="7.2" lengthAdjust="spacing">ir</text></g><g data-dediren-node-id="archimate"><rect data-dediren-node-shape="archimate_rectangle" x="596.0" y="344.0" width="160.0" height="80.0" rx="0" fill="#17110A" stroke="#F2A93B" stroke-width="1.5" /><g data-dediren-node-decorator="archimate_application_component" data-dediren-icon-kind="component" data-dediren-icon-size="22"><rect x="732.0" y="353.0" width="18.0" height="15.8" rx="1.5" fill="#17110A" stroke="#F2A93B" stroke-width="1.5" /><rect x="728.0" y="355.6" width="7.9" height="5.7" rx="1.2" fill="#17110A" stroke="#F2A93B" stroke-width="1.5" /><rect x="728.0" y="362.7" width="7.9" height="5.7" rx="1.2" fill="#17110A" stroke="#F2A93B" stroke-width="1.5" /></g><text x="676.0" y="399.5" text-anchor="middle" dominant-baseline="middle" fill="#ECDFC7" font-size="13.0" textLength="57.0" lengthAdjust="spacing">archimate</text></g><g data-dediren-node-id="uml"><rect data-dediren-node-shape="archimate_rectangle" x="364.0" y="344.0" width="160.0" height="80.0" rx="0" fill="#17110A" stroke="#F2A93B" stroke-width="1.5" /><g data-dediren-node-decorator="archimate_application_component" data-dediren-icon-kind="component" data-dediren-icon-size="22"><rect x="500.0" y="353.0" width="18.0" height="15.8" rx="1.5" fill="#17110A" stroke="#F2A93B" stroke-width="1.5" /><rect x="496.0" y="355.6" width="7.9" height="5.7" rx="1.2" fill="#17110A" stroke="#F2A93B" stroke-width="1.5" /><rect x="496.0" y="362.7" width="7.9" height="5.7" rx="1.2" fill="#17110A" stroke="#F2A93B" stroke-width="1.5" /></g><text x="444.0" y="399.5" text-anchor="middle" dominant-baseline="middle" fill="#ECDFC7" font-size="13.0" textLength="20.9" lengthAdjust="spacing">uml</text></g><g data-dediren-node-id="schema-cache"><rect data-dediren-node-shape="archimate_rectangle" x="82.0" y="344.0" width="180.0" height="80.0" rx="0" fill="#17110A" stroke="#F2A93B" stroke-width="1.5" /><g data-dediren-node-decorator="archimate_application_component" data-dediren-icon-kind="component" data-dediren-icon-size="22"><rect x="238.0" y="353.0" width="18.0" height="15.8" rx="1.5" fill="#17110A" stroke="#F2A93B" stroke-width="1.5" /><rect x="234.0" y="355.6" width="7.9" height="5.7" rx="1.2" fill="#17110A" stroke="#F2A93B" stroke-width="1.5" /><rect x="234.0" y="362.7" width="7.9" height="5.7" rx="1.2" fill="#17110A" stroke="#F2A93B" stroke-width="1.5" /></g><text x="172.0" y="399.5" text-anchor="middle" dominant-baseline="middle" fill="#ECDFC7" font-size="13.0" textLength="84.5" lengthAdjust="spacing">schema-cache</text></g><g data-dediren-node-id="engine-api"><rect data-dediren-node-shape="archimate_rectangle" x="828.0" y="344.0" width="360.0" height="80.0" rx="0" fill="#17110A" stroke="#F2A93B" stroke-width="1.5" /><g data-dediren-node-decorator="archimate_application_component" data-dediren-icon-kind="component" data-dediren-icon-size="22"><rect x="1164.0" y="353.0" width="18.0" height="15.8" rx="1.5" fill="#17110A" stroke="#F2A93B" stroke-width="1.5" /><rect x="1160.0" y="355.6" width="7.9" height="5.7" rx="1.2" fill="#17110A" stroke="#F2A93B" stroke-width="1.5" /><rect x="1160.0" y="362.7" width="7.9" height="5.7" rx="1.2" fill="#17110A" stroke="#F2A93B" stroke-width="1.5" /></g><text x="1008.0" y="399.5" text-anchor="middle" dominant-baseline="middle" fill="#ECDFC7" font-size="13.0" textLength="60.6" lengthAdjust="spacing">engine-api</text></g><g data-dediren-node-id="core"><rect data-dediren-node-shape="archimate_rectangle" x="1906.0" y="842.0" width="160.0" height="80.0" rx="0" fill="#17110A" stroke="#F2A93B" stroke-width="1.5" /><g data-dediren-node-decorator="archimate_application_component" data-dediren-icon-kind="component" data-dediren-icon-size="22"><rect x="2042.0" y="851.0" width="18.0" height="15.8" rx="1.5" fill="#17110A" stroke="#F2A93B" stroke-width="1.5" /><rect x="2038.0" y="853.6" width="7.9" height="5.7" rx="1.2" fill="#17110A" stroke="#F2A93B" stroke-width="1.5" /><rect x="2038.0" y="860.7" width="7.9" height="5.7" rx="1.2" fill="#17110A" stroke="#F2A93B" stroke-width="1.5" /></g><text x="1986.0" y="897.5" text-anchor="middle" dominant-baseline="middle" fill="#ECDFC7" font-size="13.0" textLength="25.2" lengthAdjust="spacing">core</text></g><g data-dediren-node-id="semantics-graph"><rect data-dediren-node-shape="archimate_rectangle" x="1634.0" y="842.0" width="200.0" height="80.0" rx="0" fill="#17110A" stroke="#F2A93B" stroke-width="1.5" /><g data-dediren-node-decorator="archimate_application_component" data-dediren-icon-kind="component" data-dediren-icon-size="22"><rect x="1810.0" y="851.0" width="18.0" height="15.8" rx="1.5" fill="#17110A" stroke="#F2A93B" stroke-width="1.5" /><rect x="1806.0" y="853.6" width="7.9" height="5.7" rx="1.2" fill="#17110A" stroke="#F2A93B" stroke-width="1.5" /><rect x="1806.0" y="860.7" width="7.9" height="5.7" rx="1.2" fill="#17110A" stroke="#F2A93B" stroke-width="1.5" /></g><text x="1734.0" y="897.5" text-anchor="middle" dominant-baseline="middle" fill="#ECDFC7" font-size="13.0" textLength="96.0" lengthAdjust="spacing">semantics-graph</text></g><g data-dediren-node-id="semantics-archimate"><rect data-dediren-node-shape="archimate_rectangle" x="1090.0" y="842.0" width="240.0" height="80.0" rx="0" fill="#17110A" stroke="#F2A93B" stroke-width="1.5" /><g data-dediren-node-decorator="archimate_application_component" data-dediren-icon-kind="component" data-dediren-icon-size="22"><rect x="1306.0" y="851.0" width="18.0" height="15.8" rx="1.5" fill="#17110A" stroke="#F2A93B" stroke-width="1.5" /><rect x="1302.0" y="853.6" width="7.9" height="5.7" rx="1.2" fill="#17110A" stroke="#F2A93B" stroke-width="1.5" /><rect x="1302.0" y="860.7" width="7.9" height="5.7" rx="1.2" fill="#17110A" stroke="#F2A93B" stroke-width="1.5" /></g><text x="1210.0" y="897.5" text-anchor="middle" dominant-baseline="middle" fill="#ECDFC7" font-size="13.0" textLength="119.9" lengthAdjust="spacing">semantics-archimate</text></g><g data-dediren-node-id="semantics-uml"><rect data-dediren-node-shape="archimate_rectangle" x="828.0" y="842.0" width="190.0" height="80.0" rx="0" fill="#17110A" stroke="#F2A93B" stroke-width="1.5" /><g data-dediren-node-decorator="archimate_application_component" data-dediren-icon-kind="component" data-dediren-icon-size="22"><rect x="994.0" y="851.0" width="18.0" height="15.8" rx="1.5" fill="#17110A" stroke="#F2A93B" stroke-width="1.5" /><rect x="990.0" y="853.6" width="7.9" height="5.7" rx="1.2" fill="#17110A" stroke="#F2A93B" stroke-width="1.5" /><rect x="990.0" y="860.7" width="7.9" height="5.7" rx="1.2" fill="#17110A" stroke="#F2A93B" stroke-width="1.5" /></g><text x="923.0" y="897.5" text-anchor="middle" dominant-baseline="middle" fill="#ECDFC7" font-size="13.0" textLength="83.7" lengthAdjust="spacing">semantics-uml</text></g><g data-dediren-node-id="elk-layout"><rect data-dediren-node-shape="archimate_rectangle" x="1402.0" y="842.0" width="160.0" height="80.0" rx="0" fill="#17110A" stroke="#F2A93B" stroke-width="1.5" /><g data-dediren-node-decorator="archimate_application_component" data-dediren-icon-kind="component" data-dediren-icon-size="22"><rect x="1538.0" y="851.0" width="18.0" height="15.8" rx="1.5" fill="#17110A" stroke="#F2A93B" stroke-width="1.5" /><rect x="1534.0" y="853.6" width="7.9" height="5.7" rx="1.2" fill="#17110A" stroke="#F2A93B" stroke-width="1.5" /><rect x="1534.0" y="860.7" width="7.9" height="5.7" rx="1.2" fill="#17110A" stroke="#F2A93B" stroke-width="1.5" /></g><text x="1482.0" y="897.5" text-anchor="middle" dominant-baseline="middle" fill="#ECDFC7" font-size="13.0" textLength="55.6" lengthAdjust="spacing">elk-layout</text></g><g data-dediren-node-id="render"><rect data-dediren-node-shape="archimate_rectangle" x="596.0" y="842.0" width="160.0" height="80.0" rx="0" fill="#17110A" stroke="#F2A93B" stroke-width="1.5" /><g data-dediren-node-decorator="archimate_application_component" data-dediren-icon-kind="component" data-dediren-icon-size="22"><rect x="732.0" y="851.0" width="18.0" height="15.8" rx="1.5" fill="#17110A" stroke="#F2A93B" stroke-width="1.5" /><rect x="728.0" y="853.6" width="7.9" height="5.7" rx="1.2" fill="#17110A" stroke="#F2A93B" stroke-width="1.5" /><rect x="728.0" y="860.7" width="7.9" height="5.7" rx="1.2" fill="#17110A" stroke="#F2A93B" stroke-width="1.5" /></g><text x="676.0" y="897.5" text-anchor="middle" dominant-baseline="middle" fill="#ECDFC7" font-size="13.0" textLength="37.5" lengthAdjust="spacing">render</text></g><g data-dediren-node-id="archimate-oef-export"><rect data-dediren-node-shape="archimate_rectangle" x="274.0" y="842.0" width="250.0" height="80.0" rx="0" fill="#17110A" stroke="#F2A93B" stroke-width="1.5" /><g data-dediren-node-decorator="archimate_application_component" data-dediren-icon-kind="component" data-dediren-icon-size="22"><rect x="500.0" y="851.0" width="18.0" height="15.8" rx="1.5" fill="#17110A" stroke="#F2A93B" stroke-width="1.5" /><rect x="496.0" y="853.6" width="7.9" height="5.7" rx="1.2" fill="#17110A" stroke="#F2A93B" stroke-width="1.5" /><rect x="496.0" y="860.7" width="7.9" height="5.7" rx="1.2" fill="#17110A" stroke="#F2A93B" stroke-width="1.5" /></g><text x="399.0" y="897.5" text-anchor="middle" dominant-baseline="middle" fill="#ECDFC7" font-size="13.0" textLength="119.9" lengthAdjust="spacing">archimate-oef-export</text></g><g data-dediren-node-id="uml-xmi-export"><rect data-dediren-node-shape="archimate_rectangle" x="12.0" y="842.0" width="190.0" height="80.0" rx="0" fill="#17110A" stroke="#F2A93B" stroke-width="1.5" /><g data-dediren-node-decorator="archimate_application_component" data-dediren-icon-kind="component" data-dediren-icon-size="22"><rect x="178.0" y="851.0" width="18.0" height="15.8" rx="1.5" fill="#17110A" stroke="#F2A93B" stroke-width="1.5" /><rect x="174.0" y="853.6" width="7.9" height="5.7" rx="1.2" fill="#17110A" stroke="#F2A93B" stroke-width="1.5" /><rect x="174.0" y="860.7" width="7.9" height="5.7" rx="1.2" fill="#17110A" stroke="#F2A93B" stroke-width="1.5" /></g><text x="107.0" y="897.5" text-anchor="middle" dominant-baseline="middle" fill="#ECDFC7" font-size="13.0" textLength="85.9" lengthAdjust="spacing">uml-xmi-export</text></g><g data-dediren-node-id="mcp-server"><rect data-dediren-node-shape="archimate_rectangle" x="2013.0" y="1020.0" width="160.0" height="80.0" rx="0" fill="#17110A" stroke="#F2A93B" stroke-width="1.5" /><g data-dediren-node-decorator="archimate_application_component" data-dediren-icon-kind="component" data-dediren-icon-size="22"><rect x="2149.0" y="1029.0" width="18.0" height="15.8" rx="1.5" fill="#17110A" stroke="#F2A93B" stroke-width="1.5" /><rect x="2145.0" y="1031.6" width="7.9" height="5.7" rx="1.2" fill="#17110A" stroke="#F2A93B" stroke-width="1.5" /><rect x="2145.0" y="1038.7" width="7.9" height="5.7" rx="1.2" fill="#17110A" stroke="#F2A93B" stroke-width="1.5" /></g><text x="2093.0" y="1075.5" text-anchor="middle" dominant-baseline="middle" fill="#ECDFC7" font-size="13.0" textLength="65.0" lengthAdjust="spacing">mcp-server</text></g><g data-dediren-node-id="cli"><rect data-dediren-node-shape="archimate_rectangle" x="1906.0" y="1198.0" width="160.0" height="80.0" rx="0" fill="#17110A" stroke="#F2A93B" stroke-width="1.5" /><g data-dediren-node-decorator="archimate_application_component" data-dediren-icon-kind="component" data-dediren-icon-size="22"><rect x="2042.0" y="1207.0" width="18.0" height="15.8" rx="1.5" fill="#17110A" stroke="#F2A93B" stroke-width="1.5" /><rect x="2038.0" y="1209.6" width="7.9" height="5.7" rx="1.2" fill="#17110A" stroke="#F2A93B" stroke-width="1.5" /><rect x="2038.0" y="1216.7" width="7.9" height="5.7" rx="1.2" fill="#17110A" stroke="#F2A93B" stroke-width="1.5" /></g><text x="1986.0" y="1253.5" text-anchor="middle" dominant-baseline="middle" fill="#ECDFC7" font-size="13.0" textLength="12.2" lengthAdjust="spacing">cli</text></g><g data-dediren-node-id="dist-tool"><rect data-dediren-node-shape="archimate_rectangle" x="1906.0" y="1352.0" width="160.0" height="80.0" rx="0" fill="#17110A" stroke="#F2A93B" stroke-width="1.5" /><g data-dediren-node-decorator="archimate_application_component" data-dediren-icon-kind="component" data-dediren-icon-size="22"><rect x="2042.0" y="1361.0" width="18.0" height="15.8" rx="1.5" fill="#17110A" stroke="#F2A93B" stroke-width="1.5" /><rect x="2038.0" y="1363.6" width="7.9" height="5.7" rx="1.2" fill="#17110A" stroke="#F2A93B" stroke-width="1.5" /><rect x="2038.0" y="1370.7" width="7.9" height="5.7" rx="1.2" fill="#17110A" stroke="#F2A93B" stroke-width="1.5" /></g><text x="1986.0" y="1407.5" text-anchor="middle" dominant-baseline="middle" fill="#ECDFC7" font-size="13.0" textLength="45.5" lengthAdjust="spacing">dist-tool</text></g></g></svg>
