<svg xmlns="http://www.w3.org/2000/svg" role="img" width="2509" height="1460" viewBox="-16 -48 2509 1492" data-arch-a11y="root" data-arch-a11y-viewbox="-16.0 -16.0 2509.0 1460.0"><title>Dediren module architecture</title><desc>Which modules make up the dediren compiler, and how do they depend on each other?</desc>
<text data-arch-a11y="visible-title" x="-8" y="-28" font-family="sans-serif" font-size="16" font-weight="bold">Dediren module architecture</text><rect x="-16.0" y="-16.0" width="2509.0" height="1460.0" fill="#0C0A06"/><g font-family="Inter, Arial, sans-serif" font-size="13"><g data-dediren-group-id="grp-tier0"><rect x="12.0" y="338.0" width="483.0" height="242.0" rx="10" fill="#100B05" stroke="#4A3F2C" stroke-width="1"/><text x="20.0" y="354.0" fill="#F2A93B" font-size="12">Foundation · contracts + IR spine (tier 0)</text></g><g data-dediren-group-id="grp-tier1"><rect x="639.0" y="347.0" width="341.0" height="600.0" rx="10" fill="#100B05" stroke="#4A3F2C" stroke-width="1"/><text x="647.0" y="363.0" fill="#F2A93B" font-size="12">Notation &amp; utility cores · engine seam (tier 1)</text></g><g data-dediren-group-id="grp-tier2"><rect x="1124.0" y="12.0" width="507.0" height="1208.0" rx="10" fill="#100B05" stroke="#4A3F2C" stroke-width="1"/><text x="1132.0" y="28.0" fill="#F2A93B" font-size="12">Orchestration &amp; engines (tier 2)</text></g><g data-dediren-group-id="grp-tier3"><rect x="1775.0" y="916.0" width="690.0" height="500.0" rx="10" fill="#100B05" stroke="#4A3F2C" stroke-width="1"/><text x="1783.0" y="932.0" fill="#F2A93B" font-size="12">Entrypoint &amp; assembly (tier 3)</text></g><g data-dediren-edge-id="serv-contracts-ir"><marker id="marker-end-serv-contracts-ir" data-dediren-edge-marker-end="open_arrow" markerWidth="10" markerHeight="10" refX="9" refY="5" orient="auto"><path d="M 1 1 L 9 5 L 1 9" fill="none" stroke="#7A6B4E" stroke-width="1.5"/></marker><path d="M 205.0 402.0 L 245.0 402.0 Q 253.0 402.0 253.0 410.0 L 253.0 500.0 Q 253.0 508.0 261.0 508.0 L 301.0 508.0" fill="none" stroke="#7A6B4E" stroke-width="1.4" stroke-linecap="round" stroke-linejoin="round" marker-end="url(#marker-end-serv-contracts-ir)"/></g><g data-dediren-edge-id="serv-contracts-uml"><marker id="marker-end-serv-contracts-uml" data-dediren-edge-marker-end="open_arrow" markerWidth="10" markerHeight="10" refX="9" refY="5" orient="auto"><path d="M 1 1 L 9 5 L 1 9" fill="none" stroke="#7A6B4E" stroke-width="1.5"/></marker><g data-dediren-line-jump-masks="serv-contracts-uml"><path d="M 247.0 419.0 Q 253.0 413.0 259.0 419.0" fill="none" stroke="#100B05" stroke-width="6"/></g><path d="M 205.0 419.0 L 247.0 419.0 Q 253.0 413.0 259.0 419.0 L 382.0 419.0 L 519.0 419.0 L 615.0 419.0 L 680.5 419.0" fill="none" stroke="#7A6B4E" stroke-width="1.4" stroke-linecap="round" stroke-linejoin="round" marker-end="url(#marker-end-serv-contracts-uml)"/></g><g data-dediren-edge-id="serv-ir-engine-api"><marker id="marker-end-serv-ir-engine-api" data-dediren-edge-marker-end="open_arrow" markerWidth="10" markerHeight="10" refX="9" refY="5" orient="auto"><path d="M 1 1 L 9 5 L 1 9" fill="none" stroke="#7A6B4E" stroke-width="1.5"/></marker><path d="M 463.0 508.0 L 519.0 508.0 L 559.0 508.0 Q 567.0 508.0 567.0 516.0 L 567.0 563.0 Q 567.0 571.0 575.0 571.0 L 615.0 571.0 L 680.5 571.0" fill="none" stroke="#7A6B4E" stroke-width="1.4" stroke-linecap="round" stroke-linejoin="round" marker-end="url(#marker-end-serv-ir-engine-api)"/></g><g data-dediren-edge-id="serv-engine-api-core"><marker id="marker-end-serv-engine-api-core" data-dediren-edge-marker-end="open_arrow" markerWidth="10" markerHeight="10" refX="9" refY="5" orient="auto"><path d="M 1 1 L 9 5 L 1 9" fill="none" stroke="#7A6B4E" stroke-width="1.5"/></marker><path d="M 842.5 571.0 L 1004.0 571.0 L 1044.0 571.0 Q 1052.0 571.0 1052.0 579.0 L 1052.0 988.0 Q 1052.0 996.0 1060.0 996.0 L 1100.0 996.0 L 1311.3 996.0" fill="none" stroke="#7A6B4E" stroke-width="1.4" stroke-linecap="round" stroke-linejoin="round" marker-end="url(#marker-end-serv-engine-api-core)"/></g><g data-dediren-edge-id="serv-engine-api-semantics-graph"><marker id="marker-end-serv-engine-api-semantics-graph" data-dediren-edge-marker-end="open_arrow" markerWidth="10" markerHeight="10" refX="9" refY="5" orient="auto"><path d="M 1 1 L 9 5 L 1 9" fill="none" stroke="#7A6B4E" stroke-width="1.5"/></marker><path d="M 842.5 571.0 L 1004.0 571.0 L 1044.0 571.0 Q 1052.0 571.0 1052.0 579.0 L 1052.0 684.0 Q 1052.0 692.0 1060.0 692.0 L 1100.0 692.0 L 1252.0 692.0" fill="none" stroke="#7A6B4E" stroke-width="1.4" stroke-linecap="round" stroke-linejoin="round" marker-end="url(#marker-end-serv-engine-api-semantics-graph)"/></g><g data-dediren-edge-id="serv-engine-api-semantics-archimate"><marker id="marker-end-serv-engine-api-semantics-archimate" data-dediren-edge-marker-end="open_arrow" markerWidth="10" markerHeight="10" refX="9" refY="5" orient="auto"><path d="M 1 1 L 9 5 L 1 9" fill="none" stroke="#7A6B4E" stroke-width="1.5"/></marker><path d="M 842.5 571.0 L 1004.0 571.0 L 1044.0 571.0 Q 1052.0 571.0 1052.0 563.0 L 1052.0 517.0 Q 1052.0 509.0 1060.0 509.0 L 1100.0 509.0 L 1196.0 509.0 Q 1204.0 509.0 1204.0 517.0 L 1204.0 524.0 Q 1204.0 532.0 1212.0 532.0 L 1252.0 532.0" fill="none" stroke="#7A6B4E" stroke-width="1.4" stroke-linecap="round" stroke-linejoin="round" marker-end="url(#marker-end-serv-engine-api-semantics-archimate)"/></g><g data-dediren-edge-id="serv-engine-api-semantics-uml"><marker id="marker-end-serv-engine-api-semantics-uml" data-dediren-edge-marker-end="open_arrow" markerWidth="10" markerHeight="10" refX="9" refY="5" orient="auto"><path d="M 1 1 L 9 5 L 1 9" fill="none" stroke="#7A6B4E" stroke-width="1.5"/></marker><path d="M 842.5 571.0 L 1004.0 571.0 L 1044.0 571.0 Q 1052.0 571.0 1052.0 563.0 L 1052.0 213.0 Q 1052.0 205.0 1060.0 205.0 L 1100.0 205.0 L 1196.0 205.0 Q 1204.0 205.0 1204.0 213.0 L 1204.0 220.0 Q 1204.0 228.0 1212.0 228.0 L 1252.0 228.0" fill="none" stroke="#7A6B4E" stroke-width="1.4" stroke-linecap="round" stroke-linejoin="round" marker-end="url(#marker-end-serv-engine-api-semantics-uml)"/></g><g data-dediren-edge-id="serv-engine-api-elk-layout"><marker id="marker-end-serv-engine-api-elk-layout" data-dediren-edge-marker-end="open_arrow" markerWidth="10" markerHeight="10" refX="9" refY="5" orient="auto"><path d="M 1 1 L 9 5 L 1 9" fill="none" stroke="#7A6B4E" stroke-width="1.5"/></marker><path d="M 842.5 571.0 L 1004.0 571.0 L 1044.0 571.0 Q 1052.0 571.0 1052.0 563.0 L 1052.0 92.0 Q 1052.0 84.0 1060.0 84.0 L 1100.0 84.0 L 1252.0 84.0" fill="none" stroke="#7A6B4E" stroke-width="1.4" stroke-linecap="round" stroke-linejoin="round" marker-end="url(#marker-end-serv-engine-api-elk-layout)"/></g><g data-dediren-edge-id="serv-engine-api-render"><marker id="marker-end-serv-engine-api-render" data-dediren-edge-marker-end="open_arrow" markerWidth="10" markerHeight="10" refX="9" refY="5" orient="auto"><path d="M 1 1 L 9 5 L 1 9" fill="none" stroke="#7A6B4E" stroke-width="1.5"/></marker><path d="M 842.5 571.0 L 1004.0 571.0 L 1044.0 571.0 Q 1052.0 571.0 1052.0 563.0 L 1052.0 396.0 Q 1052.0 388.0 1060.0 388.0 L 1100.0 388.0 L 1252.0 388.0" fill="none" stroke="#7A6B4E" stroke-width="1.4" stroke-linecap="round" stroke-linejoin="round" marker-end="url(#marker-end-serv-engine-api-render)"/></g><g data-dediren-edge-id="serv-engine-api-archimate-oef-export"><marker id="marker-end-serv-engine-api-archimate-oef-export" data-dediren-edge-marker-end="open_arrow" markerWidth="10" markerHeight="10" refX="9" refY="5" orient="auto"><path d="M 1 1 L 9 5 L 1 9" fill="none" stroke="#7A6B4E" stroke-width="1.5"/></marker><path d="M 842.5 571.0 L 1004.0 571.0 L 1044.0 571.0 Q 1052.0 571.0 1052.0 579.0 L 1052.0 836.0 Q 1052.0 844.0 1060.0 844.0 L 1100.0 844.0 L 1252.0 844.0" fill="none" stroke="#7A6B4E" stroke-width="1.4" stroke-linecap="round" stroke-linejoin="round" marker-end="url(#marker-end-serv-engine-api-archimate-oef-export)"/></g><g data-dediren-edge-id="serv-engine-api-uml-xmi-export"><marker id="marker-end-serv-engine-api-uml-xmi-export" data-dediren-edge-marker-end="open_arrow" markerWidth="10" markerHeight="10" refX="9" refY="5" orient="auto"><path d="M 1 1 L 9 5 L 1 9" fill="none" stroke="#7A6B4E" stroke-width="1.5"/></marker><path d="M 842.5 571.0 L 1004.0 571.0 L 1044.0 571.0 Q 1052.0 571.0 1052.0 579.0 L 1052.0 1140.0 Q 1052.0 1148.0 1060.0 1148.0 L 1100.0 1148.0 L 1252.0 1148.0" fill="none" stroke="#7A6B4E" stroke-width="1.4" stroke-linecap="round" stroke-linejoin="round" marker-end="url(#marker-end-serv-engine-api-uml-xmi-export)"/></g><g data-dediren-edge-id="serv-archimate-semantics-archimate"><marker id="marker-end-serv-archimate-semantics-archimate" data-dediren-edge-marker-end="open_arrow" markerWidth="10" markerHeight="10" refX="9" refY="5" orient="auto"><path d="M 1 1 L 9 5 L 1 9" fill="none" stroke="#7A6B4E" stroke-width="1.5"/></marker><path d="M 852.0 723.0 L 1004.0 723.0 L 1044.0 723.0 Q 1052.0 723.0 1052.0 715.0 L 1052.0 557.0 Q 1052.0 549.0 1060.0 549.0 L 1100.0 549.0 L 1252.0 549.0" fill="none" stroke="#7A6B4E" stroke-width="1.4" stroke-linecap="round" stroke-linejoin="round" marker-end="url(#marker-end-serv-archimate-semantics-archimate)"/></g><g data-dediren-edge-id="serv-archimate-render"><marker id="marker-end-serv-archimate-render" data-dediren-edge-marker-end="open_arrow" markerWidth="10" markerHeight="10" refX="9" refY="5" orient="auto"><path d="M 1 1 L 9 5 L 1 9" fill="none" stroke="#7A6B4E" stroke-width="1.5"/></marker><path d="M 852.0 723.0 L 1004.0 723.0 L 1044.0 723.0 Q 1052.0 723.0 1052.0 715.0 L 1052.0 396.0 Q 1052.0 388.0 1060.0 388.0 L 1100.0 388.0 L 1252.0 388.0" fill="none" stroke="#7A6B4E" stroke-width="1.4" stroke-linecap="round" stroke-linejoin="round" marker-end="url(#marker-end-serv-archimate-render)"/></g><g data-dediren-edge-id="serv-archimate-archimate-oef-export"><marker id="marker-end-serv-archimate-archimate-oef-export" data-dediren-edge-marker-end="open_arrow" markerWidth="10" markerHeight="10" refX="9" refY="5" orient="auto"><path d="M 1 1 L 9 5 L 1 9" fill="none" stroke="#7A6B4E" stroke-width="1.5"/></marker><path d="M 852.0 723.0 L 1004.0 723.0 L 1044.0 723.0 Q 1052.0 723.0 1052.0 731.0 L 1052.0 836.0 Q 1052.0 844.0 1060.0 844.0 L 1100.0 844.0 L 1252.0 844.0" fill="none" stroke="#7A6B4E" stroke-width="1.4" stroke-linecap="round" stroke-linejoin="round" marker-end="url(#marker-end-serv-archimate-archimate-oef-export)"/></g><g data-dediren-edge-id="serv-uml-semantics-uml"><marker id="marker-end-serv-uml-semantics-uml" data-dediren-edge-marker-end="open_arrow" markerWidth="10" markerHeight="10" refX="9" refY="5" orient="auto"><path d="M 1 1 L 9 5 L 1 9" fill="none" stroke="#7A6B4E" stroke-width="1.5"/></marker><path d="M 842.5 419.0 L 1004.0 419.0 L 1044.0 419.0 Q 1052.0 419.0 1052.0 411.0 L 1052.0 253.0 Q 1052.0 245.0 1060.0 245.0 L 1100.0 245.0 L 1252.0 245.0" fill="none" stroke="#7A6B4E" stroke-width="1.4" stroke-linecap="round" stroke-linejoin="round" marker-end="url(#marker-end-serv-uml-semantics-uml)"/></g><g data-dediren-edge-id="serv-uml-render"><marker id="marker-end-serv-uml-render" data-dediren-edge-marker-end="open_arrow" markerWidth="10" markerHeight="10" refX="9" refY="5" orient="auto"><path d="M 1 1 L 9 5 L 1 9" fill="none" stroke="#7A6B4E" stroke-width="1.5"/></marker><path d="M 842.5 419.0 L 1004.0 419.0 L 1044.0 419.0 Q 1052.0 419.0 1052.0 411.0 L 1052.0 396.0 Q 1052.0 388.0 1060.0 388.0 L 1100.0 388.0 L 1252.0 388.0" fill="none" stroke="#7A6B4E" stroke-width="1.4" stroke-linecap="round" stroke-linejoin="round" marker-end="url(#marker-end-serv-uml-render)"/></g><g data-dediren-edge-id="serv-uml-uml-xmi-export"><marker id="marker-end-serv-uml-uml-xmi-export" data-dediren-edge-marker-end="open_arrow" markerWidth="10" markerHeight="10" refX="9" refY="5" orient="auto"><path d="M 1 1 L 9 5 L 1 9" fill="none" stroke="#7A6B4E" stroke-width="1.5"/></marker><path d="M 842.5 419.0 L 1004.0 419.0 L 1044.0 419.0 Q 1052.0 419.0 1052.0 427.0 L 1052.0 1140.0 Q 1052.0 1148.0 1060.0 1148.0 L 1100.0 1148.0 L 1252.0 1148.0" fill="none" stroke="#7A6B4E" stroke-width="1.4" stroke-linecap="round" stroke-linejoin="round" marker-end="url(#marker-end-serv-uml-uml-xmi-export)"/></g><g data-dediren-edge-id="serv-schema-cache-archimate-oef-export"><marker id="marker-end-serv-schema-cache-archimate-oef-export" data-dediren-edge-marker-end="open_arrow" markerWidth="10" markerHeight="10" refX="9" refY="5" orient="auto"><path d="M 1 1 L 9 5 L 1 9" fill="none" stroke="#7A6B4E" stroke-width="1.5"/></marker><g data-dediren-line-jump-masks="serv-schema-cache-archimate-oef-export"><path d="M 1046.0 844.0 Q 1052.0 838.0 1058.0 844.0" fill="none" stroke="#0C0A06" stroke-width="6"/></g><path d="M 852.0 867.0 L 892.0 867.0 Q 900.0 867.0 900.0 859.0 L 900.0 852.0 Q 900.0 844.0 908.0 844.0 L 1004.0 844.0 L 1046.0 844.0 Q 1052.0 838.0 1058.0 844.0 L 1100.0 844.0 L 1252.0 844.0" fill="none" stroke="#7A6B4E" stroke-width="1.4" stroke-linecap="round" stroke-linejoin="round" marker-end="url(#marker-end-serv-schema-cache-archimate-oef-export)"/></g><g data-dediren-edge-id="serv-schema-cache-uml-xmi-export"><marker id="marker-end-serv-schema-cache-uml-xmi-export" data-dediren-edge-marker-end="open_arrow" markerWidth="10" markerHeight="10" refX="9" refY="5" orient="auto"><path d="M 1 1 L 9 5 L 1 9" fill="none" stroke="#7A6B4E" stroke-width="1.5"/></marker><path d="M 852.0 884.0 L 1004.0 884.0 L 1044.0 884.0 Q 1052.0 884.0 1052.0 892.0 L 1052.0 1140.0 Q 1052.0 1148.0 1060.0 1148.0 L 1100.0 1148.0 L 1252.0 1148.0" fill="none" stroke="#7A6B4E" stroke-width="1.4" stroke-linecap="round" stroke-linejoin="round" marker-end="url(#marker-end-serv-schema-cache-uml-xmi-export)"/></g><g data-dediren-edge-id="serv-core-mcp-server"><marker id="marker-end-serv-core-mcp-server" data-dediren-edge-marker-end="open_arrow" markerWidth="10" markerHeight="10" refX="9" refY="5" orient="auto"><path d="M 1 1 L 9 5 L 1 9" fill="none" stroke="#7A6B4E" stroke-width="1.5"/></marker><path d="M 1473.3 988.0 L 1655.0 988.0 L 1751.0 988.0 L 1807.0 988.0" fill="none" stroke="#7A6B4E" stroke-width="1.4" stroke-linecap="round" stroke-linejoin="round" marker-end="url(#marker-end-serv-core-mcp-server)"/></g><g data-dediren-edge-id="serv-core-cli"><marker id="marker-end-serv-core-cli" data-dediren-edge-marker-end="open_arrow" markerWidth="10" markerHeight="10" refX="9" refY="5" orient="auto"><path d="M 1 1 L 9 5 L 1 9" fill="none" stroke="#7A6B4E" stroke-width="1.5"/></marker><path d="M 1473.3 1005.0 L 1543.0 1005.0 Q 1551.0 1005.0 1551.0 1013.0 L 1551.0 1020.0 Q 1551.0 1028.0 1559.0 1028.0 L 1655.0 1028.0 L 1695.0 1028.0 Q 1703.0 1028.0 1703.0 1036.0 L 1703.0 1158.0 Q 1703.0 1166.0 1711.0 1166.0 L 1751.0 1166.0 L 1887.5 1166.0 L 2040.0 1166.0" fill="none" stroke="#7A6B4E" stroke-width="1.4" stroke-linecap="round" stroke-linejoin="round" marker-end="url(#marker-end-serv-core-cli)"/></g><g data-dediren-edge-id="serv-mcp-server-cli"><marker id="marker-end-serv-mcp-server-cli" data-dediren-edge-marker-end="open_arrow" markerWidth="10" markerHeight="10" refX="9" refY="5" orient="auto"><path d="M 1 1 L 9 5 L 1 9" fill="none" stroke="#7A6B4E" stroke-width="1.5"/></marker><path d="M 1888.0 1029.0 L 1888.0 1069.0 Q 1888.0 1077.0 1896.0 1077.0 L 2113.0 1077.0 Q 2121.0 1077.0 2121.0 1085.0 L 2121.0 1125.0" fill="none" stroke="#7A6B4E" stroke-width="1.4" stroke-linecap="round" stroke-linejoin="round" marker-end="url(#marker-end-serv-mcp-server-cli)"/></g><g data-dediren-edge-id="serv-cli-dist-tool"><marker id="marker-end-serv-cli-dist-tool" data-dediren-edge-marker-end="open_arrow" markerWidth="10" markerHeight="10" refX="9" refY="5" orient="auto"><path d="M 1 1 L 9 5 L 1 9" fill="none" stroke="#7A6B4E" stroke-width="1.5"/></marker><path d="M 2121.0 1207.0 L 2121.0 1247.0 Q 2121.0 1255.0 2129.0 1255.0 L 2345.0 1255.0 Q 2353.0 1255.0 2353.0 1263.0 L 2353.0 1303.0" fill="none" stroke="#7A6B4E" stroke-width="1.4" stroke-linecap="round" stroke-linejoin="round" marker-end="url(#marker-end-serv-cli-dist-tool)"/></g><g data-dediren-node-id="contracts"><rect data-dediren-node-shape="archimate_rectangle" x="44.0" y="370.0" width="160.0" height="80.0" rx="0" fill="#17110A" stroke="#54D98A" stroke-width="1.5"/><g data-dediren-node-decorator="archimate_application_component" data-dediren-icon-kind="component" data-dediren-icon-size="22"><rect x="180.0" y="379.0" width="18.0" height="15.8" rx="1.5" fill="#17110A" stroke="#54D98A" stroke-width="1.5"/><rect x="176.0" y="381.6" width="7.9" height="5.7" rx="1.2" fill="#17110A" stroke="#54D98A" stroke-width="1.5"/><rect x="176.0" y="388.7" width="7.9" height="5.7" rx="1.2" fill="#17110A" stroke="#54D98A" stroke-width="1.5"/></g><text x="124.0" y="425.5" text-anchor="middle" dominant-baseline="middle" fill="#54D98A" font-size="13.0" textLength="52.7" lengthAdjust="spacing">contracts</text></g><g data-dediren-node-id="ir"><rect data-dediren-node-shape="archimate_rectangle" x="302.0" y="468.0" width="160.0" height="80.0" rx="0" fill="#17110A" stroke="#F2A93B" stroke-width="1.5"/><g data-dediren-node-decorator="archimate_application_component" data-dediren-icon-kind="component" data-dediren-icon-size="22"><rect x="438.0" y="477.0" width="18.0" height="15.8" rx="1.5" fill="#17110A" stroke="#F2A93B" stroke-width="1.5"/><rect x="434.0" y="479.6" width="7.9" height="5.7" rx="1.2" fill="#17110A" stroke="#F2A93B" stroke-width="1.5"/><rect x="434.0" y="486.7" width="7.9" height="5.7" rx="1.2" fill="#17110A" stroke="#F2A93B" stroke-width="1.5"/></g><text x="382.0" y="523.5" text-anchor="middle" dominant-baseline="middle" fill="#ECDFC7" font-size="13.0" textLength="7.2" lengthAdjust="spacing">ir</text></g><g data-dediren-node-id="archimate"><rect data-dediren-node-shape="archimate_rectangle" x="691.0" y="683.0" width="160.0" height="80.0" rx="0" fill="#17110A" stroke="#F2A93B" stroke-width="1.5"/><g data-dediren-node-decorator="archimate_application_component" data-dediren-icon-kind="component" data-dediren-icon-size="22"><rect x="827.0" y="692.0" width="18.0" height="15.8" rx="1.5" fill="#17110A" stroke="#F2A93B" stroke-width="1.5"/><rect x="823.0" y="694.6" width="7.9" height="5.7" rx="1.2" fill="#17110A" stroke="#F2A93B" stroke-width="1.5"/><rect x="823.0" y="701.7" width="7.9" height="5.7" rx="1.2" fill="#17110A" stroke="#F2A93B" stroke-width="1.5"/></g><text x="771.0" y="738.5" text-anchor="middle" dominant-baseline="middle" fill="#ECDFC7" font-size="13.0" textLength="57.0" lengthAdjust="spacing">archimate</text></g><g data-dediren-node-id="uml"><rect data-dediren-node-shape="archimate_rectangle" x="681.5" y="379.0" width="160.0" height="80.0" rx="0" fill="#17110A" stroke="#F2A93B" stroke-width="1.5"/><g data-dediren-node-decorator="archimate_application_component" data-dediren-icon-kind="component" data-dediren-icon-size="22"><rect x="817.5" y="388.0" width="18.0" height="15.8" rx="1.5" fill="#17110A" stroke="#F2A93B" stroke-width="1.5"/><rect x="813.5" y="390.6" width="7.9" height="5.7" rx="1.2" fill="#17110A" stroke="#F2A93B" stroke-width="1.5"/><rect x="813.5" y="397.7" width="7.9" height="5.7" rx="1.2" fill="#17110A" stroke="#F2A93B" stroke-width="1.5"/></g><text x="761.5" y="434.5" text-anchor="middle" dominant-baseline="middle" fill="#ECDFC7" font-size="13.0" textLength="20.9" lengthAdjust="spacing">uml</text></g><g data-dediren-node-id="schema-cache"><rect data-dediren-node-shape="archimate_rectangle" x="671.0" y="835.0" width="180.0" height="80.0" rx="0" fill="#17110A" stroke="#F2A93B" stroke-width="1.5"/><g data-dediren-node-decorator="archimate_application_component" data-dediren-icon-kind="component" data-dediren-icon-size="22"><rect x="827.0" y="844.0" width="18.0" height="15.8" rx="1.5" fill="#17110A" stroke="#F2A93B" stroke-width="1.5"/><rect x="823.0" y="846.6" width="7.9" height="5.7" rx="1.2" fill="#17110A" stroke="#F2A93B" stroke-width="1.5"/><rect x="823.0" y="853.7" width="7.9" height="5.7" rx="1.2" fill="#17110A" stroke="#F2A93B" stroke-width="1.5"/></g><text x="761.0" y="890.5" text-anchor="middle" dominant-baseline="middle" fill="#ECDFC7" font-size="13.0" textLength="84.5" lengthAdjust="spacing">schema-cache</text></g><g data-dediren-node-id="engine-api"><rect data-dediren-node-shape="archimate_rectangle" x="681.5" y="531.0" width="160.0" height="80.0" rx="0" fill="#17110A" stroke="#F2A93B" stroke-width="1.5"/><g data-dediren-node-decorator="archimate_application_component" data-dediren-icon-kind="component" data-dediren-icon-size="22"><rect x="817.5" y="540.0" width="18.0" height="15.8" rx="1.5" fill="#17110A" stroke="#F2A93B" stroke-width="1.5"/><rect x="813.5" y="542.6" width="7.9" height="5.7" rx="1.2" fill="#17110A" stroke="#F2A93B" stroke-width="1.5"/><rect x="813.5" y="549.7" width="7.9" height="5.7" rx="1.2" fill="#17110A" stroke="#F2A93B" stroke-width="1.5"/></g><text x="761.5" y="586.5" text-anchor="middle" dominant-baseline="middle" fill="#ECDFC7" font-size="13.0" textLength="60.6" lengthAdjust="spacing">engine-api</text></g><g data-dediren-node-id="core"><rect data-dediren-node-shape="archimate_rectangle" x="1312.3" y="956.0" width="160.0" height="80.0" rx="0" fill="#17110A" stroke="#F2A93B" stroke-width="1.5"/><g data-dediren-node-decorator="archimate_application_component" data-dediren-icon-kind="component" data-dediren-icon-size="22"><rect x="1448.3" y="965.0" width="18.0" height="15.8" rx="1.5" fill="#17110A" stroke="#F2A93B" stroke-width="1.5"/><rect x="1444.3" y="967.6" width="7.9" height="5.7" rx="1.2" fill="#17110A" stroke="#F2A93B" stroke-width="1.5"/><rect x="1444.3" y="974.7" width="7.9" height="5.7" rx="1.2" fill="#17110A" stroke="#F2A93B" stroke-width="1.5"/></g><text x="1392.3" y="1011.5" text-anchor="middle" dominant-baseline="middle" fill="#ECDFC7" font-size="13.0" textLength="25.2" lengthAdjust="spacing">core</text></g><g data-dediren-node-id="semantics-graph"><rect data-dediren-node-shape="archimate_rectangle" x="1253.0" y="652.0" width="200.0" height="80.0" rx="0" fill="#17110A" stroke="#F2A93B" stroke-width="1.5"/><g data-dediren-node-decorator="archimate_application_component" data-dediren-icon-kind="component" data-dediren-icon-size="22"><rect x="1429.0" y="661.0" width="18.0" height="15.8" rx="1.5" fill="#17110A" stroke="#F2A93B" stroke-width="1.5"/><rect x="1425.0" y="663.6" width="7.9" height="5.7" rx="1.2" fill="#17110A" stroke="#F2A93B" stroke-width="1.5"/><rect x="1425.0" y="670.7" width="7.9" height="5.7" rx="1.2" fill="#17110A" stroke="#F2A93B" stroke-width="1.5"/></g><text x="1353.0" y="707.5" text-anchor="middle" dominant-baseline="middle" fill="#ECDFC7" font-size="13.0" textLength="96.0" lengthAdjust="spacing">semantics-graph</text></g><g data-dediren-node-id="semantics-archimate"><rect data-dediren-node-shape="archimate_rectangle" x="1253.0" y="500.0" width="240.0" height="80.0" rx="0" fill="#17110A" stroke="#F2A93B" stroke-width="1.5"/><g data-dediren-node-decorator="archimate_application_component" data-dediren-icon-kind="component" data-dediren-icon-size="22"><rect x="1469.0" y="509.0" width="18.0" height="15.8" rx="1.5" fill="#17110A" stroke="#F2A93B" stroke-width="1.5"/><rect x="1465.0" y="511.6" width="7.9" height="5.7" rx="1.2" fill="#17110A" stroke="#F2A93B" stroke-width="1.5"/><rect x="1465.0" y="518.7" width="7.9" height="5.7" rx="1.2" fill="#17110A" stroke="#F2A93B" stroke-width="1.5"/></g><text x="1373.0" y="555.5" text-anchor="middle" dominant-baseline="middle" fill="#ECDFC7" font-size="13.0" textLength="119.9" lengthAdjust="spacing">semantics-archimate</text></g><g data-dediren-node-id="semantics-uml"><rect data-dediren-node-shape="archimate_rectangle" x="1253.0" y="196.0" width="190.0" height="80.0" rx="0" fill="#17110A" stroke="#F2A93B" stroke-width="1.5"/><g data-dediren-node-decorator="archimate_application_component" data-dediren-icon-kind="component" data-dediren-icon-size="22"><rect x="1419.0" y="205.0" width="18.0" height="15.8" rx="1.5" fill="#17110A" stroke="#F2A93B" stroke-width="1.5"/><rect x="1415.0" y="207.6" width="7.9" height="5.7" rx="1.2" fill="#17110A" stroke="#F2A93B" stroke-width="1.5"/><rect x="1415.0" y="214.7" width="7.9" height="5.7" rx="1.2" fill="#17110A" stroke="#F2A93B" stroke-width="1.5"/></g><text x="1348.0" y="251.5" text-anchor="middle" dominant-baseline="middle" fill="#ECDFC7" font-size="13.0" textLength="83.7" lengthAdjust="spacing">semantics-uml</text></g><g data-dediren-node-id="elk-layout"><rect data-dediren-node-shape="archimate_rectangle" x="1253.0" y="44.0" width="160.0" height="80.0" rx="0" fill="#17110A" stroke="#F2A93B" stroke-width="1.5"/><g data-dediren-node-decorator="archimate_application_component" data-dediren-icon-kind="component" data-dediren-icon-size="22"><rect x="1389.0" y="53.0" width="18.0" height="15.8" rx="1.5" fill="#17110A" stroke="#F2A93B" stroke-width="1.5"/><rect x="1385.0" y="55.6" width="7.9" height="5.7" rx="1.2" fill="#17110A" stroke="#F2A93B" stroke-width="1.5"/><rect x="1385.0" y="62.7" width="7.9" height="5.7" rx="1.2" fill="#17110A" stroke="#F2A93B" stroke-width="1.5"/></g><text x="1333.0" y="99.5" text-anchor="middle" dominant-baseline="middle" fill="#ECDFC7" font-size="13.0" textLength="55.6" lengthAdjust="spacing">elk-layout</text></g><g data-dediren-node-id="render"><rect data-dediren-node-shape="archimate_rectangle" x="1253.0" y="348.0" width="160.0" height="80.0" rx="0" fill="#17110A" stroke="#F2A93B" stroke-width="1.5"/><g data-dediren-node-decorator="archimate_application_component" data-dediren-icon-kind="component" data-dediren-icon-size="22"><rect x="1389.0" y="357.0" width="18.0" height="15.8" rx="1.5" fill="#17110A" stroke="#F2A93B" stroke-width="1.5"/><rect x="1385.0" y="359.6" width="7.9" height="5.7" rx="1.2" fill="#17110A" stroke="#F2A93B" stroke-width="1.5"/><rect x="1385.0" y="366.7" width="7.9" height="5.7" rx="1.2" fill="#17110A" stroke="#F2A93B" stroke-width="1.5"/></g><text x="1333.0" y="403.5" text-anchor="middle" dominant-baseline="middle" fill="#ECDFC7" font-size="13.0" textLength="37.5" lengthAdjust="spacing">render</text></g><g data-dediren-node-id="archimate-oef-export"><rect data-dediren-node-shape="archimate_rectangle" x="1253.0" y="804.0" width="250.0" height="80.0" rx="0" fill="#17110A" stroke="#F2A93B" stroke-width="1.5"/><g data-dediren-node-decorator="archimate_application_component" data-dediren-icon-kind="component" data-dediren-icon-size="22"><rect x="1479.0" y="813.0" width="18.0" height="15.8" rx="1.5" fill="#17110A" stroke="#F2A93B" stroke-width="1.5"/><rect x="1475.0" y="815.6" width="7.9" height="5.7" rx="1.2" fill="#17110A" stroke="#F2A93B" stroke-width="1.5"/><rect x="1475.0" y="822.7" width="7.9" height="5.7" rx="1.2" fill="#17110A" stroke="#F2A93B" stroke-width="1.5"/></g><text x="1378.0" y="859.5" text-anchor="middle" dominant-baseline="middle" fill="#ECDFC7" font-size="13.0" textLength="119.9" lengthAdjust="spacing">archimate-oef-export</text></g><g data-dediren-node-id="uml-xmi-export"><rect data-dediren-node-shape="archimate_rectangle" x="1253.0" y="1108.0" width="190.0" height="80.0" rx="0" fill="#17110A" stroke="#F2A93B" stroke-width="1.5"/><g data-dediren-node-decorator="archimate_application_component" data-dediren-icon-kind="component" data-dediren-icon-size="22"><rect x="1419.0" y="1117.0" width="18.0" height="15.8" rx="1.5" fill="#17110A" stroke="#F2A93B" stroke-width="1.5"/><rect x="1415.0" y="1119.6" width="7.9" height="5.7" rx="1.2" fill="#17110A" stroke="#F2A93B" stroke-width="1.5"/><rect x="1415.0" y="1126.7" width="7.9" height="5.7" rx="1.2" fill="#17110A" stroke="#F2A93B" stroke-width="1.5"/></g><text x="1348.0" y="1163.5" text-anchor="middle" dominant-baseline="middle" fill="#ECDFC7" font-size="13.0" textLength="85.9" lengthAdjust="spacing">uml-xmi-export</text></g><g data-dediren-node-id="mcp-server"><rect data-dediren-node-shape="archimate_rectangle" x="1808.0" y="948.0" width="160.0" height="80.0" rx="0" fill="#17110A" stroke="#F2A93B" stroke-width="1.5"/><g data-dediren-node-decorator="archimate_application_component" data-dediren-icon-kind="component" data-dediren-icon-size="22"><rect x="1944.0" y="957.0" width="18.0" height="15.8" rx="1.5" fill="#17110A" stroke="#F2A93B" stroke-width="1.5"/><rect x="1940.0" y="959.6" width="7.9" height="5.7" rx="1.2" fill="#17110A" stroke="#F2A93B" stroke-width="1.5"/><rect x="1940.0" y="966.7" width="7.9" height="5.7" rx="1.2" fill="#17110A" stroke="#F2A93B" stroke-width="1.5"/></g><text x="1888.0" y="1003.5" text-anchor="middle" dominant-baseline="middle" fill="#ECDFC7" font-size="13.0" textLength="65.0" lengthAdjust="spacing">mcp-server</text></g><g data-dediren-node-id="cli"><rect data-dediren-node-shape="archimate_rectangle" x="2041.0" y="1126.0" width="160.0" height="80.0" rx="0" fill="#17110A" stroke="#F2A93B" stroke-width="1.5"/><g data-dediren-node-decorator="archimate_application_component" data-dediren-icon-kind="component" data-dediren-icon-size="22"><rect x="2177.0" y="1135.0" width="18.0" height="15.8" rx="1.5" fill="#17110A" stroke="#F2A93B" stroke-width="1.5"/><rect x="2173.0" y="1137.6" width="7.9" height="5.7" rx="1.2" fill="#17110A" stroke="#F2A93B" stroke-width="1.5"/><rect x="2173.0" y="1144.7" width="7.9" height="5.7" rx="1.2" fill="#17110A" stroke="#F2A93B" stroke-width="1.5"/></g><text x="2121.0" y="1181.5" text-anchor="middle" dominant-baseline="middle" fill="#ECDFC7" font-size="13.0" textLength="12.2" lengthAdjust="spacing">cli</text></g><g data-dediren-node-id="dist-tool"><rect data-dediren-node-shape="archimate_rectangle" x="2273.0" y="1304.0" width="160.0" height="80.0" rx="0" fill="#17110A" stroke="#F2A93B" stroke-width="1.5"/><g data-dediren-node-decorator="archimate_application_component" data-dediren-icon-kind="component" data-dediren-icon-size="22"><rect x="2409.0" y="1313.0" width="18.0" height="15.8" rx="1.5" fill="#17110A" stroke="#F2A93B" stroke-width="1.5"/><rect x="2405.0" y="1315.6" width="7.9" height="5.7" rx="1.2" fill="#17110A" stroke="#F2A93B" stroke-width="1.5"/><rect x="2405.0" y="1322.7" width="7.9" height="5.7" rx="1.2" fill="#17110A" stroke="#F2A93B" stroke-width="1.5"/></g><text x="2353.0" y="1359.5" text-anchor="middle" dominant-baseline="middle" fill="#ECDFC7" font-size="13.0" textLength="45.5" lengthAdjust="spacing">dist-tool</text></g></g></svg>
