<svg xmlns="http://www.w3.org/2000/svg" role="img" width="2437" height="1541" viewBox="-48.5 -48.5 2437.0 1541.0"><metadata id="dediren-provenance">{"model_schema_version":"model.schema.v1","model_sha256":"32421b4d62998a716de12be2949235d1fda320db22c39a5ecd99655577d54038","view_id":"module-architecture","render_policy_sha256":"6aa4faae10a99accc7d582326f1abe26aa11d4644a164b0bda46cf14d833dc8e","dediren_version":"2026.08.4"}</metadata><title>Dediren module architecture</title><desc>Which modules make up the dediren compiler, and how do they depend on each other?</desc><rect x="-48.5" y="-48.5" width="2437.0" height="1541.0" fill="#0C0A06"/><g font-family="Inter, Arial, sans-serif" font-size="13"><g data-dediren-group-id="grp-tier0"><rect x="1003.0" y="-20.0" width="785.0" height="322.0" rx="10" fill="#100B05" stroke="#4A3F2C" stroke-width="1"/><text x="1011.0" y="-4.0" fill="#F2A93B" font-size="12">Foundation · contracts + IR spine (tier 0)</text></g><g data-dediren-group-id="grp-tier1"><rect x="883.0" y="312.0" width="1218.0" height="144.0" rx="10" fill="#100B05" stroke="#4A3F2C" stroke-width="1"/><text x="891.0" y="328.0" fill="#F2A93B" font-size="12">Notation &amp; utility cores · engine seam (tier 1)</text></g><g data-dediren-group-id="grp-tier2"><rect x="-20.0" y="810.0" width="2380.0" height="144.0" rx="10" fill="#100B05" stroke="#4A3F2C" stroke-width="1"/><text x="-12.0" y="826.0" fill="#F2A93B" font-size="12">Orchestration &amp; engines (tier 2)</text></g><g data-dediren-group-id="grp-tier3"><rect x="369.0" y="988.0" width="329.0" height="476.0" rx="10" fill="#100B05" stroke="#4A3F2C" stroke-width="1"/><text x="377.0" y="1004.0" fill="#F2A93B" font-size="12">Entrypoint &amp; assembly (tier 3)</text></g><g data-dediren-edge-id="serv-contracts-ir"><marker id="marker-end-serv-contracts-ir" data-dediren-edge-marker-end="open_arrow" markerWidth="10" markerHeight="10" refX="9" refY="5" orient="auto"><path d="M 1 1 L 9 5 L 1 9" fill="none" stroke="#7A6B4E" stroke-width="1.5"/></marker><path d="M 1653.0 93.0 L 1653.0 133.0 Q 1653.0 141.0 1645.0 141.0 L 1123.0 141.0 Q 1115.0 141.0 1115.0 149.0 L 1115.0 189.0" fill="none" stroke="#7A6B4E" stroke-width="1.4" stroke-linecap="round" stroke-linejoin="round" marker-end="url(#marker-end-serv-contracts-ir)"/></g><g data-dediren-edge-id="serv-contracts-uml"><marker id="marker-end-serv-contracts-uml" data-dediren-edge-marker-end="open_arrow" markerWidth="10" markerHeight="10" refX="9" refY="5" orient="auto"><path d="M 1 1 L 9 5 L 1 9" fill="none" stroke="#7A6B4E" stroke-width="1.5"/></marker><path d="M 1699.0 93.0 L 1699.0 343.0" fill="none" stroke="#7A6B4E" stroke-width="1.4" stroke-linecap="round" stroke-linejoin="round" marker-end="url(#marker-end-serv-contracts-uml)"/></g><g data-dediren-edge-id="serv-ir-engine-api"><marker id="marker-end-serv-ir-engine-api" data-dediren-edge-marker-end="open_arrow" markerWidth="10" markerHeight="10" refX="9" refY="5" orient="auto"><path d="M 1 1 L 9 5 L 1 9" fill="none" stroke="#7A6B4E" stroke-width="1.5"/></marker><path d="M 1115.0 271.0 L 1115.0 343.0" fill="none" stroke="#7A6B4E" stroke-width="1.4" stroke-linecap="round" stroke-linejoin="round" marker-end="url(#marker-end-serv-ir-engine-api)"/></g><g data-dediren-edge-id="serv-engine-api-core"><marker id="marker-end-serv-engine-api-core" data-dediren-edge-marker-end="open_arrow" markerWidth="10" markerHeight="10" refX="9" refY="5" orient="auto"><path d="M 1 1 L 9 5 L 1 9" fill="none" stroke="#7A6B4E" stroke-width="1.5"/></marker><path d="M 1039.0 425.0 L 1039.0 545.0 Q 1039.0 553.0 1031.0 553.0 L 594.0 553.0 Q 586.0 553.0 586.0 561.0 L 586.0 841.0" fill="none" stroke="#7A6B4E" stroke-width="1.4" stroke-linecap="round" stroke-linejoin="round" marker-end="url(#marker-end-serv-engine-api-core)"/></g><g data-dediren-edge-id="serv-engine-api-mermaid-import"><marker id="marker-end-serv-engine-api-mermaid-import" data-dediren-edge-marker-end="open_arrow" markerWidth="10" markerHeight="10" refX="9" refY="5" orient="auto"><path d="M 1 1 L 9 5 L 1 9" fill="none" stroke="#7A6B4E" stroke-width="1.5"/></marker><path d="M 1001.0 425.0 L 1001.0 505.0 Q 1001.0 513.0 993.0 513.0 L 347.0 513.0 Q 339.0 513.0 339.0 521.0 L 339.0 841.0" fill="none" stroke="#7A6B4E" stroke-width="1.4" stroke-linecap="round" stroke-linejoin="round" marker-end="url(#marker-end-serv-engine-api-mermaid-import)"/></g><g data-dediren-edge-id="serv-engine-api-semantics-graph"><marker id="marker-end-serv-engine-api-semantics-graph" data-dediren-edge-marker-end="open_arrow" markerWidth="10" markerHeight="10" refX="9" refY="5" orient="auto"><path d="M 1 1 L 9 5 L 1 9" fill="none" stroke="#7A6B4E" stroke-width="1.5"/></marker><path d="M 1077.0 425.0 L 1077.0 585.0 Q 1077.0 593.0 1069.0 593.0 L 846.0 593.0 Q 838.0 593.0 838.0 601.0 L 838.0 841.0" fill="none" stroke="#7A6B4E" stroke-width="1.4" stroke-linecap="round" stroke-linejoin="round" marker-end="url(#marker-end-serv-engine-api-semantics-graph)"/></g><g data-dediren-edge-id="serv-engine-api-semantics-archimate"><marker id="marker-end-serv-engine-api-semantics-archimate" data-dediren-edge-marker-end="open_arrow" markerWidth="10" markerHeight="10" refX="9" refY="5" orient="auto"><path d="M 1 1 L 9 5 L 1 9" fill="none" stroke="#7A6B4E" stroke-width="1.5"/></marker><path d="M 1115.0 425.0 L 1115.0 625.0 Q 1115.0 633.0 1107.0 633.0 L 1102.0 633.0 Q 1094.0 633.0 1094.0 641.0 L 1094.0 841.0" fill="none" stroke="#7A6B4E" stroke-width="1.4" stroke-linecap="round" stroke-linejoin="round" marker-end="url(#marker-end-serv-engine-api-semantics-archimate)"/></g><g data-dediren-edge-id="serv-engine-api-semantics-uml"><marker id="marker-end-serv-engine-api-semantics-uml" data-dediren-edge-marker-end="open_arrow" markerWidth="10" markerHeight="10" refX="9" refY="5" orient="auto"><path d="M 1 1 L 9 5 L 1 9" fill="none" stroke="#7A6B4E" stroke-width="1.5"/></marker><path d="M 1153.0 425.0 L 1153.0 745.0 Q 1153.0 753.0 1161.0 753.0 L 1381.0 753.0 Q 1389.0 753.0 1389.0 761.0 L 1389.0 841.0" fill="none" stroke="#7A6B4E" stroke-width="1.4" stroke-linecap="round" stroke-linejoin="round" marker-end="url(#marker-end-serv-engine-api-semantics-uml)"/></g><g data-dediren-edge-id="serv-engine-api-elk-layout"><marker id="marker-end-serv-engine-api-elk-layout" data-dediren-edge-marker-end="open_arrow" markerWidth="10" markerHeight="10" refX="9" refY="5" orient="auto"><path d="M 1 1 L 9 5 L 1 9" fill="none" stroke="#7A6B4E" stroke-width="1.5"/></marker><path d="M 963.0 425.0 L 963.0 465.0 Q 963.0 473.0 955.0 473.0 L 100.0 473.0 Q 92.0 473.0 92.0 481.0 L 92.0 841.0" fill="none" stroke="#7A6B4E" stroke-width="1.4" stroke-linecap="round" stroke-linejoin="round" marker-end="url(#marker-end-serv-engine-api-elk-layout)"/></g><g data-dediren-edge-id="serv-engine-api-render"><marker id="marker-end-serv-engine-api-render" data-dediren-edge-marker-end="open_arrow" markerWidth="10" markerHeight="10" refX="9" refY="5" orient="auto"><path d="M 1 1 L 9 5 L 1 9" fill="none" stroke="#7A6B4E" stroke-width="1.5"/></marker><path d="M 1191.0 425.0 L 1191.0 705.0 Q 1191.0 713.0 1199.0 713.0 L 1621.0 713.0 Q 1629.0 713.0 1629.0 721.0 L 1629.0 841.0" fill="none" stroke="#7A6B4E" stroke-width="1.4" stroke-linecap="round" stroke-linejoin="round" marker-end="url(#marker-end-serv-engine-api-render)"/></g><g data-dediren-edge-id="serv-engine-api-archimate-oef-export"><marker id="marker-end-serv-engine-api-archimate-oef-export" data-dediren-edge-marker-end="open_arrow" markerWidth="10" markerHeight="10" refX="9" refY="5" orient="auto"><path d="M 1 1 L 9 5 L 1 9" fill="none" stroke="#7A6B4E" stroke-width="1.5"/></marker><path d="M 1267.0 425.0 L 1267.0 545.0 Q 1267.0 553.0 1275.0 553.0 L 2138.0 553.0 Q 2146.0 553.0 2146.0 561.0 L 2146.0 841.0" fill="none" stroke="#7A6B4E" stroke-width="1.4" stroke-linecap="round" stroke-linejoin="round" marker-end="url(#marker-end-serv-engine-api-archimate-oef-export)"/></g><g data-dediren-edge-id="serv-engine-api-uml-xmi-export"><marker id="marker-end-serv-engine-api-uml-xmi-export" data-dediren-edge-marker-end="open_arrow" markerWidth="10" markerHeight="10" refX="9" refY="5" orient="auto"><path d="M 1 1 L 9 5 L 1 9" fill="none" stroke="#7A6B4E" stroke-width="1.5"/></marker><path d="M 1229.0 425.0 L 1229.0 585.0 Q 1229.0 593.0 1237.0 593.0 L 1861.0 593.0 Q 1869.0 593.0 1869.0 601.0 L 1869.0 841.0" fill="none" stroke="#7A6B4E" stroke-width="1.4" stroke-linecap="round" stroke-linejoin="round" marker-end="url(#marker-end-serv-engine-api-uml-xmi-export)"/></g><g data-dediren-edge-id="serv-archimate-semantics-archimate"><marker id="marker-end-serv-archimate-semantics-archimate" data-dediren-edge-marker-end="open_arrow" markerWidth="10" markerHeight="10" refX="9" refY="5" orient="auto"><path d="M 1 1 L 9 5 L 1 9" fill="none" stroke="#7A6B4E" stroke-width="1.5"/></marker><g data-dediren-line-jump-masks="serv-archimate-semantics-archimate"><path d="M 1432.0 707.0 Q 1438.0 713.0 1432.0 719.0" fill="none" stroke="#0C0A06" stroke-width="6"/><path d="M 1432.0 547.0 Q 1438.0 553.0 1432.0 559.0" fill="none" stroke="#0C0A06" stroke-width="6"/><path d="M 1432.0 587.0 Q 1438.0 593.0 1432.0 599.0" fill="none" stroke="#0C0A06" stroke-width="6"/><path d="M 1383.0 793.0 Q 1389.0 787.0 1395.0 793.0" fill="none" stroke="#0C0A06" stroke-width="6"/></g><path d="M 1432.0 425.0 L 1432.0 547.0 Q 1438.0 553.0 1432.0 559.0 L 1432.0 587.0 Q 1438.0 593.0 1432.0 599.0 L 1432.0 707.0 Q 1438.0 713.0 1432.0 719.0 L 1432.0 785.0 Q 1432.0 793.0 1424.0 793.0 L 1395.0 793.0 Q 1389.0 787.0 1383.0 793.0 L 1175.0 793.0 Q 1167.0 793.0 1167.0 801.0 L 1167.0 841.0" fill="none" stroke="#7A6B4E" stroke-width="1.4" stroke-linecap="round" stroke-linejoin="round" marker-end="url(#marker-end-serv-archimate-semantics-archimate)"/></g><g data-dediren-edge-id="serv-archimate-render"><marker id="marker-end-serv-archimate-render" data-dediren-edge-marker-end="open_arrow" markerWidth="10" markerHeight="10" refX="9" refY="5" orient="auto"><path d="M 1 1 L 9 5 L 1 9" fill="none" stroke="#7A6B4E" stroke-width="1.5"/></marker><g data-dediren-line-jump-masks="serv-archimate-render"><path d="M 1467.0 547.0 Q 1473.0 553.0 1467.0 559.0" fill="none" stroke="#0C0A06" stroke-width="6"/><path d="M 1467.0 587.0 Q 1473.0 593.0 1467.0 599.0" fill="none" stroke="#0C0A06" stroke-width="6"/></g><path d="M 1467.0 425.0 L 1467.0 547.0 Q 1473.0 553.0 1467.0 559.0 L 1467.0 587.0 Q 1473.0 593.0 1467.0 599.0 L 1467.0 665.0 Q 1467.0 673.0 1475.0 673.0 L 1656.0 673.0 Q 1664.0 673.0 1664.0 681.0 L 1664.0 841.0" fill="none" stroke="#7A6B4E" stroke-width="1.4" stroke-linecap="round" stroke-linejoin="round" marker-end="url(#marker-end-serv-archimate-render)"/></g><g data-dediren-edge-id="serv-archimate-archimate-oef-export"><marker id="marker-end-serv-archimate-archimate-oef-export" data-dediren-edge-marker-end="open_arrow" markerWidth="10" markerHeight="10" refX="9" refY="5" orient="auto"><path d="M 1 1 L 9 5 L 1 9" fill="none" stroke="#7A6B4E" stroke-width="1.5"/></marker><path d="M 1502.0 425.0 L 1502.0 505.0 Q 1502.0 513.0 1510.0 513.0 L 2195.0 513.0 Q 2203.0 513.0 2203.0 521.0 L 2203.0 841.0" fill="none" stroke="#7A6B4E" stroke-width="1.4" stroke-linecap="round" stroke-linejoin="round" marker-end="url(#marker-end-serv-archimate-archimate-oef-export)"/></g><g data-dediren-edge-id="serv-uml-semantics-uml"><marker id="marker-end-serv-uml-semantics-uml" data-dediren-edge-marker-end="open_arrow" markerWidth="10" markerHeight="10" refX="9" refY="5" orient="auto"><path d="M 1 1 L 9 5 L 1 9" fill="none" stroke="#7A6B4E" stroke-width="1.5"/></marker><g data-dediren-line-jump-masks="serv-uml-semantics-uml"><path d="M 1664.0 547.0 Q 1670.0 553.0 1664.0 559.0" fill="none" stroke="#0C0A06" stroke-width="6"/><path d="M 1664.0 587.0 Q 1670.0 593.0 1664.0 599.0" fill="none" stroke="#0C0A06" stroke-width="6"/><path d="M 1664.0 507.0 Q 1670.0 513.0 1664.0 519.0" fill="none" stroke="#0C0A06" stroke-width="6"/><path d="M 1461.0 633.0 Q 1467.0 627.0 1473.0 633.0" fill="none" stroke="#0C0A06" stroke-width="6"/><path d="M 1445.0 707.0 Q 1451.0 713.0 1445.0 719.0" fill="none" stroke="#0C0A06" stroke-width="6"/></g><path d="M 1664.0 425.0 L 1664.0 507.0 Q 1670.0 513.0 1664.0 519.0 L 1664.0 547.0 Q 1670.0 553.0 1664.0 559.0 L 1664.0 587.0 Q 1670.0 593.0 1664.0 599.0 L 1664.0 625.0 Q 1664.0 633.0 1656.0 633.0 L 1473.0 633.0 Q 1467.0 627.0 1461.0 633.0 L 1453.0 633.0 Q 1445.0 633.0 1445.0 641.0 L 1445.0 707.0 Q 1451.0 713.0 1445.0 719.0 L 1445.0 841.0" fill="none" stroke="#7A6B4E" stroke-width="1.4" stroke-linecap="round" stroke-linejoin="round" marker-end="url(#marker-end-serv-uml-semantics-uml)"/></g><g data-dediren-edge-id="serv-uml-render"><marker id="marker-end-serv-uml-render" data-dediren-edge-marker-end="open_arrow" markerWidth="10" markerHeight="10" refX="9" refY="5" orient="auto"><path d="M 1 1 L 9 5 L 1 9" fill="none" stroke="#7A6B4E" stroke-width="1.5"/></marker><g data-dediren-line-jump-masks="serv-uml-render"><path d="M 1699.0 547.0 Q 1705.0 553.0 1699.0 559.0" fill="none" stroke="#0C0A06" stroke-width="6"/><path d="M 1699.0 587.0 Q 1705.0 593.0 1699.0 599.0" fill="none" stroke="#0C0A06" stroke-width="6"/><path d="M 1699.0 507.0 Q 1705.0 513.0 1699.0 519.0" fill="none" stroke="#0C0A06" stroke-width="6"/></g><path d="M 1699.0 425.0 L 1699.0 507.0 Q 1705.0 513.0 1699.0 519.0 L 1699.0 547.0 Q 1705.0 553.0 1699.0 559.0 L 1699.0 587.0 Q 1705.0 593.0 1699.0 599.0 L 1699.0 841.0" fill="none" stroke="#7A6B4E" stroke-width="1.4" stroke-linecap="round" stroke-linejoin="round" marker-end="url(#marker-end-serv-uml-render)"/></g><g data-dediren-edge-id="serv-uml-uml-xmi-export"><marker id="marker-end-serv-uml-uml-xmi-export" data-dediren-edge-marker-end="open_arrow" markerWidth="10" markerHeight="10" refX="9" refY="5" orient="auto"><path d="M 1 1 L 9 5 L 1 9" fill="none" stroke="#7A6B4E" stroke-width="1.5"/></marker><g data-dediren-line-jump-masks="serv-uml-uml-xmi-export"><path d="M 1911.0 547.0 Q 1917.0 553.0 1911.0 559.0" fill="none" stroke="#0C0A06" stroke-width="6"/><path d="M 1911.0 507.0 Q 1917.0 513.0 1911.0 519.0" fill="none" stroke="#0C0A06" stroke-width="6"/></g><path d="M 1734.0 425.0 L 1734.0 465.0 Q 1734.0 473.0 1742.0 473.0 L 1903.0 473.0 Q 1911.0 473.0 1911.0 481.0 L 1911.0 507.0 Q 1917.0 513.0 1911.0 519.0 L 1911.0 547.0 Q 1917.0 553.0 1911.0 559.0 L 1911.0 841.0" fill="none" stroke="#7A6B4E" stroke-width="1.4" stroke-linecap="round" stroke-linejoin="round" marker-end="url(#marker-end-serv-uml-uml-xmi-export)"/></g><g data-dediren-edge-id="serv-schema-cache-archimate-oef-export"><marker id="marker-end-serv-schema-cache-archimate-oef-export" data-dediren-edge-marker-end="open_arrow" markerWidth="10" markerHeight="10" refX="9" refY="5" orient="auto"><path d="M 1 1 L 9 5 L 1 9" fill="none" stroke="#7A6B4E" stroke-width="1.5"/></marker><path d="M 2006.0 425.0 L 2006.0 465.0 Q 2006.0 473.0 2014.0 473.0 L 2252.0 473.0 Q 2260.0 473.0 2260.0 481.0 L 2260.0 841.0" fill="none" stroke="#7A6B4E" stroke-width="1.4" stroke-linecap="round" stroke-linejoin="round" marker-end="url(#marker-end-serv-schema-cache-archimate-oef-export)"/></g><g data-dediren-edge-id="serv-schema-cache-uml-xmi-export"><marker id="marker-end-serv-schema-cache-uml-xmi-export" data-dediren-edge-marker-end="open_arrow" markerWidth="10" markerHeight="10" refX="9" refY="5" orient="auto"><path d="M 1 1 L 9 5 L 1 9" fill="none" stroke="#7A6B4E" stroke-width="1.5"/></marker><g data-dediren-line-jump-masks="serv-schema-cache-uml-xmi-export"><path d="M 1953.0 547.0 Q 1959.0 553.0 1953.0 559.0" fill="none" stroke="#0C0A06" stroke-width="6"/><path d="M 1953.0 507.0 Q 1959.0 513.0 1953.0 519.0" fill="none" stroke="#0C0A06" stroke-width="6"/></g><path d="M 1953.0 425.0 L 1953.0 507.0 Q 1959.0 513.0 1953.0 519.0 L 1953.0 547.0 Q 1959.0 553.0 1953.0 559.0 L 1953.0 841.0" fill="none" stroke="#7A6B4E" stroke-width="1.4" stroke-linecap="round" stroke-linejoin="round" marker-end="url(#marker-end-serv-schema-cache-uml-xmi-export)"/></g><g data-dediren-edge-id="serv-core-mcp-server"><marker id="marker-end-serv-core-mcp-server" data-dediren-edge-marker-end="open_arrow" markerWidth="10" markerHeight="10" refX="9" refY="5" orient="auto"><path d="M 1 1 L 9 5 L 1 9" fill="none" stroke="#7A6B4E" stroke-width="1.5"/></marker><path d="M 563.0 923.0 L 563.0 963.0 Q 563.0 971.0 555.0 971.0 L 489.0 971.0 Q 481.0 971.0 481.0 979.0 L 481.0 1019.0" fill="none" stroke="#7A6B4E" stroke-width="1.4" stroke-linecap="round" stroke-linejoin="round" marker-end="url(#marker-end-serv-core-mcp-server)"/></g><g data-dediren-edge-id="serv-core-cli"><marker id="marker-end-serv-core-cli" data-dediren-edge-marker-end="open_arrow" markerWidth="10" markerHeight="10" refX="9" refY="5" orient="auto"><path d="M 1 1 L 9 5 L 1 9" fill="none" stroke="#7A6B4E" stroke-width="1.5"/></marker><path d="M 609.0 923.0 L 609.0 1197.0" fill="none" stroke="#7A6B4E" stroke-width="1.4" stroke-linecap="round" stroke-linejoin="round" marker-end="url(#marker-end-serv-core-cli)"/></g><g data-dediren-edge-id="serv-mcp-server-cli"><marker id="marker-end-serv-mcp-server-cli" data-dediren-edge-marker-end="open_arrow" markerWidth="10" markerHeight="10" refX="9" refY="5" orient="auto"><path d="M 1 1 L 9 5 L 1 9" fill="none" stroke="#7A6B4E" stroke-width="1.5"/></marker><path d="M 481.0 1101.0 L 481.0 1141.0 Q 481.0 1149.0 489.0 1149.0 L 555.0 1149.0 Q 563.0 1149.0 563.0 1157.0 L 563.0 1197.0" fill="none" stroke="#7A6B4E" stroke-width="1.4" stroke-linecap="round" stroke-linejoin="round" marker-end="url(#marker-end-serv-mcp-server-cli)"/></g><g data-dediren-edge-id="serv-cli-dist-tool"><marker id="marker-end-serv-cli-dist-tool" data-dediren-edge-marker-end="open_arrow" markerWidth="10" markerHeight="10" refX="9" refY="5" orient="auto"><path d="M 1 1 L 9 5 L 1 9" fill="none" stroke="#7A6B4E" stroke-width="1.5"/></marker><path d="M 586.0 1279.0 L 586.0 1351.0" fill="none" stroke="#7A6B4E" stroke-width="1.4" stroke-linecap="round" stroke-linejoin="round" marker-end="url(#marker-end-serv-cli-dist-tool)"/></g><g data-dediren-node-id="contracts"><rect data-dediren-node-shape="archimate_rectangle" x="1596.0" y="12.0" width="160.0" height="80.0" rx="0" fill="#17110A" stroke="#54D98A" stroke-width="1.5"/><g data-dediren-node-decorator="archimate_application_component" data-dediren-icon-kind="component" data-dediren-icon-size="22"><rect x="1732.0" y="21.0" width="18.0" height="15.8" rx="1.5" fill="#17110A" stroke="#54D98A" stroke-width="1.5"/><rect x="1728.0" y="23.6" width="7.9" height="5.7" rx="1.2" fill="#17110A" stroke="#54D98A" stroke-width="1.5"/><rect x="1728.0" y="30.7" width="7.9" height="5.7" rx="1.2" fill="#17110A" stroke="#54D98A" stroke-width="1.5"/></g><text x="1676.0" y="67.5" text-anchor="middle" dominant-baseline="middle" fill="#54D98A" font-size="13.0" textLength="52.7" lengthAdjust="spacing">contracts</text></g><g data-dediren-node-id="ir"><rect data-dediren-node-shape="archimate_rectangle" x="1035.0" y="190.0" width="160.0" height="80.0" rx="0" fill="#17110A" stroke="#F2A93B" stroke-width="1.5"/><g data-dediren-node-decorator="archimate_application_component" data-dediren-icon-kind="component" data-dediren-icon-size="22"><rect x="1171.0" y="199.0" width="18.0" height="15.8" rx="1.5" fill="#17110A" stroke="#F2A93B" stroke-width="1.5"/><rect x="1167.0" y="201.6" width="7.9" height="5.7" rx="1.2" fill="#17110A" stroke="#F2A93B" stroke-width="1.5"/><rect x="1167.0" y="208.7" width="7.9" height="5.7" rx="1.2" fill="#17110A" stroke="#F2A93B" stroke-width="1.5"/></g><text x="1115.0" y="245.5" text-anchor="middle" dominant-baseline="middle" fill="#ECDFC7" font-size="13.0" textLength="7.2" lengthAdjust="spacing">ir</text></g><g data-dediren-node-id="archimate"><rect data-dediren-node-shape="archimate_rectangle" x="1387.0" y="344.0" width="160.0" height="80.0" rx="0" fill="#17110A" stroke="#F2A93B" stroke-width="1.5"/><g data-dediren-node-decorator="archimate_application_component" data-dediren-icon-kind="component" data-dediren-icon-size="22"><rect x="1523.0" y="353.0" width="18.0" height="15.8" rx="1.5" fill="#17110A" stroke="#F2A93B" stroke-width="1.5"/><rect x="1519.0" y="355.6" width="7.9" height="5.7" rx="1.2" fill="#17110A" stroke="#F2A93B" stroke-width="1.5"/><rect x="1519.0" y="362.7" width="7.9" height="5.7" rx="1.2" fill="#17110A" stroke="#F2A93B" stroke-width="1.5"/></g><text x="1467.0" y="399.5" text-anchor="middle" dominant-baseline="middle" fill="#ECDFC7" font-size="13.0" textLength="57.0" lengthAdjust="spacing">archimate</text></g><g data-dediren-node-id="uml"><rect data-dediren-node-shape="archimate_rectangle" x="1619.0" y="344.0" width="160.0" height="80.0" rx="0" fill="#17110A" stroke="#F2A93B" stroke-width="1.5"/><g data-dediren-node-decorator="archimate_application_component" data-dediren-icon-kind="component" data-dediren-icon-size="22"><rect x="1755.0" y="353.0" width="18.0" height="15.8" rx="1.5" fill="#17110A" stroke="#F2A93B" stroke-width="1.5"/><rect x="1751.0" y="355.6" width="7.9" height="5.7" rx="1.2" fill="#17110A" stroke="#F2A93B" stroke-width="1.5"/><rect x="1751.0" y="362.7" width="7.9" height="5.7" rx="1.2" fill="#17110A" stroke="#F2A93B" stroke-width="1.5"/></g><text x="1699.0" y="399.5" text-anchor="middle" dominant-baseline="middle" fill="#ECDFC7" font-size="13.0" textLength="20.9" lengthAdjust="spacing">uml</text></g><g data-dediren-node-id="schema-cache"><rect data-dediren-node-shape="archimate_rectangle" x="1889.0" y="344.0" width="180.0" height="80.0" rx="0" fill="#17110A" stroke="#F2A93B" stroke-width="1.5"/><g data-dediren-node-decorator="archimate_application_component" data-dediren-icon-kind="component" data-dediren-icon-size="22"><rect x="2045.0" y="353.0" width="18.0" height="15.8" rx="1.5" fill="#17110A" stroke="#F2A93B" stroke-width="1.5"/><rect x="2041.0" y="355.6" width="7.9" height="5.7" rx="1.2" fill="#17110A" stroke="#F2A93B" stroke-width="1.5"/><rect x="2041.0" y="362.7" width="7.9" height="5.7" rx="1.2" fill="#17110A" stroke="#F2A93B" stroke-width="1.5"/></g><text x="1979.0" y="399.5" text-anchor="middle" dominant-baseline="middle" fill="#ECDFC7" font-size="13.0" textLength="84.5" lengthAdjust="spacing">schema-cache</text></g><g data-dediren-node-id="engine-api"><rect data-dediren-node-shape="archimate_rectangle" x="915.0" y="344.0" width="400.0" height="80.0" rx="0" fill="#17110A" stroke="#F2A93B" stroke-width="1.5"/><g data-dediren-node-decorator="archimate_application_component" data-dediren-icon-kind="component" data-dediren-icon-size="22"><rect x="1291.0" y="353.0" width="18.0" height="15.8" rx="1.5" fill="#17110A" stroke="#F2A93B" stroke-width="1.5"/><rect x="1287.0" y="355.6" width="7.9" height="5.7" rx="1.2" fill="#17110A" stroke="#F2A93B" stroke-width="1.5"/><rect x="1287.0" y="362.7" width="7.9" height="5.7" rx="1.2" fill="#17110A" stroke="#F2A93B" stroke-width="1.5"/></g><text x="1115.0" y="399.5" text-anchor="middle" dominant-baseline="middle" fill="#ECDFC7" font-size="13.0" textLength="60.6" lengthAdjust="spacing">engine-api</text></g><g data-dediren-node-id="core"><rect data-dediren-node-shape="archimate_rectangle" x="506.0" y="842.0" width="160.0" height="80.0" rx="0" fill="#17110A" stroke="#F2A93B" stroke-width="1.5"/><g data-dediren-node-decorator="archimate_application_component" data-dediren-icon-kind="component" data-dediren-icon-size="22"><rect x="642.0" y="851.0" width="18.0" height="15.8" rx="1.5" fill="#17110A" stroke="#F2A93B" stroke-width="1.5"/><rect x="638.0" y="853.6" width="7.9" height="5.7" rx="1.2" fill="#17110A" stroke="#F2A93B" stroke-width="1.5"/><rect x="638.0" y="860.7" width="7.9" height="5.7" rx="1.2" fill="#17110A" stroke="#F2A93B" stroke-width="1.5"/></g><text x="586.0" y="897.5" text-anchor="middle" dominant-baseline="middle" fill="#ECDFC7" font-size="13.0" textLength="25.2" lengthAdjust="spacing">core</text></g><g data-dediren-node-id="mermaid-import"><rect data-dediren-node-shape="archimate_rectangle" x="244.0" y="842.0" width="190.0" height="80.0" rx="0" fill="#17110A" stroke="#F2A93B" stroke-width="1.5"/><g data-dediren-node-decorator="archimate_application_component" data-dediren-icon-kind="component" data-dediren-icon-size="22"><rect x="410.0" y="851.0" width="18.0" height="15.8" rx="1.5" fill="#17110A" stroke="#F2A93B" stroke-width="1.5"/><rect x="406.0" y="853.6" width="7.9" height="5.7" rx="1.2" fill="#17110A" stroke="#F2A93B" stroke-width="1.5"/><rect x="406.0" y="860.7" width="7.9" height="5.7" rx="1.2" fill="#17110A" stroke="#F2A93B" stroke-width="1.5"/></g><text x="339.0" y="897.5" text-anchor="middle" dominant-baseline="middle" fill="#ECDFC7" font-size="13.0" textLength="91.0" lengthAdjust="spacing">mermaid-import</text></g><g data-dediren-node-id="semantics-graph"><rect data-dediren-node-shape="archimate_rectangle" x="738.0" y="842.0" width="200.0" height="80.0" rx="0" fill="#17110A" stroke="#F2A93B" stroke-width="1.5"/><g data-dediren-node-decorator="archimate_application_component" data-dediren-icon-kind="component" data-dediren-icon-size="22"><rect x="914.0" y="851.0" width="18.0" height="15.8" rx="1.5" fill="#17110A" stroke="#F2A93B" stroke-width="1.5"/><rect x="910.0" y="853.6" width="7.9" height="5.7" rx="1.2" fill="#17110A" stroke="#F2A93B" stroke-width="1.5"/><rect x="910.0" y="860.7" width="7.9" height="5.7" rx="1.2" fill="#17110A" stroke="#F2A93B" stroke-width="1.5"/></g><text x="838.0" y="897.5" text-anchor="middle" dominant-baseline="middle" fill="#ECDFC7" font-size="13.0" textLength="96.0" lengthAdjust="spacing">semantics-graph</text></g><g data-dediren-node-id="semantics-archimate"><rect data-dediren-node-shape="archimate_rectangle" x="1010.0" y="842.0" width="240.0" height="80.0" rx="0" fill="#17110A" stroke="#F2A93B" stroke-width="1.5"/><g data-dediren-node-decorator="archimate_application_component" data-dediren-icon-kind="component" data-dediren-icon-size="22"><rect x="1226.0" y="851.0" width="18.0" height="15.8" rx="1.5" fill="#17110A" stroke="#F2A93B" stroke-width="1.5"/><rect x="1222.0" y="853.6" width="7.9" height="5.7" rx="1.2" fill="#17110A" stroke="#F2A93B" stroke-width="1.5"/><rect x="1222.0" y="860.7" width="7.9" height="5.7" rx="1.2" fill="#17110A" stroke="#F2A93B" stroke-width="1.5"/></g><text x="1130.0" y="897.5" text-anchor="middle" dominant-baseline="middle" fill="#ECDFC7" font-size="13.0" textLength="119.9" lengthAdjust="spacing">semantics-archimate</text></g><g data-dediren-node-id="semantics-uml"><rect data-dediren-node-shape="archimate_rectangle" x="1322.0" y="842.0" width="190.0" height="80.0" rx="0" fill="#17110A" stroke="#F2A93B" stroke-width="1.5"/><g data-dediren-node-decorator="archimate_application_component" data-dediren-icon-kind="component" data-dediren-icon-size="22"><rect x="1488.0" y="851.0" width="18.0" height="15.8" rx="1.5" fill="#17110A" stroke="#F2A93B" stroke-width="1.5"/><rect x="1484.0" y="853.6" width="7.9" height="5.7" rx="1.2" fill="#17110A" stroke="#F2A93B" stroke-width="1.5"/><rect x="1484.0" y="860.7" width="7.9" height="5.7" rx="1.2" fill="#17110A" stroke="#F2A93B" stroke-width="1.5"/></g><text x="1417.0" y="897.5" text-anchor="middle" dominant-baseline="middle" fill="#ECDFC7" font-size="13.0" textLength="83.7" lengthAdjust="spacing">semantics-uml</text></g><g data-dediren-node-id="elk-layout"><rect data-dediren-node-shape="archimate_rectangle" x="12.0" y="842.0" width="160.0" height="80.0" rx="0" fill="#17110A" stroke="#F2A93B" stroke-width="1.5"/><g data-dediren-node-decorator="archimate_application_component" data-dediren-icon-kind="component" data-dediren-icon-size="22"><rect x="148.0" y="851.0" width="18.0" height="15.8" rx="1.5" fill="#17110A" stroke="#F2A93B" stroke-width="1.5"/><rect x="144.0" y="853.6" width="7.9" height="5.7" rx="1.2" fill="#17110A" stroke="#F2A93B" stroke-width="1.5"/><rect x="144.0" y="860.7" width="7.9" height="5.7" rx="1.2" fill="#17110A" stroke="#F2A93B" stroke-width="1.5"/></g><text x="92.0" y="897.5" text-anchor="middle" dominant-baseline="middle" fill="#ECDFC7" font-size="13.0" textLength="55.6" lengthAdjust="spacing">elk-layout</text></g><g data-dediren-node-id="render"><rect data-dediren-node-shape="archimate_rectangle" x="1584.0" y="842.0" width="160.0" height="80.0" rx="0" fill="#17110A" stroke="#F2A93B" stroke-width="1.5"/><g data-dediren-node-decorator="archimate_application_component" data-dediren-icon-kind="component" data-dediren-icon-size="22"><rect x="1720.0" y="851.0" width="18.0" height="15.8" rx="1.5" fill="#17110A" stroke="#F2A93B" stroke-width="1.5"/><rect x="1716.0" y="853.6" width="7.9" height="5.7" rx="1.2" fill="#17110A" stroke="#F2A93B" stroke-width="1.5"/><rect x="1716.0" y="860.7" width="7.9" height="5.7" rx="1.2" fill="#17110A" stroke="#F2A93B" stroke-width="1.5"/></g><text x="1664.0" y="897.5" text-anchor="middle" dominant-baseline="middle" fill="#ECDFC7" font-size="13.0" textLength="37.5" lengthAdjust="spacing">render</text></g><g data-dediren-node-id="archimate-oef-export"><rect data-dediren-node-shape="archimate_rectangle" x="2078.0" y="842.0" width="250.0" height="80.0" rx="0" fill="#17110A" stroke="#F2A93B" stroke-width="1.5"/><g data-dediren-node-decorator="archimate_application_component" data-dediren-icon-kind="component" data-dediren-icon-size="22"><rect x="2304.0" y="851.0" width="18.0" height="15.8" rx="1.5" fill="#17110A" stroke="#F2A93B" stroke-width="1.5"/><rect x="2300.0" y="853.6" width="7.9" height="5.7" rx="1.2" fill="#17110A" stroke="#F2A93B" stroke-width="1.5"/><rect x="2300.0" y="860.7" width="7.9" height="5.7" rx="1.2" fill="#17110A" stroke="#F2A93B" stroke-width="1.5"/></g><text x="2203.0" y="897.5" text-anchor="middle" dominant-baseline="middle" fill="#ECDFC7" font-size="13.0" textLength="119.9" lengthAdjust="spacing">archimate-oef-export</text></g><g data-dediren-node-id="uml-xmi-export"><rect data-dediren-node-shape="archimate_rectangle" x="1816.0" y="842.0" width="190.0" height="80.0" rx="0" fill="#17110A" stroke="#F2A93B" stroke-width="1.5"/><g data-dediren-node-decorator="archimate_application_component" data-dediren-icon-kind="component" data-dediren-icon-size="22"><rect x="1982.0" y="851.0" width="18.0" height="15.8" rx="1.5" fill="#17110A" stroke="#F2A93B" stroke-width="1.5"/><rect x="1978.0" y="853.6" width="7.9" height="5.7" rx="1.2" fill="#17110A" stroke="#F2A93B" stroke-width="1.5"/><rect x="1978.0" y="860.7" width="7.9" height="5.7" rx="1.2" fill="#17110A" stroke="#F2A93B" stroke-width="1.5"/></g><text x="1911.0" y="897.5" text-anchor="middle" dominant-baseline="middle" fill="#ECDFC7" font-size="13.0" textLength="85.9" lengthAdjust="spacing">uml-xmi-export</text></g><g data-dediren-node-id="mcp-server"><rect data-dediren-node-shape="archimate_rectangle" x="401.0" y="1020.0" width="160.0" height="80.0" rx="0" fill="#17110A" stroke="#F2A93B" stroke-width="1.5"/><g data-dediren-node-decorator="archimate_application_component" data-dediren-icon-kind="component" data-dediren-icon-size="22"><rect x="537.0" y="1029.0" width="18.0" height="15.8" rx="1.5" fill="#17110A" stroke="#F2A93B" stroke-width="1.5"/><rect x="533.0" y="1031.6" width="7.9" height="5.7" rx="1.2" fill="#17110A" stroke="#F2A93B" stroke-width="1.5"/><rect x="533.0" y="1038.7" width="7.9" height="5.7" rx="1.2" fill="#17110A" stroke="#F2A93B" stroke-width="1.5"/></g><text x="481.0" y="1075.5" text-anchor="middle" dominant-baseline="middle" fill="#ECDFC7" font-size="13.0" textLength="65.0" lengthAdjust="spacing">mcp-server</text></g><g data-dediren-node-id="cli"><rect data-dediren-node-shape="archimate_rectangle" x="506.0" y="1198.0" width="160.0" height="80.0" rx="0" fill="#17110A" stroke="#F2A93B" stroke-width="1.5"/><g data-dediren-node-decorator="archimate_application_component" data-dediren-icon-kind="component" data-dediren-icon-size="22"><rect x="642.0" y="1207.0" width="18.0" height="15.8" rx="1.5" fill="#17110A" stroke="#F2A93B" stroke-width="1.5"/><rect x="638.0" y="1209.6" width="7.9" height="5.7" rx="1.2" fill="#17110A" stroke="#F2A93B" stroke-width="1.5"/><rect x="638.0" y="1216.7" width="7.9" height="5.7" rx="1.2" fill="#17110A" stroke="#F2A93B" stroke-width="1.5"/></g><text x="586.0" y="1253.5" text-anchor="middle" dominant-baseline="middle" fill="#ECDFC7" font-size="13.0" textLength="12.2" lengthAdjust="spacing">cli</text></g><g data-dediren-node-id="dist-tool"><rect data-dediren-node-shape="archimate_rectangle" x="506.0" y="1352.0" width="160.0" height="80.0" rx="0" fill="#17110A" stroke="#F2A93B" stroke-width="1.5"/><g data-dediren-node-decorator="archimate_application_component" data-dediren-icon-kind="component" data-dediren-icon-size="22"><rect x="642.0" y="1361.0" width="18.0" height="15.8" rx="1.5" fill="#17110A" stroke="#F2A93B" stroke-width="1.5"/><rect x="638.0" y="1363.6" width="7.9" height="5.7" rx="1.2" fill="#17110A" stroke="#F2A93B" stroke-width="1.5"/><rect x="638.0" y="1370.7" width="7.9" height="5.7" rx="1.2" fill="#17110A" stroke="#F2A93B" stroke-width="1.5"/></g><text x="586.0" y="1407.5" text-anchor="middle" dominant-baseline="middle" fill="#ECDFC7" font-size="13.0" textLength="45.5" lengthAdjust="spacing">dist-tool</text></g></g></svg>
